{"glyphs":{"0":{"ha":747,"x_min":42,"x_max":706,"o":"m 42 413 q 135 738 42 632 q 372 843 228 843 q 613 735 519 843 q 706 413 706 628 q 613 92 706 199 q 372 -14 521 -14 q 132 94 222 -14 q 42 413 42 203 m 165 414 q 219 106 165 185 q 372 28 274 28 q 529 109 474 28 q 585 414 585 190 q 529 725 585 644 q 372 806 474 806 q 219 721 274 806 q 165 414 165 636 z "},"1":{"ha":538,"x_min":86,"x_max":453,"o":"m 86 713 q 178 753 138 728 q 249 800 219 778 q 282 828 267 814 q 313 857 297 842 l 336 857 l 336 60 q 363 32 336 32 l 453 33 l 453 0 l 108 0 l 108 33 l 200 32 q 229 60 229 32 l 229 690 q 221 710 229 703 q 200 711 213 717 l 97 665 l 86 713 z "},"2":{"ha":703,"x_min":65,"x_max":632,"o":"m 342 843 q 517 796 439 843 q 594 618 594 749 q 544 456 594 538 q 336 233 493 374 l 128 50 l 128 92 l 421 92 q 535 119 496 92 q 582 229 574 147 l 632 229 q 606 72 614 124 q 597 -4 599 21 q 566 -1 592 -3 q 522 0 540 0 l 68 0 l 65 63 l 228 217 q 400 409 331 315 q 469 624 469 503 q 431 760 469 714 q 331 806 393 806 q 230 778 269 806 q 190 699 190 750 q 198 659 190 675 q 206 624 206 643 q 183 582 206 592 q 142 572 160 572 q 91 593 110 572 q 72 651 72 614 q 136 781 72 719 q 342 843 200 843 z "},"3":{"ha":692,"x_min":49,"x_max":642,"o":"m 303 444 l 303 442 q 558 383 475 438 q 642 225 642 328 q 546 46 642 106 q 324 -14 450 -14 q 124 38 200 -14 q 49 160 49 90 q 66 210 49 192 q 117 229 83 229 q 165 214 147 229 q 182 175 182 199 q 175 141 182 156 q 168 107 168 126 q 212 45 168 67 q 313 24 256 24 q 469 85 419 24 q 518 221 518 147 q 449 359 518 308 q 222 415 381 410 l 222 454 q 391 526 317 468 q 465 675 465 583 q 431 768 465 731 q 322 806 397 806 q 226 783 267 806 q 186 721 186 760 q 194 688 186 703 q 201 654 201 674 q 180 613 201 625 q 135 600 158 600 q 83 622 99 600 q 67 672 67 643 q 150 796 67 749 q 340 843 233 843 q 513 802 436 843 q 589 674 589 761 q 502 520 589 581 q 303 444 415 460 z "},"4":{"ha":653,"x_min":24,"x_max":617,"o":"m 506 839 l 506 311 l 617 311 l 617 215 l 506 215 l 506 60 q 532 32 506 32 l 596 33 l 596 0 l 279 0 l 279 33 l 372 32 q 397 60 397 32 l 397 215 l 24 215 l 24 299 q 44 317 33 307 q 65 340 56 328 l 106 383 l 419 769 l 442 800 l 471 839 l 506 839 m 397 678 l 100 311 l 397 311 l 397 678 z "},"5":{"ha":683,"x_min":53,"x_max":628,"o":"m 600 833 q 588 789 592 817 q 581 738 583 761 l 133 738 l 175 799 l 144 440 l 119 435 q 219 503 151 475 q 349 531 288 531 q 550 463 472 531 q 628 260 628 394 q 537 58 628 131 q 325 -14 446 -14 q 199 6 261 -14 q 94 66 136 25 q 53 171 53 107 q 72 226 53 210 q 124 243 92 243 q 167 230 147 243 q 186 189 186 217 q 178 154 186 167 q 171 122 171 142 q 222 47 171 69 q 326 24 272 24 q 456 89 408 24 q 503 265 503 154 q 451 416 503 358 q 310 474 399 474 q 207 452 254 474 q 135 400 160 431 l 97 400 l 126 829 l 485 829 q 562 831 538 829 q 600 833 586 832 z "},"6":{"ha":674,"x_min":63,"x_max":632,"o":"m 63 375 q 90 588 63 481 q 188 769 117 696 q 392 843 260 843 q 544 799 497 843 q 592 710 592 754 q 574 658 592 682 q 519 635 557 635 q 457 685 457 635 q 463 710 457 700 q 468 736 468 719 q 442 785 468 765 q 376 804 417 804 q 228 689 275 804 q 182 419 181 574 l 169 406 q 240 513 189 471 q 375 554 290 554 q 562 478 492 554 q 632 278 632 403 q 552 63 632 142 q 344 -15 472 -15 q 180 34 242 -15 q 90 171 118 83 q 63 375 63 258 m 181 268 q 222 97 181 175 q 358 19 263 19 q 476 85 440 19 q 513 260 513 150 q 501 374 513 314 q 456 475 489 433 q 356 517 422 517 q 225 445 269 517 q 181 268 181 374 z "},"7":{"ha":593,"x_min":42,"x_max":585,"o":"m 63 833 q 120 830 76 831 q 228 829 164 829 l 579 829 l 585 771 q 396 477 472 646 q 319 104 319 308 q 319 76 319 94 q 325 0 319 57 l 194 0 q 220 225 197 106 q 316 482 243 344 q 542 779 389 619 l 542 736 l 215 736 q 92 656 103 736 l 42 656 q 55 754 47 694 q 63 833 63 814 z "},"8":{"ha":685,"x_min":51,"x_max":643,"o":"m 422 451 l 390 468 q 501 551 468 501 q 535 660 535 600 q 492 769 535 733 q 378 806 450 806 q 260 769 304 806 q 215 672 215 733 q 276 553 215 599 q 413 465 336 508 q 570 363 497 418 q 643 215 643 307 q 546 49 643 111 q 325 -14 449 -14 q 137 32 222 -14 q 51 181 51 78 q 113 331 51 267 q 263 426 175 394 l 297 408 q 190 319 236 381 q 143 186 143 257 q 193 70 143 117 q 333 24 243 24 q 461 60 410 24 q 513 168 513 97 q 431 316 513 261 q 271 414 349 371 q 138 508 189 458 q 88 633 88 558 q 169 787 88 731 q 369 843 251 843 q 549 797 475 843 q 622 661 622 751 q 553 517 622 568 q 422 451 483 465 z "},"9":{"ha":674,"x_min":65,"x_max":635,"o":"m 635 453 q 608 240 635 347 q 509 58 581 132 q 306 -15 438 -15 q 153 29 200 -15 q 106 118 106 74 q 123 169 106 146 q 178 193 140 193 q 240 143 240 193 q 235 118 240 128 q 229 92 229 108 q 255 43 229 63 q 321 24 281 24 q 469 139 422 24 q 515 408 517 254 l 528 422 q 458 315 508 357 q 322 274 407 274 q 135 349 206 274 q 65 550 65 425 q 145 765 65 686 q 353 843 225 843 q 517 794 456 843 q 607 657 579 744 q 635 453 635 569 m 517 560 q 476 731 517 653 q 339 808 435 808 q 221 743 257 808 q 185 568 185 678 q 197 454 185 514 q 242 353 208 394 q 342 311 275 311 q 472 383 428 311 q 517 560 517 454 z "},"A":{"ha":835,"x_min":-28,"x_max":863,"o":"m 532 289 l 190 289 l 204 328 l 518 328 l 532 289 m 365 692 l 135 133 q 115 65 119 97 q 146 36 111 33 l 213 40 l 213 0 l -28 0 l -28 40 l 8 38 l 14 38 q 60 64 42 38 q 101 144 81 94 l 392 843 l 428 843 l 365 692 m 428 843 l 721 142 q 761 63 740 92 q 810 38 781 38 l 817 38 l 863 40 l 863 0 l 494 0 l 494 40 l 563 38 q 604 64 604 35 q 590 125 604 93 l 354 692 l 428 843 z "},"Á":{"ha":835,"x_min":-28,"x_max":863,"o":"m 532 289 l 190 289 l 204 328 l 518 328 l 532 289 m 365 692 l 135 133 q 115 65 119 97 q 146 36 111 33 l 213 40 l 213 0 l -28 0 l -28 40 l 8 38 l 14 38 q 60 64 42 38 q 101 144 81 94 l 392 843 l 428 843 l 365 692 m 428 843 l 721 142 q 761 63 740 92 q 810 38 781 38 l 817 38 l 863 40 l 863 0 l 494 0 l 494 40 l 563 38 q 604 64 604 35 q 590 125 604 93 l 354 692 l 428 843 z "},"Ă":{"ha":835,"x_min":-28,"x_max":863,"o":"m 532 289 l 190 289 l 204 328 l 518 328 l 532 289 m 365 692 l 135 133 q 115 65 119 97 q 146 36 111 33 l 213 40 l 213 0 l -28 0 l -28 40 l 8 38 l 14 38 q 60 64 42 38 q 101 144 81 94 l 392 843 l 428 843 l 365 692 m 428 843 l 721 142 q 761 63 740 92 q 810 38 781 38 l 817 38 l 863 40 l 863 0 l 494 0 l 494 40 l 563 38 q 604 64 604 35 q 590 125 604 93 l 354 692 l 428 843 z "},"Â":{"ha":835,"x_min":-28,"x_max":863,"o":"m 532 289 l 190 289 l 204 328 l 518 328 l 532 289 m 365 692 l 135 133 q 115 65 119 97 q 146 36 111 33 l 213 40 l 213 0 l -28 0 l -28 40 l 8 38 l 14 38 q 60 64 42 38 q 101 144 81 94 l 392 843 l 428 843 l 365 692 m 428 843 l 721 142 q 761 63 740 92 q 810 38 781 38 l 817 38 l 863 40 l 863 0 l 494 0 l 494 40 l 563 38 q 604 64 604 35 q 590 125 604 93 l 354 692 l 428 843 z "},"Ä":{"ha":835,"x_min":-28,"x_max":863,"o":"m 532 289 l 190 289 l 204 328 l 518 328 l 532 289 m 365 692 l 135 133 q 115 65 119 97 q 146 36 111 33 l 213 40 l 213 0 l -28 0 l -28 40 l 8 38 l 14 38 q 60 64 42 38 q 101 144 81 94 l 392 843 l 428 843 l 365 692 m 428 843 l 721 142 q 761 63 740 92 q 810 38 781 38 l 817 38 l 863 40 l 863 0 l 494 0 l 494 40 l 563 38 q 604 64 604 35 q 590 125 604 93 l 354 692 l 428 843 z "},"À":{"ha":835,"x_min":-28,"x_max":863,"o":"m 532 289 l 190 289 l 204 328 l 518 328 l 532 289 m 365 692 l 135 133 q 115 65 119 97 q 146 36 111 33 l 213 40 l 213 0 l -28 0 l -28 40 l 8 38 l 14 38 q 60 64 42 38 q 101 144 81 94 l 392 843 l 428 843 l 365 692 m 428 843 l 721 142 q 761 63 740 92 q 810 38 781 38 l 817 38 l 863 40 l 863 0 l 494 0 l 494 40 l 563 38 q 604 64 604 35 q 590 125 604 93 l 354 692 l 428 843 z "},"Ā":{"ha":835,"x_min":-28,"x_max":863,"o":"m 532 289 l 190 289 l 204 328 l 518 328 l 532 289 m 365 692 l 135 133 q 115 65 119 97 q 146 36 111 33 l 213 40 l 213 0 l -28 0 l -28 40 l 8 38 l 14 38 q 60 64 42 38 q 101 144 81 94 l 392 843 l 428 843 l 365 692 m 428 843 l 721 142 q 761 63 740 92 q 810 38 781 38 l 817 38 l 863 40 l 863 0 l 494 0 l 494 40 l 563 38 q 604 64 604 35 q 590 125 604 93 l 354 692 l 428 843 z "},"Ą":{"ha":835,"x_min":-28,"x_max":903,"o":"m 532 289 l 190 289 l 204 328 l 518 328 l 532 289 m 365 692 l 135 133 q 115 65 119 97 q 146 36 111 33 l 213 40 l 213 0 l -28 0 l -28 40 l 8 38 l 14 38 q 60 64 42 38 q 101 144 81 94 l 392 843 l 428 843 l 365 692 m 428 843 l 721 142 q 761 63 740 92 q 810 38 781 38 l 817 38 l 863 40 l 863 0 l 494 0 l 494 40 l 563 38 q 604 64 604 35 q 590 125 604 93 l 354 692 l 428 843 m 903 -137 q 739 -221 831 -221 q 668 -196 700 -221 q 636 -121 636 -171 q 740 19 636 -28 l 779 19 q 708 -86 708 -14 q 728 -139 708 -117 q 789 -161 747 -161 q 886 -121 839 -161 l 903 -137 z "},"Å":{"ha":835,"x_min":-28,"x_max":863,"o":"m 532 289 l 190 289 l 204 328 l 518 328 l 532 289 m 365 692 l 135 133 q 115 65 119 97 q 146 36 111 33 l 213 40 l 213 0 l -28 0 l -28 40 l 8 38 l 14 38 q 60 64 42 38 q 101 144 81 94 l 392 843 l 428 843 l 365 692 m 428 843 l 721 142 q 761 63 740 92 q 810 38 781 38 l 817 38 l 863 40 l 863 0 l 494 0 l 494 40 l 563 38 q 604 64 604 35 q 590 125 604 93 l 354 692 l 428 843 z "},"Ã":{"ha":835,"x_min":-28,"x_max":863,"o":"m 532 289 l 190 289 l 204 328 l 518 328 l 532 289 m 365 692 l 135 133 q 115 65 119 97 q 146 36 111 33 l 213 40 l 213 0 l -28 0 l -28 40 l 8 38 l 14 38 q 60 64 42 38 q 101 144 81 94 l 392 843 l 428 843 l 365 692 m 428 843 l 721 142 q 761 63 740 92 q 810 38 781 38 l 817 38 l 863 40 l 863 0 l 494 0 l 494 40 l 563 38 q 604 64 604 35 q 590 125 604 93 l 354 692 l 428 843 z "},"Æ":{"ha":1176,"x_min":-28,"x_max":1115,"o":"m 1088 832 l 1088 615 l 1051 615 q 854 790 1051 790 l 626 790 l 689 450 l 804 450 q 879 489 849 450 q 910 592 910 528 l 946 592 l 946 271 l 910 271 q 879 373 910 333 q 804 413 849 413 l 694 413 l 761 64 q 790 38 768 38 l 882 38 q 1078 238 1078 38 l 1115 238 l 1115 -4 q 1043 -1 1078 -1 q 993 0 1008 0 l 514 0 l 514 42 l 593 38 q 619 48 611 36 q 624 72 626 60 l 583 289 l 242 289 l 136 111 q 117 63 125 92 q 144 38 110 35 l 215 42 l 215 0 l -28 0 l -28 42 l 15 38 q 99 119 44 33 l 486 754 q 485 777 493 767 q 465 788 476 788 l 394 785 l 394 829 l 1040 829 q 1088 832 1068 829 m 503 715 l 264 328 l 575 328 l 503 715 z "},"B":{"ha":796,"x_min":69,"x_max":740,"o":"m 454 829 q 694 631 694 829 q 642 506 694 557 q 503 440 589 456 q 671 379 601 440 q 740 225 740 318 q 433 0 740 0 l 69 0 l 69 40 l 139 38 q 164 68 164 38 l 164 763 q 140 790 164 790 l 69 788 l 69 829 l 454 829 m 436 415 l 293 415 l 293 57 q 313 39 293 39 l 410 39 q 551 88 497 39 q 606 225 606 138 q 563 368 606 321 q 436 415 519 415 m 390 790 l 310 790 q 293 774 294 790 l 293 454 l 399 454 q 522 498 481 454 q 563 629 563 542 q 517 747 563 704 q 390 790 472 790 z "},"C":{"ha":843,"x_min":63,"x_max":781,"o":"m 63 410 q 173 729 63 615 q 479 843 283 843 q 595 828 550 843 q 678 799 640 814 q 768 783 717 783 q 764 732 765 760 q 763 679 763 704 q 768 601 763 607 l 735 601 q 642 747 717 686 q 472 808 567 808 q 276 699 347 808 q 204 410 204 589 q 279 131 204 239 q 479 24 354 24 q 650 83 578 24 q 742 232 722 143 l 781 232 q 774 160 775 192 q 772 114 772 128 q 776 49 772 74 l 768 49 q 638 17 714 49 q 472 -14 563 -14 q 173 99 283 -14 q 63 410 63 213 z "},"Ć":{"ha":843,"x_min":63,"x_max":781,"o":"m 63 410 q 173 729 63 615 q 479 843 283 843 q 595 828 550 843 q 678 799 640 814 q 768 783 717 783 q 764 732 765 760 q 763 679 763 704 q 768 601 763 607 l 735 601 q 642 747 717 686 q 472 808 567 808 q 276 699 347 808 q 204 410 204 589 q 279 131 204 239 q 479 24 354 24 q 650 83 578 24 q 742 232 722 143 l 781 232 q 774 160 775 192 q 772 114 772 128 q 776 49 772 74 l 768 49 q 638 17 714 49 q 472 -14 563 -14 q 173 99 283 -14 q 63 410 63 213 z "},"Č":{"ha":843,"x_min":63,"x_max":781,"o":"m 63 410 q 173 729 63 615 q 479 843 283 843 q 595 828 550 843 q 678 799 640 814 q 768 783 717 783 q 764 732 765 760 q 763 679 763 704 q 768 601 763 607 l 735 601 q 642 747 717 686 q 472 808 567 808 q 276 699 347 808 q 204 410 204 589 q 279 131 204 239 q 479 24 354 24 q 650 83 578 24 q 742 232 722 143 l 781 232 q 774 160 775 192 q 772 114 772 128 q 776 49 772 74 l 768 49 q 638 17 714 49 q 472 -14 563 -14 q 173 99 283 -14 q 63 410 63 213 z "},"Ç":{"ha":843,"x_min":63,"x_max":781,"o":"m 63 410 q 173 729 63 615 q 479 843 283 843 q 595 828 550 843 q 678 799 640 814 q 768 783 717 783 q 764 732 765 760 q 763 679 763 704 q 768 601 763 607 l 735 601 q 642 747 717 686 q 472 808 567 808 q 276 699 347 808 q 204 410 204 589 q 279 131 204 239 q 479 24 354 24 q 650 83 578 24 q 742 232 722 143 l 781 232 q 774 160 775 192 q 772 114 772 128 q 776 49 772 74 l 768 49 q 638 17 714 49 q 472 -14 563 -14 q 173 99 283 -14 q 63 410 63 213 m 304 -275 l 314 -242 q 363 -260 331 -260 q 417 -238 394 -260 q 440 -185 440 -217 q 426 -153 440 -167 q 393 -131 411 -140 l 361 -111 q 346 -90 346 -100 q 354 -72 346 -81 l 411 0 l 457 0 l 419 -60 q 411 -86 411 -75 q 441 -107 411 -103 q 501 -122 471 -111 q 531 -169 531 -133 q 497 -262 531 -228 q 400 -297 464 -297 q 355 -294 382 -297 q 304 -275 328 -290 z "},"D":{"ha":865,"x_min":69,"x_max":817,"o":"m 69 0 l 69 40 l 129 38 q 150 68 150 38 l 150 761 q 124 790 150 790 l 69 788 l 69 829 l 382 829 q 708 735 600 829 q 817 415 817 642 q 715 106 817 213 q 399 0 613 0 l 69 0 m 279 57 q 296 39 279 39 l 358 39 q 542 76 472 39 q 644 195 613 113 q 675 414 675 278 q 603 704 675 618 q 358 790 531 790 l 296 790 q 279 772 279 790 l 279 57 z "},"Ð":{"ha":876,"x_min":58,"x_max":817,"o":"m 58 407 l 58 457 l 543 457 l 543 407 l 58 407 m 69 0 l 69 40 l 129 38 q 150 68 150 38 l 150 761 q 124 790 150 790 l 69 788 l 69 829 l 382 829 q 708 735 600 829 q 817 415 817 642 q 715 106 817 213 q 399 0 613 0 l 69 0 m 279 57 q 296 39 279 39 l 358 39 q 542 76 472 39 q 644 195 613 113 q 675 414 675 278 q 603 704 675 618 q 358 790 531 790 l 296 790 q 279 772 279 790 l 279 57 z "},"Ď":{"ha":865,"x_min":69,"x_max":817,"o":"m 69 0 l 69 40 l 129 38 q 150 68 150 38 l 150 761 q 124 790 150 790 l 69 788 l 69 829 l 382 829 q 708 735 600 829 q 817 415 817 642 q 715 106 817 213 q 399 0 613 0 l 69 0 m 279 57 q 296 39 279 39 l 358 39 q 542 76 472 39 q 644 195 613 113 q 675 414 675 278 q 603 704 675 618 q 358 790 531 790 l 296 790 q 279 772 279 790 l 279 57 z "},"Đ":{"ha":876,"x_min":58,"x_max":817,"o":"m 58 407 l 58 457 l 543 457 l 543 407 l 58 407 m 69 0 l 69 40 l 129 38 q 150 68 150 38 l 150 761 q 124 790 150 790 l 69 788 l 69 829 l 382 829 q 708 735 600 829 q 817 415 817 642 q 715 106 817 213 q 399 0 613 0 l 69 0 m 279 57 q 296 39 279 39 l 358 39 q 542 76 472 39 q 644 195 613 113 q 675 414 675 278 q 603 704 675 618 q 358 790 531 790 l 296 790 q 279 772 279 790 l 279 57 z "},"E":{"ha":782,"x_min":69,"x_max":721,"o":"m 69 0 l 69 42 l 125 38 q 150 68 150 38 l 150 761 q 122 790 150 793 l 69 788 l 69 829 l 626 829 l 656 829 q 679 831 675 829 l 679 615 l 642 615 q 594 749 642 708 q 444 790 547 790 l 296 790 q 279 771 279 790 l 279 451 l 410 451 q 485 488 456 451 q 515 592 515 525 l 553 592 l 553 271 l 515 271 q 484 373 515 333 q 410 413 453 413 l 279 413 l 279 57 q 296 39 279 39 l 490 39 q 683 249 683 39 l 721 249 l 721 -4 q 674 -1 706 -3 q 599 0 643 0 l 69 0 z "},"É":{"ha":782,"x_min":69,"x_max":721,"o":"m 69 0 l 69 42 l 125 38 q 150 68 150 38 l 150 761 q 122 790 150 793 l 69 788 l 69 829 l 626 829 l 656 829 q 679 831 675 829 l 679 615 l 642 615 q 594 749 642 708 q 444 790 547 790 l 296 790 q 279 771 279 790 l 279 451 l 410 451 q 485 488 456 451 q 515 592 515 525 l 553 592 l 553 271 l 515 271 q 484 373 515 333 q 410 413 453 413 l 279 413 l 279 57 q 296 39 279 39 l 490 39 q 683 249 683 39 l 721 249 l 721 -4 q 674 -1 706 -3 q 599 0 643 0 l 69 0 z "},"Ě":{"ha":782,"x_min":69,"x_max":721,"o":"m 69 0 l 69 42 l 125 38 q 150 68 150 38 l 150 761 q 122 790 150 793 l 69 788 l 69 829 l 626 829 l 656 829 q 679 831 675 829 l 679 615 l 642 615 q 594 749 642 708 q 444 790 547 790 l 296 790 q 279 771 279 790 l 279 451 l 410 451 q 485 488 456 451 q 515 592 515 525 l 553 592 l 553 271 l 515 271 q 484 373 515 333 q 410 413 453 413 l 279 413 l 279 57 q 296 39 279 39 l 490 39 q 683 249 683 39 l 721 249 l 721 -4 q 674 -1 706 -3 q 599 0 643 0 l 69 0 z "},"Ê":{"ha":782,"x_min":69,"x_max":721,"o":"m 69 0 l 69 42 l 125 38 q 150 68 150 38 l 150 761 q 122 790 150 793 l 69 788 l 69 829 l 626 829 l 656 829 q 679 831 675 829 l 679 615 l 642 615 q 594 749 642 708 q 444 790 547 790 l 296 790 q 279 771 279 790 l 279 451 l 410 451 q 485 488 456 451 q 515 592 515 525 l 553 592 l 553 271 l 515 271 q 484 373 515 333 q 410 413 453 413 l 279 413 l 279 57 q 296 39 279 39 l 490 39 q 683 249 683 39 l 721 249 l 721 -4 q 674 -1 706 -3 q 599 0 643 0 l 69 0 z "},"Ë":{"ha":782,"x_min":69,"x_max":721,"o":"m 69 0 l 69 42 l 125 38 q 150 68 150 38 l 150 761 q 122 790 150 793 l 69 788 l 69 829 l 626 829 l 656 829 q 679 831 675 829 l 679 615 l 642 615 q 594 749 642 708 q 444 790 547 790 l 296 790 q 279 771 279 790 l 279 451 l 410 451 q 485 488 456 451 q 515 592 515 525 l 553 592 l 553 271 l 515 271 q 484 373 515 333 q 410 413 453 413 l 279 413 l 279 57 q 296 39 279 39 l 490 39 q 683 249 683 39 l 721 249 l 721 -4 q 674 -1 706 -3 q 599 0 643 0 l 69 0 z "},"Ė":{"ha":782,"x_min":69,"x_max":721,"o":"m 69 0 l 69 42 l 125 38 q 150 68 150 38 l 150 761 q 122 790 150 793 l 69 788 l 69 829 l 626 829 l 656 829 q 679 831 675 829 l 679 615 l 642 615 q 594 749 642 708 q 444 790 547 790 l 296 790 q 279 771 279 790 l 279 451 l 410 451 q 485 488 456 451 q 515 592 515 525 l 553 592 l 553 271 l 515 271 q 484 373 515 333 q 410 413 453 413 l 279 413 l 279 57 q 296 39 279 39 l 490 39 q 683 249 683 39 l 721 249 l 721 -4 q 674 -1 706 -3 q 599 0 643 0 l 69 0 z "},"È":{"ha":782,"x_min":69,"x_max":721,"o":"m 69 0 l 69 42 l 125 38 q 150 68 150 38 l 150 761 q 122 790 150 793 l 69 788 l 69 829 l 626 829 l 656 829 q 679 831 675 829 l 679 615 l 642 615 q 594 749 642 708 q 444 790 547 790 l 296 790 q 279 771 279 790 l 279 451 l 410 451 q 485 488 456 451 q 515 592 515 525 l 553 592 l 553 271 l 515 271 q 484 373 515 333 q 410 413 453 413 l 279 413 l 279 57 q 296 39 279 39 l 490 39 q 683 249 683 39 l 721 249 l 721 -4 q 674 -1 706 -3 q 599 0 643 0 l 69 0 z "},"Ē":{"ha":782,"x_min":69,"x_max":721,"o":"m 69 0 l 69 42 l 125 38 q 150 68 150 38 l 150 761 q 122 790 150 793 l 69 788 l 69 829 l 626 829 l 656 829 q 679 831 675 829 l 679 615 l 642 615 q 594 749 642 708 q 444 790 547 790 l 296 790 q 279 771 279 790 l 279 451 l 410 451 q 485 488 456 451 q 515 592 515 525 l 553 592 l 553 271 l 515 271 q 484 373 515 333 q 410 413 453 413 l 279 413 l 279 57 q 296 39 279 39 l 490 39 q 683 249 683 39 l 721 249 l 721 -4 q 674 -1 706 -3 q 599 0 643 0 l 69 0 z "},"Ę":{"ha":782,"x_min":69,"x_max":772,"o":"m 69 0 l 69 42 l 125 38 q 150 68 150 38 l 150 761 q 122 790 150 793 l 69 788 l 69 829 l 626 829 l 656 829 q 679 831 675 829 l 679 615 l 642 615 q 594 749 642 708 q 444 790 547 790 l 296 790 q 279 771 279 790 l 279 451 l 410 451 q 485 488 456 451 q 515 592 515 525 l 553 592 l 553 271 l 515 271 q 484 373 515 333 q 410 413 453 413 l 279 413 l 279 57 q 296 39 279 39 l 490 39 q 683 249 683 39 l 721 249 l 721 -4 q 674 -1 706 -3 q 599 0 643 0 l 69 0 m 772 -137 q 608 -221 700 -221 q 538 -196 569 -221 q 506 -121 506 -171 q 610 19 506 -28 l 649 19 q 578 -86 578 -14 q 597 -139 578 -117 q 658 -161 617 -161 q 756 -121 708 -161 l 772 -137 z "},"F":{"ha":735,"x_min":69,"x_max":693,"o":"m 69 0 l 69 42 l 125 38 q 150 68 150 38 l 150 761 q 126 790 150 790 l 124 790 l 69 788 l 69 829 l 644 829 l 672 829 q 693 831 689 829 l 693 615 l 656 615 q 458 790 656 790 l 296 790 q 279 772 279 790 l 279 438 l 383 438 q 463 475 432 438 q 493 579 493 513 l 531 579 l 531 260 l 493 260 q 463 361 493 324 q 383 399 432 399 l 279 399 l 279 67 q 306 38 279 38 l 378 42 l 378 0 l 69 0 z "},"G":{"ha":897,"x_min":63,"x_max":869,"o":"m 63 410 q 172 735 63 626 q 479 843 281 843 q 659 813 596 843 q 768 783 722 783 q 764 744 765 768 q 763 688 763 719 q 765 644 763 664 q 768 601 767 624 l 713 601 q 714 622 714 608 q 653 758 714 708 q 472 808 592 808 q 281 710 357 808 q 204 410 204 613 q 277 115 204 207 q 479 24 350 24 q 579 37 540 24 q 657 88 618 50 l 657 310 q 631 340 657 340 l 549 338 l 549 378 l 869 378 l 869 338 l 813 340 q 786 311 786 340 l 786 49 q 768 50 781 50 q 652 18 722 50 q 472 -14 582 -14 q 172 92 281 -14 q 63 410 63 197 z "},"Ğ":{"ha":897,"x_min":63,"x_max":869,"o":"m 63 410 q 172 735 63 626 q 479 843 281 843 q 659 813 596 843 q 768 783 722 783 q 764 744 765 768 q 763 688 763 719 q 765 644 763 664 q 768 601 767 624 l 713 601 q 714 622 714 608 q 653 758 714 708 q 472 808 592 808 q 281 710 357 808 q 204 410 204 613 q 277 115 204 207 q 479 24 350 24 q 579 37 540 24 q 657 88 618 50 l 657 310 q 631 340 657 340 l 549 338 l 549 378 l 869 378 l 869 338 l 813 340 q 786 311 786 340 l 786 49 q 768 50 781 50 q 652 18 722 50 q 472 -14 582 -14 q 172 92 281 -14 q 63 410 63 197 z "},"Ģ":{"ha":897,"x_min":63,"x_max":869,"o":"m 63 410 q 172 735 63 626 q 479 843 281 843 q 659 813 596 843 q 768 783 722 783 q 764 744 765 768 q 763 688 763 719 q 765 644 763 664 q 768 601 767 624 l 713 601 q 714 622 714 608 q 653 758 714 708 q 472 808 592 808 q 281 710 357 808 q 204 410 204 613 q 277 115 204 207 q 479 24 350 24 q 579 37 540 24 q 657 88 618 50 l 657 310 q 631 340 657 340 l 549 338 l 549 378 l 869 378 l 869 338 l 813 340 q 786 311 786 340 l 786 49 q 768 50 781 50 q 652 18 722 50 q 472 -14 582 -14 q 172 92 281 -14 q 63 410 63 197 m 394 -278 q 443 -238 422 -262 q 464 -194 464 -214 q 425 -154 464 -154 q 394 -140 406 -154 q 383 -107 383 -125 q 400 -66 383 -85 q 450 -47 417 -47 q 511 -74 489 -47 q 533 -133 533 -100 q 497 -232 533 -189 q 417 -296 461 -275 l 394 -278 z "},"H":{"ha":967,"x_min":69,"x_max":897,"o":"m 69 0 l 69 40 l 124 38 q 150 68 150 38 l 150 761 q 124 790 150 792 l 69 788 l 69 829 l 375 829 l 375 788 l 307 790 q 279 761 279 793 l 279 447 l 688 447 l 688 761 q 661 790 688 792 l 593 788 l 593 829 l 897 829 l 897 788 l 843 790 q 817 761 817 792 l 817 68 q 843 38 817 38 l 897 40 l 897 0 l 593 0 l 593 40 l 661 38 q 688 68 688 38 l 688 408 l 279 408 l 279 68 q 307 38 279 38 l 375 40 l 375 0 l 69 0 z "},"I":{"ha":431,"x_min":69,"x_max":361,"o":"m 69 0 l 69 40 l 124 38 q 150 68 150 38 l 150 761 q 124 790 150 792 l 69 788 l 69 829 l 361 829 l 361 788 l 307 790 q 279 761 279 793 l 279 68 q 307 38 279 38 l 361 40 l 361 0 l 69 0 z "},"Ĳ":{"ha":1057,"x_min":69,"x_max":994,"o":"m 69 0 l 69 40 l 124 38 q 150 68 150 38 l 150 761 q 124 790 150 792 l 69 788 l 69 829 l 361 829 l 361 788 l 307 790 q 279 761 279 793 l 279 68 q 307 38 279 38 l 361 40 l 361 0 l 69 0 m 464 -1 l 464 239 l 514 239 q 526 147 514 197 q 571 59 539 96 q 660 22 603 22 q 756 73 726 22 q 785 249 785 124 l 785 761 q 758 790 785 793 l 663 788 l 663 829 l 994 829 l 994 788 l 942 790 q 914 763 914 793 l 914 249 q 682 -14 914 -14 q 583 -3 624 -14 q 513 7 542 7 q 486 6 501 7 q 464 -1 471 6 z "},"Í":{"ha":431,"x_min":69,"x_max":407,"o":"m 69 0 l 69 40 l 124 38 q 150 68 150 38 l 150 761 q 124 790 150 792 l 69 788 l 69 829 l 361 829 l 361 788 l 307 790 q 279 761 279 793 l 279 68 q 307 38 279 38 l 361 40 l 361 0 l 69 0 z "},"Î":{"ha":431,"x_min":-1,"x_max":432,"o":"m 69 0 l 69 40 l 124 38 q 150 68 150 38 l 150 761 q 124 790 150 792 l 69 788 l 69 829 l 361 829 l 361 788 l 307 790 q 279 761 279 793 l 279 68 q 307 38 279 38 l 361 40 l 361 0 l 69 0 z "},"Ï":{"ha":431,"x_min":4,"x_max":425,"o":"m 69 0 l 69 40 l 124 38 q 150 68 150 38 l 150 761 q 124 790 150 792 l 69 788 l 69 829 l 361 829 l 361 788 l 307 790 q 279 761 279 793 l 279 68 q 307 38 279 38 l 361 40 l 361 0 l 69 0 z "},"İ":{"ha":431,"x_min":69,"x_max":361,"o":"m 69 0 l 69 40 l 124 38 q 150 68 150 38 l 150 761 q 124 790 150 792 l 69 788 l 69 829 l 361 829 l 361 788 l 307 790 q 279 761 279 793 l 279 68 q 307 38 279 38 l 361 40 l 361 0 l 69 0 z "},"Ì":{"ha":431,"x_min":25,"x_max":361,"o":"m 69 0 l 69 40 l 124 38 q 150 68 150 38 l 150 761 q 124 790 150 792 l 69 788 l 69 829 l 361 829 l 361 788 l 307 790 q 279 761 279 793 l 279 68 q 307 38 279 38 l 361 40 l 361 0 l 69 0 z "},"Ī":{"ha":431,"x_min":49,"x_max":381,"o":"m 69 0 l 69 40 l 124 38 q 150 68 150 38 l 150 761 q 124 790 150 792 l 69 788 l 69 829 l 361 829 l 361 788 l 307 790 q 279 761 279 793 l 279 68 q 307 38 279 38 l 361 40 l 361 0 l 69 0 z "},"Į":{"ha":431,"x_min":69,"x_max":428,"o":"m 69 0 l 69 40 l 124 38 q 150 68 150 38 l 150 761 q 124 790 150 792 l 69 788 l 69 829 l 361 829 l 361 788 l 307 790 q 279 761 279 793 l 279 68 q 307 38 279 38 l 361 40 l 361 0 l 69 0 m 428 -137 q 264 -221 356 -221 q 193 -196 225 -221 q 161 -121 161 -171 q 265 19 161 -28 l 304 19 q 233 -86 233 -14 q 253 -139 233 -117 q 314 -161 272 -161 q 411 -121 364 -161 l 428 -137 z "},"J":{"ha":626,"x_min":33,"x_max":564,"o":"m 33 -1 l 33 239 l 83 239 q 96 147 83 197 q 140 59 108 96 q 229 22 172 22 q 325 73 296 22 q 354 249 354 124 l 354 761 q 328 790 354 793 l 232 788 l 232 829 l 564 829 l 564 788 l 511 790 q 483 763 483 793 l 483 249 q 251 -14 483 -14 q 152 -3 193 -14 q 82 7 111 7 q 56 6 71 7 q 33 -1 40 6 z "},"K":{"ha":857,"x_min":69,"x_max":849,"o":"m 279 68 q 307 38 279 38 l 375 40 l 375 0 l 69 0 l 69 40 l 124 38 q 150 68 150 38 l 150 761 q 124 790 150 792 l 69 788 l 69 829 l 375 829 l 375 788 l 307 790 q 279 760 279 790 l 279 68 m 425 522 l 768 57 q 801 38 783 38 q 827 39 813 38 q 849 42 842 40 l 849 0 l 519 0 l 519 42 l 590 38 q 611 72 635 35 l 347 429 l 425 522 m 269 314 l 269 375 l 578 740 q 598 767 594 760 q 601 778 601 775 q 588 790 601 790 l 529 788 l 529 829 l 776 829 l 776 788 l 729 790 q 690 784 708 792 q 649 750 672 776 l 269 314 z "},"Ķ":{"ha":857,"x_min":69,"x_max":849,"o":"m 279 68 q 307 38 279 38 l 375 40 l 375 0 l 69 0 l 69 40 l 124 38 q 150 68 150 38 l 150 761 q 124 790 150 792 l 69 788 l 69 829 l 375 829 l 375 788 l 307 790 q 279 760 279 790 l 279 68 m 425 522 l 768 57 q 801 38 783 38 q 827 39 813 38 q 849 42 842 40 l 849 0 l 519 0 l 519 42 l 590 38 q 611 72 635 35 l 347 429 l 425 522 m 269 314 l 269 375 l 578 740 q 598 767 594 760 q 601 778 601 775 q 588 790 601 790 l 529 788 l 529 829 l 776 829 l 776 788 l 729 790 q 690 784 708 792 q 649 750 672 776 l 269 314 m 375 -278 q 424 -238 403 -262 q 444 -194 444 -214 q 406 -154 444 -154 q 375 -140 386 -154 q 364 -107 364 -125 q 381 -66 364 -85 q 431 -47 397 -47 q 492 -74 469 -47 q 514 -133 514 -100 q 478 -232 514 -189 q 397 -296 442 -275 l 375 -278 z "},"L":{"ha":714,"x_min":69,"x_max":683,"o":"m 69 0 l 69 42 l 129 38 q 150 68 150 38 l 150 761 q 124 790 150 793 l 69 788 l 69 829 l 375 829 l 375 788 l 307 790 q 279 761 279 793 l 279 57 q 296 39 279 39 l 453 39 q 647 238 647 39 l 683 238 l 683 -4 q 511 0 658 0 l 69 0 z "},"Ĺ":{"ha":714,"x_min":69,"x_max":683,"o":"m 69 0 l 69 42 l 129 38 q 150 68 150 38 l 150 761 q 124 790 150 793 l 69 788 l 69 829 l 375 829 l 375 788 l 307 790 q 279 761 279 793 l 279 57 q 296 39 279 39 l 453 39 q 647 238 647 39 l 683 238 l 683 -4 q 511 0 658 0 l 69 0 z "},"Ľ":{"ha":714,"x_min":69,"x_max":683,"o":"m 69 0 l 69 42 l 129 38 q 150 68 150 38 l 150 761 q 124 790 150 793 l 69 788 l 69 829 l 375 829 l 375 788 l 307 790 q 279 761 279 793 l 279 57 q 296 39 279 39 l 453 39 q 647 238 647 39 l 683 238 l 683 -4 q 511 0 658 0 l 69 0 m 553 626 q 592 667 575 643 q 608 710 608 692 q 583 736 608 736 q 553 751 564 736 q 542 783 542 765 q 556 824 542 806 q 601 843 569 843 q 657 817 636 843 q 678 757 678 790 q 646 667 678 707 q 575 608 614 628 l 553 626 z "},"Ļ":{"ha":714,"x_min":69,"x_max":683,"o":"m 69 0 l 69 42 l 129 38 q 150 68 150 38 l 150 761 q 124 790 150 793 l 69 788 l 69 829 l 375 829 l 375 788 l 307 790 q 279 761 279 793 l 279 57 q 296 39 279 39 l 453 39 q 647 238 647 39 l 683 238 l 683 -4 q 511 0 658 0 l 69 0 m 303 -278 q 351 -238 331 -262 q 372 -194 372 -214 q 333 -154 372 -154 q 303 -140 314 -154 q 292 -107 292 -125 q 308 -66 292 -85 q 358 -47 325 -47 q 419 -74 397 -47 q 442 -133 442 -100 q 406 -232 442 -189 q 325 -296 369 -275 l 303 -278 z "},"Ŀ":{"ha":714,"x_min":69,"x_max":683,"o":"m 69 0 l 69 42 l 129 38 q 150 68 150 38 l 150 761 q 124 790 150 793 l 69 788 l 69 829 l 375 829 l 375 788 l 307 790 q 279 761 279 793 l 279 57 q 296 39 279 39 l 453 39 q 647 238 647 39 l 683 238 l 683 -4 q 511 0 658 0 l 69 0 z "},"Ł":{"ha":714,"x_min":69,"x_max":683,"o":"m 69 306 l 219 431 l 219 368 l 69 243 l 69 306 m 415 522 l 219 361 l 219 424 l 415 588 l 415 522 m 69 0 l 69 42 l 129 38 q 150 68 150 38 l 150 761 q 124 790 150 793 l 69 788 l 69 829 l 375 829 l 375 788 l 307 790 q 279 761 279 793 l 279 57 q 296 39 279 39 l 453 39 q 647 238 647 39 l 683 238 l 683 -4 q 511 0 658 0 l 69 0 z "},"M":{"ha":1192,"x_min":63,"x_max":1122,"o":"m 192 744 l 192 68 q 218 38 192 38 l 286 40 l 286 0 l 63 0 l 63 40 l 117 38 q 144 68 144 38 l 144 775 l 192 744 m 549 -14 l 186 743 l 144 747 l 144 782 q 131 790 144 792 l 72 788 l 72 829 l 286 829 l 617 142 l 549 -14 m 914 829 l 1115 829 l 1115 788 l 1068 790 q 1040 763 1040 793 l 1040 68 q 1068 38 1040 38 l 1122 40 l 1122 0 l 817 0 l 817 40 l 885 38 q 913 68 913 38 l 913 738 l 914 829 m 919 736 l 582 -14 l 549 -14 l 603 142 l 914 829 l 919 736 z "},"N":{"ha":919,"x_min":63,"x_max":857,"o":"m 192 743 l 192 68 q 218 38 192 38 l 286 40 l 286 0 l 63 0 l 63 40 l 117 38 q 144 68 144 38 l 144 775 l 192 743 m 735 -8 l 183 740 l 144 761 q 117 790 144 793 l 63 788 l 63 829 l 278 829 l 739 201 l 735 -8 m 729 199 l 729 763 q 706 790 729 790 l 701 790 l 633 788 l 633 829 l 857 829 l 857 788 l 803 790 l 800 790 q 776 761 776 790 l 776 -8 l 735 -8 l 729 199 z "},"Ń":{"ha":919,"x_min":63,"x_max":857,"o":"m 192 743 l 192 68 q 218 38 192 38 l 286 40 l 286 0 l 63 0 l 63 40 l 117 38 q 144 68 144 38 l 144 775 l 192 743 m 735 -8 l 183 740 l 144 761 q 117 790 144 793 l 63 788 l 63 829 l 278 829 l 739 201 l 735 -8 m 729 199 l 729 763 q 706 790 729 790 l 701 790 l 633 788 l 633 829 l 857 829 l 857 788 l 803 790 l 800 790 q 776 761 776 790 l 776 -8 l 735 -8 l 729 199 z "},"Ň":{"ha":919,"x_min":63,"x_max":857,"o":"m 192 743 l 192 68 q 218 38 192 38 l 286 40 l 286 0 l 63 0 l 63 40 l 117 38 q 144 68 144 38 l 144 775 l 192 743 m 735 -8 l 183 740 l 144 761 q 117 790 144 793 l 63 788 l 63 829 l 278 829 l 739 201 l 735 -8 m 729 199 l 729 763 q 706 790 729 790 l 701 790 l 633 788 l 633 829 l 857 829 l 857 788 l 803 790 l 800 790 q 776 761 776 790 l 776 -8 l 735 -8 l 729 199 z "},"Ņ":{"ha":919,"x_min":63,"x_max":857,"o":"m 192 743 l 192 68 q 218 38 192 38 l 286 40 l 286 0 l 63 0 l 63 40 l 117 38 q 144 68 144 38 l 144 775 l 192 743 m 735 -8 l 183 740 l 144 761 q 117 790 144 793 l 63 788 l 63 829 l 278 829 l 739 201 l 735 -8 m 729 199 l 729 763 q 706 790 729 790 l 701 790 l 633 788 l 633 829 l 857 829 l 857 788 l 803 790 l 800 790 q 776 761 776 790 l 776 -8 l 735 -8 l 729 199 m 406 -278 q 454 -238 433 -262 q 475 -194 475 -214 q 436 -154 475 -154 q 406 -140 417 -154 q 394 -107 394 -125 q 411 -66 394 -85 q 461 -47 428 -47 q 522 -74 500 -47 q 544 -133 544 -100 q 508 -232 544 -189 q 428 -296 472 -275 l 406 -278 z "},"Ñ":{"ha":919,"x_min":63,"x_max":857,"o":"m 192 743 l 192 68 q 218 38 192 38 l 286 40 l 286 0 l 63 0 l 63 40 l 117 38 q 144 68 144 38 l 144 775 l 192 743 m 735 -8 l 183 740 l 144 761 q 117 790 144 793 l 63 788 l 63 829 l 278 829 l 739 201 l 735 -8 m 729 199 l 729 763 q 706 790 729 790 l 701 790 l 633 788 l 633 829 l 857 829 l 857 788 l 803 790 l 800 790 q 776 761 776 790 l 776 -8 l 735 -8 l 729 199 z "},"O":{"ha":931,"x_min":63,"x_max":868,"o":"m 63 415 q 169 733 63 624 q 465 843 276 843 q 764 730 660 843 q 868 415 868 617 q 762 99 868 211 q 465 -14 656 -14 q 169 99 275 -14 q 63 415 63 211 m 204 415 q 268 114 204 204 q 465 24 332 24 q 663 114 599 24 q 726 415 726 204 q 663 715 726 625 q 465 806 599 806 q 268 715 332 806 q 204 415 204 625 z "},"Ó":{"ha":931,"x_min":63,"x_max":868,"o":"m 63 415 q 169 733 63 624 q 465 843 276 843 q 764 730 660 843 q 868 415 868 617 q 762 99 868 211 q 465 -14 656 -14 q 169 99 275 -14 q 63 415 63 211 m 204 415 q 268 114 204 204 q 465 24 332 24 q 663 114 599 24 q 726 415 726 204 q 663 715 726 625 q 465 806 599 806 q 268 715 332 806 q 204 415 204 625 z "},"Ô":{"ha":931,"x_min":63,"x_max":868,"o":"m 63 415 q 169 733 63 624 q 465 843 276 843 q 764 730 660 843 q 868 415 868 617 q 762 99 868 211 q 465 -14 656 -14 q 169 99 275 -14 q 63 415 63 211 m 204 415 q 268 114 204 204 q 465 24 332 24 q 663 114 599 24 q 726 415 726 204 q 663 715 726 625 q 465 806 599 806 q 268 715 332 806 q 204 415 204 625 z "},"Ö":{"ha":931,"x_min":63,"x_max":868,"o":"m 63 415 q 169 733 63 624 q 465 843 276 843 q 764 730 660 843 q 868 415 868 617 q 762 99 868 211 q 465 -14 656 -14 q 169 99 275 -14 q 63 415 63 211 m 204 415 q 268 114 204 204 q 465 24 332 24 q 663 114 599 24 q 726 415 726 204 q 663 715 726 625 q 465 806 599 806 q 268 715 332 806 q 204 415 204 625 z "},"Ò":{"ha":931,"x_min":63,"x_max":868,"o":"m 63 415 q 169 733 63 624 q 465 843 276 843 q 764 730 660 843 q 868 415 868 617 q 762 99 868 211 q 465 -14 656 -14 q 169 99 275 -14 q 63 415 63 211 m 204 415 q 268 114 204 204 q 465 24 332 24 q 663 114 599 24 q 726 415 726 204 q 663 715 726 625 q 465 806 599 806 q 268 715 332 806 q 204 415 204 625 z "},"Ő":{"ha":931,"x_min":63,"x_max":868,"o":"m 63 415 q 169 733 63 624 q 465 843 276 843 q 764 730 660 843 q 868 415 868 617 q 762 99 868 211 q 465 -14 656 -14 q 169 99 275 -14 q 63 415 63 211 m 204 415 q 268 114 204 204 q 465 24 332 24 q 663 114 599 24 q 726 415 726 204 q 663 715 726 625 q 465 806 599 806 q 268 715 332 806 q 204 415 204 625 z "},"Ō":{"ha":931,"x_min":63,"x_max":868,"o":"m 63 415 q 169 733 63 624 q 465 843 276 843 q 764 730 660 843 q 868 415 868 617 q 762 99 868 211 q 465 -14 656 -14 q 169 99 275 -14 q 63 415 63 211 m 204 415 q 268 114 204 204 q 465 24 332 24 q 663 114 599 24 q 726 415 726 204 q 663 715 726 625 q 465 806 599 806 q 268 715 332 806 q 204 415 204 625 z "},"Ø":{"ha":922,"x_min":63,"x_max":868,"o":"m 175 -128 l 124 -104 l 743 951 l 794 924 l 175 -128 m 63 415 q 169 733 63 624 q 465 843 276 843 q 764 730 660 843 q 868 415 868 617 q 762 99 868 211 q 465 -14 656 -14 q 169 99 275 -14 q 63 415 63 211 m 204 415 q 268 114 204 204 q 465 24 332 24 q 663 114 599 24 q 726 415 726 204 q 663 715 726 625 q 465 806 599 806 q 268 715 332 806 q 204 415 204 625 z "},"Õ":{"ha":931,"x_min":63,"x_max":868,"o":"m 63 415 q 169 733 63 624 q 465 843 276 843 q 764 730 660 843 q 868 415 868 617 q 762 99 868 211 q 465 -14 656 -14 q 169 99 275 -14 q 63 415 63 211 m 204 415 q 268 114 204 204 q 465 24 332 24 q 663 114 599 24 q 726 415 726 204 q 663 715 726 625 q 465 806 599 806 q 268 715 332 806 q 204 415 204 625 z "},"Œ":{"ha":1196,"x_min":63,"x_max":1135,"o":"m 63 406 q 162 729 63 615 q 475 843 261 843 q 568 836 531 843 q 654 829 606 829 l 1108 829 l 1108 615 l 1071 615 q 1024 750 1071 710 q 874 790 976 790 l 743 790 q 725 771 725 790 l 725 450 l 831 450 q 906 488 875 450 q 938 592 938 525 l 975 592 l 975 271 l 938 271 q 906 373 938 333 q 831 413 874 413 l 725 413 l 725 56 q 743 38 725 38 l 903 38 q 1097 249 1097 38 l 1135 249 l 1135 -4 q 1013 0 1101 0 l 665 0 q 532 -7 590 0 q 471 -14 474 -14 q 168 94 274 -14 q 63 406 63 203 m 197 411 q 260 115 197 206 q 465 25 322 25 q 576 57 549 25 q 603 125 603 89 l 603 731 q 563 785 603 763 q 465 807 522 807 q 260 713 324 807 q 197 411 197 619 z "},"P":{"ha":726,"x_min":69,"x_max":678,"o":"m 69 0 l 69 40 l 124 38 q 150 68 150 38 l 150 760 q 118 790 150 792 l 69 788 l 69 829 l 396 829 q 678 606 678 829 q 610 431 678 497 q 425 365 543 365 l 279 365 l 279 68 q 307 38 279 38 l 375 40 l 375 0 l 69 0 m 279 404 l 396 404 q 502 461 460 404 q 544 606 544 518 q 499 739 544 688 q 374 790 453 790 l 296 790 q 279 774 279 790 l 279 404 z "},"Þ":{"ha":728,"x_min":69,"x_max":679,"o":"m 69 0 l 69 40 l 124 38 q 150 68 150 36 l 150 761 q 124 790 150 790 l 69 788 l 69 829 l 375 829 l 375 788 l 307 790 q 279 761 279 790 l 279 689 l 393 689 q 610 635 540 689 q 679 464 679 581 q 612 290 679 356 q 422 225 544 225 l 279 225 l 279 68 q 307 38 279 36 l 375 40 l 375 0 l 69 0 m 279 279 q 297 261 279 261 l 393 261 q 500 319 454 261 q 546 464 546 378 q 499 601 546 549 q 371 654 453 654 l 279 654 l 279 279 z "},"Q":{"ha":931,"x_min":63,"x_max":868,"o":"m 535 7 q 593 -162 528 -94 q 769 -231 658 -231 l 751 -272 q 490 -194 592 -272 q 394 4 388 -117 l 535 7 m 63 415 q 169 733 63 624 q 465 843 276 843 q 764 730 660 843 q 868 415 868 617 q 762 99 868 211 q 465 -14 656 -14 q 169 99 275 -14 q 63 415 63 211 m 204 415 q 268 114 204 204 q 465 24 332 24 q 663 114 599 24 q 726 415 726 204 q 663 715 726 625 q 465 806 599 806 q 268 715 332 806 q 204 415 204 625 z "},"R":{"ha":807,"x_min":69,"x_max":781,"o":"m 69 0 l 69 40 l 124 38 q 150 68 150 38 l 150 761 q 119 790 150 792 l 69 788 l 69 829 l 382 829 q 606 777 536 829 q 675 608 675 725 q 628 484 675 536 q 506 413 581 432 q 631 350 567 413 q 694 169 694 288 q 704 88 694 135 q 735 39 714 42 q 781 42 761 29 l 781 0 l 592 0 q 572 92 575 35 q 570 119 571 106 q 569 144 569 132 l 569 190 q 497 350 569 303 q 338 397 424 397 l 279 397 l 279 68 q 307 38 279 38 l 375 40 l 375 0 l 69 0 m 279 435 l 408 435 q 508 480 471 435 q 544 608 544 525 q 505 747 544 704 q 382 790 465 790 l 296 790 q 279 776 279 790 l 279 435 z "},"Ŕ":{"ha":807,"x_min":69,"x_max":781,"o":"m 69 0 l 69 40 l 124 38 q 150 68 150 38 l 150 761 q 119 790 150 792 l 69 788 l 69 829 l 382 829 q 606 777 536 829 q 675 608 675 725 q 628 484 675 536 q 506 413 581 432 q 631 350 567 413 q 694 169 694 288 q 704 88 694 135 q 735 39 714 42 q 781 42 761 29 l 781 0 l 592 0 q 572 92 575 35 q 570 119 571 106 q 569 144 569 132 l 569 190 q 497 350 569 303 q 338 397 424 397 l 279 397 l 279 68 q 307 38 279 38 l 375 40 l 375 0 l 69 0 m 279 435 l 408 435 q 508 480 471 435 q 544 608 544 525 q 505 747 544 704 q 382 790 465 790 l 296 790 q 279 776 279 790 l 279 435 z "},"Ř":{"ha":807,"x_min":69,"x_max":781,"o":"m 69 0 l 69 40 l 124 38 q 150 68 150 38 l 150 761 q 119 790 150 792 l 69 788 l 69 829 l 382 829 q 606 777 536 829 q 675 608 675 725 q 628 484 675 536 q 506 413 581 432 q 631 350 567 413 q 694 169 694 288 q 704 88 694 135 q 735 39 714 42 q 781 42 761 29 l 781 0 l 592 0 q 572 92 575 35 q 570 119 571 106 q 569 144 569 132 l 569 190 q 497 350 569 303 q 338 397 424 397 l 279 397 l 279 68 q 307 38 279 38 l 375 40 l 375 0 l 69 0 m 279 435 l 408 435 q 508 480 471 435 q 544 608 544 525 q 505 747 544 704 q 382 790 465 790 l 296 790 q 279 776 279 790 l 279 435 z "},"Ŗ":{"ha":807,"x_min":69,"x_max":781,"o":"m 69 0 l 69 40 l 124 38 q 150 68 150 38 l 150 761 q 119 790 150 792 l 69 788 l 69 829 l 382 829 q 606 777 536 829 q 675 608 675 725 q 628 484 675 536 q 506 413 581 432 q 631 350 567 413 q 694 169 694 288 q 704 88 694 135 q 735 39 714 42 q 781 42 761 29 l 781 0 l 592 0 q 572 92 575 35 q 570 119 571 106 q 569 144 569 132 l 569 190 q 497 350 569 303 q 338 397 424 397 l 279 397 l 279 68 q 307 38 279 38 l 375 40 l 375 0 l 69 0 m 279 435 l 408 435 q 508 480 471 435 q 544 608 544 525 q 505 747 544 704 q 382 790 465 790 l 296 790 q 279 776 279 790 l 279 435 m 350 -278 q 399 -238 378 -262 q 419 -194 419 -214 q 381 -154 419 -154 q 350 -140 361 -154 q 339 -107 339 -125 q 356 -66 339 -85 q 406 -47 372 -47 q 467 -74 444 -47 q 489 -133 489 -100 q 453 -232 489 -189 q 372 -296 417 -275 l 350 -278 z "},"S":{"ha":686,"x_min":67,"x_max":635,"o":"m 67 282 l 101 282 q 180 90 117 156 q 357 25 243 25 q 467 71 426 25 q 510 192 508 117 q 472 288 510 247 q 372 353 433 329 l 231 410 q 78 613 78 471 q 142 774 78 704 q 335 843 207 843 q 426 832 389 843 q 514 803 463 821 q 551 794 536 794 q 592 800 576 794 q 588 696 588 767 q 589 636 588 654 q 596 603 590 618 l 560 603 q 500 750 560 694 q 353 806 440 806 q 237 767 282 806 q 192 656 192 728 q 224 572 192 608 q 311 514 256 536 l 439 463 q 590 367 544 419 q 635 233 635 315 q 556 54 635 122 q 372 -14 478 -14 q 301 -10 333 -14 q 229 4 268 -7 q 119 25 156 25 q 92 22 111 25 q 72 18 74 19 q 76 64 75 35 q 78 133 78 93 q 75 225 78 185 q 67 282 72 265 z "},"Ś":{"ha":686,"x_min":67,"x_max":635,"o":"m 67 282 l 101 282 q 180 90 117 156 q 357 25 243 25 q 467 71 426 25 q 510 192 508 117 q 472 288 510 247 q 372 353 433 329 l 231 410 q 78 613 78 471 q 142 774 78 704 q 335 843 207 843 q 426 832 389 843 q 514 803 463 821 q 551 794 536 794 q 592 800 576 794 q 588 696 588 767 q 589 636 588 654 q 596 603 590 618 l 560 603 q 500 750 560 694 q 353 806 440 806 q 237 767 282 806 q 192 656 192 728 q 224 572 192 608 q 311 514 256 536 l 439 463 q 590 367 544 419 q 635 233 635 315 q 556 54 635 122 q 372 -14 478 -14 q 301 -10 333 -14 q 229 4 268 -7 q 119 25 156 25 q 92 22 111 25 q 72 18 74 19 q 76 64 75 35 q 78 133 78 93 q 75 225 78 185 q 67 282 72 265 z "},"Š":{"ha":686,"x_min":67,"x_max":635,"o":"m 67 282 l 101 282 q 180 90 117 156 q 357 25 243 25 q 467 71 426 25 q 510 192 508 117 q 472 288 510 247 q 372 353 433 329 l 231 410 q 78 613 78 471 q 142 774 78 704 q 335 843 207 843 q 426 832 389 843 q 514 803 463 821 q 551 794 536 794 q 592 800 576 794 q 588 696 588 767 q 589 636 588 654 q 596 603 590 618 l 560 603 q 500 750 560 694 q 353 806 440 806 q 237 767 282 806 q 192 656 192 728 q 224 572 192 608 q 311 514 256 536 l 439 463 q 590 367 544 419 q 635 233 635 315 q 556 54 635 122 q 372 -14 478 -14 q 301 -10 333 -14 q 229 4 268 -7 q 119 25 156 25 q 92 22 111 25 q 72 18 74 19 q 76 64 75 35 q 78 133 78 93 q 75 225 78 185 q 67 282 72 265 z "},"Ş":{"ha":686,"x_min":67,"x_max":635,"o":"m 67 282 l 101 282 q 180 90 117 156 q 357 25 243 25 q 467 71 426 25 q 510 192 508 117 q 472 288 510 247 q 372 353 433 329 l 231 410 q 78 613 78 471 q 142 774 78 704 q 335 843 207 843 q 426 832 389 843 q 514 803 463 821 q 551 794 536 794 q 592 800 576 794 q 588 696 588 767 q 589 636 588 654 q 596 603 590 618 l 560 603 q 500 750 560 694 q 353 806 440 806 q 237 767 282 806 q 192 656 192 728 q 224 572 192 608 q 311 514 256 536 l 439 463 q 590 367 544 419 q 635 233 635 315 q 556 54 635 122 q 372 -14 478 -14 q 301 -10 333 -14 q 229 4 268 -7 q 119 25 156 25 q 92 22 111 25 q 72 18 74 19 q 76 64 75 35 q 78 133 78 93 q 75 225 78 185 q 67 282 72 265 m 225 -275 l 235 -242 q 283 -260 251 -260 q 338 -238 315 -260 q 361 -185 361 -217 q 347 -153 361 -167 q 314 -131 332 -140 l 282 -111 q 267 -90 267 -100 q 275 -72 267 -81 l 332 0 l 378 0 l 340 -60 q 332 -86 332 -75 q 362 -107 332 -103 q 422 -122 392 -111 q 451 -169 451 -133 q 418 -262 451 -228 q 321 -297 385 -297 q 276 -294 303 -297 q 225 -275 249 -290 z "},"Ș":{"ha":686,"x_min":67,"x_max":635,"o":"m 67 282 l 101 282 q 180 90 117 156 q 357 25 243 25 q 467 71 426 25 q 510 192 508 117 q 472 288 510 247 q 372 353 433 329 l 231 410 q 78 613 78 471 q 142 774 78 704 q 335 843 207 843 q 426 832 389 843 q 514 803 463 821 q 551 794 536 794 q 592 800 576 794 q 588 696 588 767 q 589 636 588 654 q 596 603 590 618 l 560 603 q 500 750 560 694 q 353 806 440 806 q 237 767 282 806 q 192 656 192 728 q 224 572 192 608 q 311 514 256 536 l 439 463 q 590 367 544 419 q 635 233 635 315 q 556 54 635 122 q 372 -14 478 -14 q 301 -10 333 -14 q 229 4 268 -7 q 119 25 156 25 q 92 22 111 25 q 72 18 74 19 q 76 64 75 35 q 78 133 78 93 q 75 225 78 185 q 67 282 72 265 m 289 -278 q 338 -238 317 -262 q 358 -194 358 -214 q 319 -154 358 -154 q 289 -140 300 -154 q 278 -107 278 -125 q 294 -66 278 -85 q 344 -47 311 -47 q 406 -74 383 -47 q 428 -133 428 -100 q 392 -232 428 -189 q 311 -296 356 -275 l 289 -278 z "},"T":{"ha":735,"x_min":21,"x_max":714,"o":"m 21 617 l 21 833 q 76 831 40 831 l 185 831 l 551 831 l 658 831 q 714 833 703 831 l 714 617 l 678 617 q 639 749 678 706 q 507 792 600 792 l 449 792 q 432 776 435 792 l 432 68 q 460 38 432 38 l 533 40 l 533 0 l 201 0 l 201 40 l 276 38 q 303 72 303 38 l 303 775 q 286 792 303 792 l 229 792 q 97 749 136 792 q 57 617 57 706 l 21 617 z "},"Ť":{"ha":735,"x_min":21,"x_max":714,"o":"m 21 617 l 21 833 q 76 831 40 831 l 185 831 l 551 831 l 658 831 q 714 833 703 831 l 714 617 l 678 617 q 639 749 678 706 q 507 792 600 792 l 449 792 q 432 776 435 792 l 432 68 q 460 38 432 38 l 533 40 l 533 0 l 201 0 l 201 40 l 276 38 q 303 72 303 38 l 303 775 q 286 792 303 792 l 229 792 q 97 749 136 792 q 57 617 57 706 l 21 617 z "},"Ţ":{"ha":735,"x_min":21,"x_max":714,"o":"m 21 617 l 21 833 q 76 831 40 831 l 185 831 l 551 831 l 658 831 q 714 833 703 831 l 714 617 l 678 617 q 639 749 678 706 q 507 792 600 792 l 449 792 q 432 776 435 792 l 432 68 q 460 38 432 38 l 533 40 l 533 0 l 201 0 l 201 40 l 276 38 q 303 72 303 38 l 303 775 q 286 792 303 792 l 229 792 q 97 749 136 792 q 57 617 57 706 l 21 617 m 250 -275 l 260 -242 q 308 -260 276 -260 q 363 -238 340 -260 q 386 -185 386 -217 q 372 -153 386 -167 q 339 -131 357 -140 l 307 -111 q 292 -90 292 -100 q 300 -72 292 -81 l 357 0 l 403 0 l 365 -60 q 357 -86 357 -75 q 387 -107 357 -103 q 447 -122 417 -111 q 476 -169 476 -133 q 443 -262 476 -228 q 346 -297 410 -297 q 301 -294 328 -297 q 250 -275 274 -290 z "},"Ț":{"ha":735,"x_min":21,"x_max":714,"o":"m 21 617 l 21 833 q 76 831 40 831 l 185 831 l 551 831 l 658 831 q 714 833 703 831 l 714 617 l 678 617 q 639 749 678 706 q 507 792 600 792 l 449 792 q 432 776 435 792 l 432 68 q 460 38 432 38 l 533 40 l 533 0 l 201 0 l 201 40 l 276 38 q 303 72 303 38 l 303 775 q 286 792 303 792 l 229 792 q 97 749 136 792 q 57 617 57 706 l 21 617 m 314 -278 q 363 -238 342 -262 q 383 -194 383 -214 q 344 -154 383 -154 q 314 -140 325 -154 q 303 -107 303 -125 q 319 -66 303 -85 q 369 -47 336 -47 q 431 -74 408 -47 q 453 -133 453 -100 q 417 -232 453 -189 q 336 -296 381 -275 l 314 -278 z "},"U":{"ha":904,"x_min":49,"x_max":869,"o":"m 49 788 l 49 829 l 353 829 l 353 788 l 285 790 q 257 763 257 793 l 257 276 q 322 94 257 160 q 503 29 386 29 q 672 99 606 29 q 739 275 739 169 l 739 761 q 714 790 739 793 l 646 788 l 646 829 l 869 829 l 869 788 l 815 790 q 788 763 788 793 l 788 263 q 700 65 788 143 q 478 -14 613 -14 q 219 60 310 -14 q 128 276 128 133 l 128 761 q 101 790 128 793 l 49 788 z "},"Ú":{"ha":904,"x_min":49,"x_max":869,"o":"m 49 788 l 49 829 l 353 829 l 353 788 l 285 790 q 257 763 257 793 l 257 276 q 322 94 257 160 q 503 29 386 29 q 672 99 606 29 q 739 275 739 169 l 739 761 q 714 790 739 793 l 646 788 l 646 829 l 869 829 l 869 788 l 815 790 q 788 763 788 793 l 788 263 q 700 65 788 143 q 478 -14 613 -14 q 219 60 310 -14 q 128 276 128 133 l 128 761 q 101 790 128 793 l 49 788 z "},"Û":{"ha":904,"x_min":49,"x_max":869,"o":"m 49 788 l 49 829 l 353 829 l 353 788 l 285 790 q 257 763 257 793 l 257 276 q 322 94 257 160 q 503 29 386 29 q 672 99 606 29 q 739 275 739 169 l 739 761 q 714 790 739 793 l 646 788 l 646 829 l 869 829 l 869 788 l 815 790 q 788 763 788 793 l 788 263 q 700 65 788 143 q 478 -14 613 -14 q 219 60 310 -14 q 128 276 128 133 l 128 761 q 101 790 128 793 l 49 788 z "},"Ü":{"ha":904,"x_min":49,"x_max":869,"o":"m 49 788 l 49 829 l 353 829 l 353 788 l 285 790 q 257 763 257 793 l 257 276 q 322 94 257 160 q 503 29 386 29 q 672 99 606 29 q 739 275 739 169 l 739 761 q 714 790 739 793 l 646 788 l 646 829 l 869 829 l 869 788 l 815 790 q 788 763 788 793 l 788 263 q 700 65 788 143 q 478 -14 613 -14 q 219 60 310 -14 q 128 276 128 133 l 128 761 q 101 790 128 793 l 49 788 z "},"Ù":{"ha":904,"x_min":49,"x_max":869,"o":"m 49 788 l 49 829 l 353 829 l 353 788 l 285 790 q 257 763 257 793 l 257 276 q 322 94 257 160 q 503 29 386 29 q 672 99 606 29 q 739 275 739 169 l 739 761 q 714 790 739 793 l 646 788 l 646 829 l 869 829 l 869 788 l 815 790 q 788 763 788 793 l 788 263 q 700 65 788 143 q 478 -14 613 -14 q 219 60 310 -14 q 128 276 128 133 l 128 761 q 101 790 128 793 l 49 788 z "},"Ű":{"ha":904,"x_min":49,"x_max":869,"o":"m 49 788 l 49 829 l 353 829 l 353 788 l 285 790 q 257 763 257 793 l 257 276 q 322 94 257 160 q 503 29 386 29 q 672 99 606 29 q 739 275 739 169 l 739 761 q 714 790 739 793 l 646 788 l 646 829 l 869 829 l 869 788 l 815 790 q 788 763 788 793 l 788 263 q 700 65 788 143 q 478 -14 613 -14 q 219 60 310 -14 q 128 276 128 133 l 128 761 q 101 790 128 793 l 49 788 z "},"Ū":{"ha":904,"x_min":49,"x_max":869,"o":"m 49 788 l 49 829 l 353 829 l 353 788 l 285 790 q 257 763 257 793 l 257 276 q 322 94 257 160 q 503 29 386 29 q 672 99 606 29 q 739 275 739 169 l 739 761 q 714 790 739 793 l 646 788 l 646 829 l 869 829 l 869 788 l 815 790 q 788 763 788 793 l 788 263 q 700 65 788 143 q 478 -14 613 -14 q 219 60 310 -14 q 128 276 128 133 l 128 761 q 101 790 128 793 l 49 788 z "},"Ų":{"ha":904,"x_min":49,"x_max":869,"o":"m 49 788 l 49 829 l 353 829 l 353 788 l 285 790 q 257 763 257 793 l 257 276 q 322 94 257 160 q 503 29 386 29 q 672 99 606 29 q 739 275 739 169 l 739 761 q 714 790 739 793 l 646 788 l 646 829 l 869 829 l 869 788 l 815 790 q 788 763 788 793 l 788 263 q 700 65 788 143 q 478 -14 613 -14 q 219 60 310 -14 q 128 276 128 133 l 128 761 q 101 790 128 793 l 49 788 m 756 -137 q 592 -221 683 -221 q 521 -196 553 -221 q 489 -121 489 -171 q 593 19 489 -28 l 632 19 q 561 -86 561 -14 q 581 -139 561 -117 q 642 -161 600 -161 q 739 -121 692 -161 l 756 -137 z "},"Ů":{"ha":904,"x_min":49,"x_max":869,"o":"m 49 788 l 49 829 l 353 829 l 353 788 l 285 790 q 257 763 257 793 l 257 276 q 322 94 257 160 q 503 29 386 29 q 672 99 606 29 q 739 275 739 169 l 739 761 q 714 790 739 793 l 646 788 l 646 829 l 869 829 l 869 788 l 815 790 q 788 763 788 793 l 788 263 q 700 65 788 143 q 478 -14 613 -14 q 219 60 310 -14 q 128 276 128 133 l 128 761 q 101 790 128 793 l 49 788 z "},"V":{"ha":811,"x_min":-7,"x_max":839,"o":"m -7 788 l -7 829 l 292 829 l 292 788 l 218 790 q 205 779 208 790 q 206 757 201 768 l 468 154 l 446 154 l 699 742 q 692 790 719 790 l 621 788 l 621 829 l 839 829 l 839 788 l 789 790 q 760 758 774 792 l 429 -6 l 393 -6 l 64 758 q 32 790 49 790 l -7 788 z "},"W":{"ha":1228,"x_min":-7,"x_max":1256,"o":"m 599 760 q 583 785 590 779 q 564 790 576 792 l 507 788 l 507 829 l 796 829 l 796 788 l 738 790 q 724 779 726 790 q 724 760 721 768 l 960 175 l 943 175 l 1131 763 q 1115 790 1142 793 l 1043 788 l 1043 829 l 1256 829 l 1256 788 l 1214 790 q 1191 781 1200 792 q 1179 761 1182 771 l 928 -14 l 906 -14 l 603 747 l 599 760 m 639 768 l 383 -14 l 357 -14 l 64 760 q 35 790 54 790 l -7 788 l -7 829 l 293 829 l 293 788 l 219 790 q 201 775 201 790 q 206 760 201 772 l 421 193 l 406 193 l 596 783 l 639 768 z "},"Ẃ":{"ha":1228,"x_min":-7,"x_max":1256,"o":"m 599 760 q 583 785 590 779 q 564 790 576 792 l 507 788 l 507 829 l 796 829 l 796 788 l 738 790 q 724 779 726 790 q 724 760 721 768 l 960 175 l 943 175 l 1131 763 q 1115 790 1142 793 l 1043 788 l 1043 829 l 1256 829 l 1256 788 l 1214 790 q 1191 781 1200 792 q 1179 761 1182 771 l 928 -14 l 906 -14 l 603 747 l 599 760 m 639 768 l 383 -14 l 357 -14 l 64 760 q 35 790 54 790 l -7 788 l -7 829 l 293 829 l 293 788 l 219 790 q 201 775 201 790 q 206 760 201 772 l 421 193 l 406 193 l 596 783 l 639 768 z "},"Ŵ":{"ha":1228,"x_min":-7,"x_max":1256,"o":"m 599 760 q 583 785 590 779 q 564 790 576 792 l 507 788 l 507 829 l 796 829 l 796 788 l 738 790 q 724 779 726 790 q 724 760 721 768 l 960 175 l 943 175 l 1131 763 q 1115 790 1142 793 l 1043 788 l 1043 829 l 1256 829 l 1256 788 l 1214 790 q 1191 781 1200 792 q 1179 761 1182 771 l 928 -14 l 906 -14 l 603 747 l 599 760 m 639 768 l 383 -14 l 357 -14 l 64 760 q 35 790 54 790 l -7 788 l -7 829 l 293 829 l 293 788 l 219 790 q 201 775 201 790 q 206 760 201 772 l 421 193 l 406 193 l 596 783 l 639 768 z "},"Ẅ":{"ha":1228,"x_min":-7,"x_max":1256,"o":"m 599 760 q 583 785 590 779 q 564 790 576 792 l 507 788 l 507 829 l 796 829 l 796 788 l 738 790 q 724 779 726 790 q 724 760 721 768 l 960 175 l 943 175 l 1131 763 q 1115 790 1142 793 l 1043 788 l 1043 829 l 1256 829 l 1256 788 l 1214 790 q 1191 781 1200 792 q 1179 761 1182 771 l 928 -14 l 906 -14 l 603 747 l 599 760 m 639 768 l 383 -14 l 357 -14 l 64 760 q 35 790 54 790 l -7 788 l -7 829 l 293 829 l 293 788 l 219 790 q 201 775 201 790 q 206 760 201 772 l 421 193 l 406 193 l 596 783 l 639 768 z "},"Ẁ":{"ha":1228,"x_min":-7,"x_max":1256,"o":"m 599 760 q 583 785 590 779 q 564 790 576 792 l 507 788 l 507 829 l 796 829 l 796 788 l 738 790 q 724 779 726 790 q 724 760 721 768 l 960 175 l 943 175 l 1131 763 q 1115 790 1142 793 l 1043 788 l 1043 829 l 1256 829 l 1256 788 l 1214 790 q 1191 781 1200 792 q 1179 761 1182 771 l 928 -14 l 906 -14 l 603 747 l 599 760 m 639 768 l 383 -14 l 357 -14 l 64 760 q 35 790 54 790 l -7 788 l -7 829 l 293 829 l 293 788 l 219 790 q 201 775 201 790 q 206 760 201 772 l 421 193 l 406 193 l 596 783 l 639 768 z "},"X":{"ha":786,"x_min":42,"x_max":803,"o":"m 361 399 l 143 764 q 99 790 129 790 l 54 788 l 54 829 l 371 829 l 371 788 l 313 790 q 290 781 294 792 q 293 761 286 771 l 453 488 l 361 399 m 388 378 l 192 65 q 188 44 185 53 q 200 38 192 36 l 263 42 l 263 0 l 42 0 l 42 42 l 92 39 q 139 69 121 39 l 361 424 l 436 489 l 610 763 q 599 790 629 792 l 539 788 l 539 829 l 750 829 l 750 788 l 707 790 q 664 763 683 790 l 464 443 l 388 378 m 464 468 l 707 61 q 749 38 721 36 l 803 42 l 803 0 l 476 0 l 476 42 l 544 38 q 561 47 560 36 q 554 69 563 58 l 371 378 l 464 468 z "},"Y":{"ha":704,"x_min":-7,"x_max":718,"o":"m 435 429 l 435 67 q 463 38 435 38 l 529 40 l 529 0 l 211 0 l 211 40 l 279 38 q 306 68 306 38 l 306 365 l 65 764 q 32 790 51 790 q 27 790 32 790 q -7 788 22 789 l -7 829 l 300 829 l 300 788 l 226 790 q 210 780 211 792 q 217 757 210 768 l 414 429 l 435 429 m 401 429 l 589 763 q 592 781 593 771 q 579 790 592 790 l 507 788 l 507 829 l 718 829 l 718 788 q 681 790 686 789 q 676 790 676 790 q 638 761 654 790 l 429 389 l 401 429 z "},"Ý":{"ha":704,"x_min":-7,"x_max":718,"o":"m 435 429 l 435 67 q 463 38 435 38 l 529 40 l 529 0 l 211 0 l 211 40 l 279 38 q 306 68 306 38 l 306 365 l 65 764 q 32 790 51 790 q 27 790 32 790 q -7 788 22 789 l -7 829 l 300 829 l 300 788 l 226 790 q 210 780 211 792 q 217 757 210 768 l 414 429 l 435 429 m 401 429 l 589 763 q 592 781 593 771 q 579 790 592 790 l 507 788 l 507 829 l 718 829 l 718 788 q 681 790 686 789 q 676 790 676 790 q 638 761 654 790 l 429 389 l 401 429 z "},"Ŷ":{"ha":704,"x_min":-7,"x_max":718,"o":"m 435 429 l 435 67 q 463 38 435 38 l 529 40 l 529 0 l 211 0 l 211 40 l 279 38 q 306 68 306 38 l 306 365 l 65 764 q 32 790 51 790 q 27 790 32 790 q -7 788 22 789 l -7 829 l 300 829 l 300 788 l 226 790 q 210 780 211 792 q 217 757 210 768 l 414 429 l 435 429 m 401 429 l 589 763 q 592 781 593 771 q 579 790 592 790 l 507 788 l 507 829 l 718 829 l 718 788 q 681 790 686 789 q 676 790 676 790 q 638 761 654 790 l 429 389 l 401 429 z "},"Ÿ":{"ha":704,"x_min":-7,"x_max":718,"o":"m 435 429 l 435 67 q 463 38 435 38 l 529 40 l 529 0 l 211 0 l 211 40 l 279 38 q 306 68 306 38 l 306 365 l 65 764 q 32 790 51 790 q 27 790 32 790 q -7 788 22 789 l -7 829 l 300 829 l 300 788 l 226 790 q 210 780 211 792 q 217 757 210 768 l 414 429 l 435 429 m 401 429 l 589 763 q 592 781 593 771 q 579 790 592 790 l 507 788 l 507 829 l 718 829 l 718 788 q 681 790 686 789 q 676 790 676 790 q 638 761 654 790 l 429 389 l 401 429 z "},"Ỳ":{"ha":704,"x_min":-7,"x_max":718,"o":"m 435 429 l 435 67 q 463 38 435 38 l 529 40 l 529 0 l 211 0 l 211 40 l 279 38 q 306 68 306 38 l 306 365 l 65 764 q 32 790 51 790 q 27 790 32 790 q -7 788 22 789 l -7 829 l 300 829 l 300 788 l 226 790 q 210 780 211 792 q 217 757 210 768 l 414 429 l 435 429 m 401 429 l 589 763 q 592 781 593 771 q 579 790 592 790 l 507 788 l 507 829 l 718 829 l 718 788 q 681 790 686 789 q 676 790 676 790 q 638 761 654 790 l 429 389 l 401 429 z "},"Z":{"ha":711,"x_min":47,"x_max":683,"o":"m 47 0 l 47 38 l 504 810 l 518 790 l 282 790 q 86 615 86 790 l 49 615 l 49 833 q 122 831 86 833 q 200 829 157 829 l 644 829 l 644 796 l 185 19 l 163 38 l 438 38 q 589 89 532 38 q 646 232 646 140 l 683 232 l 672 -6 q 515 0 656 0 l 47 0 z "},"Ź":{"ha":711,"x_min":47,"x_max":683,"o":"m 47 0 l 47 38 l 504 810 l 518 790 l 282 790 q 86 615 86 790 l 49 615 l 49 833 q 122 831 86 833 q 200 829 157 829 l 644 829 l 644 796 l 185 19 l 163 38 l 438 38 q 589 89 532 38 q 646 232 646 140 l 683 232 l 672 -6 q 515 0 656 0 l 47 0 z "},"Ž":{"ha":711,"x_min":47,"x_max":683,"o":"m 47 0 l 47 38 l 504 810 l 518 790 l 282 790 q 86 615 86 790 l 49 615 l 49 833 q 122 831 86 833 q 200 829 157 829 l 644 829 l 644 796 l 185 19 l 163 38 l 438 38 q 589 89 532 38 q 646 232 646 140 l 683 232 l 672 -6 q 515 0 656 0 l 47 0 z "},"Ż":{"ha":711,"x_min":47,"x_max":683,"o":"m 47 0 l 47 38 l 504 810 l 518 790 l 282 790 q 86 615 86 790 l 49 615 l 49 833 q 122 831 86 833 q 200 829 157 829 l 644 829 l 644 796 l 185 19 l 163 38 l 438 38 q 589 89 532 38 q 646 232 646 140 l 683 232 l 672 -6 q 515 0 656 0 l 47 0 z "},"a":{"ha":625,"x_min":38,"x_max":597,"o":"m 296 597 q 468 549 408 597 q 528 401 528 501 l 528 60 q 546 33 528 33 l 597 36 l 597 0 l 400 0 q 403 26 401 6 q 406 51 406 46 l 410 121 l 408 125 l 408 439 q 378 532 408 504 q 279 560 347 560 q 194 542 215 560 q 174 501 174 524 q 180 476 174 485 q 186 449 186 467 q 171 413 186 425 q 132 401 156 401 q 86 420 101 401 q 71 467 71 439 q 131 560 71 524 q 296 597 192 597 m 424 358 l 424 321 q 224 285 283 322 q 164 161 164 247 q 257 43 164 43 q 369 104 324 43 q 408 260 414 165 l 417 122 q 334 22 385 50 q 215 -7 283 -7 q 38 150 38 -7 q 130 310 38 258 q 424 358 222 361 z "},"á":{"ha":625,"x_min":38,"x_max":597,"o":"m 296 597 q 468 549 408 597 q 528 401 528 501 l 528 60 q 546 33 528 33 l 597 36 l 597 0 l 400 0 q 403 26 401 6 q 406 51 406 46 l 410 121 l 408 125 l 408 439 q 378 532 408 504 q 279 560 347 560 q 194 542 215 560 q 174 501 174 524 q 180 476 174 485 q 186 449 186 467 q 171 413 186 425 q 132 401 156 401 q 86 420 101 401 q 71 467 71 439 q 131 560 71 524 q 296 597 192 597 m 424 358 l 424 321 q 224 285 283 322 q 164 161 164 247 q 257 43 164 43 q 369 104 324 43 q 408 260 414 165 l 417 122 q 334 22 385 50 q 215 -7 283 -7 q 38 150 38 -7 q 130 310 38 258 q 424 358 222 361 m 503 871 q 489 853 503 864 l 263 697 q 250 690 258 694 q 235 685 242 685 q 217 696 217 685 q 225 710 217 701 q 242 728 233 718 l 374 872 q 424 907 404 907 q 476 893 449 907 q 503 871 503 879 z "},"ă":{"ha":625,"x_min":38,"x_max":597,"o":"m 296 597 q 468 549 408 597 q 528 401 528 501 l 528 60 q 546 33 528 33 l 597 36 l 597 0 l 400 0 q 403 26 401 6 q 406 51 406 46 l 410 121 l 408 125 l 408 439 q 378 532 408 504 q 279 560 347 560 q 194 542 215 560 q 174 501 174 524 q 180 476 174 485 q 186 449 186 467 q 171 413 186 425 q 132 401 156 401 q 86 420 101 401 q 71 467 71 439 q 131 560 71 524 q 296 597 192 597 m 424 358 l 424 321 q 224 285 283 322 q 164 161 164 247 q 257 43 164 43 q 369 104 324 43 q 408 260 414 165 l 417 122 q 334 22 385 50 q 215 -7 283 -7 q 38 150 38 -7 q 130 310 38 258 q 424 358 222 361 m 501 892 q 444 767 492 815 q 313 719 397 719 q 181 767 228 719 q 125 892 135 815 l 178 892 q 217 822 188 854 q 313 789 247 789 q 407 822 375 789 q 449 892 439 854 l 501 892 z "},"â":{"ha":625,"x_min":38,"x_max":597,"o":"m 296 597 q 468 549 408 597 q 528 401 528 501 l 528 60 q 546 33 528 33 l 597 36 l 597 0 l 400 0 q 403 26 401 6 q 406 51 406 46 l 410 121 l 408 125 l 408 439 q 378 532 408 504 q 279 560 347 560 q 194 542 215 560 q 174 501 174 524 q 180 476 174 485 q 186 449 186 467 q 171 413 186 425 q 132 401 156 401 q 86 420 101 401 q 71 467 71 439 q 131 560 71 524 q 296 597 192 597 m 424 358 l 424 321 q 224 285 283 322 q 164 161 164 247 q 257 43 164 43 q 369 104 324 43 q 408 260 414 165 l 417 122 q 334 22 385 50 q 215 -7 283 -7 q 38 150 38 -7 q 130 310 38 258 q 424 358 222 361 z "},"ä":{"ha":625,"x_min":38,"x_max":597,"o":"m 296 597 q 468 549 408 597 q 528 401 528 501 l 528 60 q 546 33 528 33 l 597 36 l 597 0 l 400 0 q 403 26 401 6 q 406 51 406 46 l 410 121 l 408 125 l 408 439 q 378 532 408 504 q 279 560 347 560 q 194 542 215 560 q 174 501 174 524 q 180 476 174 485 q 186 449 186 467 q 171 413 186 425 q 132 401 156 401 q 86 420 101 401 q 71 467 71 439 q 131 560 71 524 q 296 597 192 597 m 424 358 l 424 321 q 224 285 283 322 q 164 161 164 247 q 257 43 164 43 q 369 104 324 43 q 408 260 414 165 l 417 122 q 334 22 385 50 q 215 -7 283 -7 q 38 150 38 -7 q 130 310 38 258 q 424 358 222 361 z "},"à":{"ha":625,"x_min":38,"x_max":597,"o":"m 296 597 q 468 549 408 597 q 528 401 528 501 l 528 60 q 546 33 528 33 l 597 36 l 597 0 l 400 0 q 403 26 401 6 q 406 51 406 46 l 410 121 l 408 125 l 408 439 q 378 532 408 504 q 279 560 347 560 q 194 542 215 560 q 174 501 174 524 q 180 476 174 485 q 186 449 186 467 q 171 413 186 425 q 132 401 156 401 q 86 420 101 401 q 71 467 71 439 q 131 560 71 524 q 296 597 192 597 m 424 358 l 424 321 q 224 285 283 322 q 164 161 164 247 q 257 43 164 43 q 369 104 324 43 q 408 260 414 165 l 417 122 q 334 22 385 50 q 215 -7 283 -7 q 38 150 38 -7 q 130 310 38 258 q 424 358 222 361 z "},"ā":{"ha":625,"x_min":38,"x_max":597,"o":"m 296 597 q 468 549 408 597 q 528 401 528 501 l 528 60 q 546 33 528 33 l 597 36 l 597 0 l 400 0 q 403 26 401 6 q 406 51 406 46 l 410 121 l 408 125 l 408 439 q 378 532 408 504 q 279 560 347 560 q 194 542 215 560 q 174 501 174 524 q 180 476 174 485 q 186 449 186 467 q 171 413 186 425 q 132 401 156 401 q 86 420 101 401 q 71 467 71 439 q 131 560 71 524 q 296 597 192 597 m 424 358 l 424 321 q 224 285 283 322 q 164 161 164 247 q 257 43 164 43 q 369 104 324 43 q 408 260 414 165 l 417 122 q 334 22 385 50 q 215 -7 283 -7 q 38 150 38 -7 q 130 310 38 258 q 424 358 222 361 m 146 788 l 146 843 l 478 843 l 478 788 l 146 788 z "},"ą":{"ha":625,"x_min":38,"x_max":686,"o":"m 296 597 q 468 549 408 597 q 528 401 528 501 l 528 60 q 546 33 528 33 l 597 36 l 597 0 l 400 0 q 403 26 401 6 q 406 51 406 46 l 410 121 l 408 125 l 408 439 q 378 532 408 504 q 279 560 347 560 q 194 542 215 560 q 174 501 174 524 q 180 476 174 485 q 186 449 186 467 q 171 413 186 425 q 132 401 156 401 q 86 420 101 401 q 71 467 71 439 q 131 560 71 524 q 296 597 192 597 m 424 358 l 424 321 q 224 285 283 322 q 164 161 164 247 q 257 43 164 43 q 369 104 324 43 q 408 260 414 165 l 417 122 q 334 22 385 50 q 215 -7 283 -7 q 38 150 38 -7 q 130 310 38 258 q 424 358 222 361 m 686 -143 q 522 -226 614 -226 q 451 -201 483 -226 q 419 -126 419 -176 q 524 14 419 -33 l 563 14 q 492 -92 492 -19 q 511 -144 492 -122 q 572 -167 531 -167 q 669 -126 622 -167 l 686 -143 z "},"å":{"ha":625,"x_min":38,"x_max":597,"o":"m 296 597 q 468 549 408 597 q 528 401 528 501 l 528 60 q 546 33 528 33 l 597 36 l 597 0 l 400 0 q 403 26 401 6 q 406 51 406 46 l 410 121 l 408 125 l 408 439 q 378 532 408 504 q 279 560 347 560 q 194 542 215 560 q 174 501 174 524 q 180 476 174 485 q 186 449 186 467 q 171 413 186 425 q 132 401 156 401 q 86 420 101 401 q 71 467 71 439 q 131 560 71 524 q 296 597 192 597 m 424 358 l 424 321 q 224 285 283 322 q 164 161 164 247 q 257 43 164 43 q 369 104 324 43 q 408 260 414 165 l 417 122 q 334 22 385 50 q 215 -7 283 -7 q 38 150 38 -7 q 130 310 38 258 q 424 358 222 361 m 196 799 q 230 878 196 846 q 311 911 264 911 q 393 878 358 911 q 428 799 428 846 q 393 718 428 751 q 311 685 358 685 q 230 718 264 685 q 196 799 196 751 m 254 799 q 311 735 254 735 q 369 799 369 735 q 311 861 369 861 q 254 799 254 861 z "},"ã":{"ha":625,"x_min":38,"x_max":597,"o":"m 296 597 q 468 549 408 597 q 528 401 528 501 l 528 60 q 546 33 528 33 l 597 36 l 597 0 l 400 0 q 403 26 401 6 q 406 51 406 46 l 410 121 l 408 125 l 408 439 q 378 532 408 504 q 279 560 347 560 q 194 542 215 560 q 174 501 174 524 q 180 476 174 485 q 186 449 186 467 q 171 413 186 425 q 132 401 156 401 q 86 420 101 401 q 71 467 71 439 q 131 560 71 524 q 296 597 192 597 m 424 358 l 424 321 q 224 285 283 322 q 164 161 164 247 q 257 43 164 43 q 369 104 324 43 q 408 260 414 165 l 417 122 q 334 22 385 50 q 215 -7 283 -7 q 38 150 38 -7 q 130 310 38 258 q 424 358 222 361 m 114 736 q 139 825 114 788 q 203 863 164 863 q 322 833 247 863 q 438 803 397 803 q 483 861 483 803 l 511 861 q 486 772 511 810 q 422 735 461 735 q 303 765 376 735 q 188 794 229 794 q 142 736 142 794 l 114 736 z "},"æ":{"ha":986,"x_min":38,"x_max":938,"o":"m 694 597 q 877 521 817 597 q 938 301 938 444 l 529 301 q 576 106 529 179 q 714 32 622 32 q 823 67 768 32 q 903 153 878 101 l 936 128 q 842 24 906 61 q 706 -14 779 -14 q 533 22 594 -14 q 442 121 472 58 q 361 25 408 57 q 239 -7 314 -7 q 95 27 153 -7 q 38 136 38 61 q 130 293 38 250 q 408 336 222 336 l 408 439 q 378 532 408 504 q 279 560 347 560 q 194 542 215 560 q 174 501 174 524 q 180 476 174 485 q 186 449 186 467 q 171 413 186 425 q 132 401 156 401 q 86 420 101 401 q 71 467 71 439 q 131 560 71 524 q 296 597 192 597 q 489 529 433 597 q 694 597 564 597 m 408 301 q 221 258 278 301 q 164 129 164 214 q 193 60 164 81 q 265 39 222 39 q 365 97 321 39 q 408 246 408 154 l 408 301 m 696 560 q 569 504 608 560 q 529 336 529 449 l 806 336 q 817 349 814 336 q 819 375 819 363 q 794 505 819 450 q 696 560 768 560 z "},"b":{"ha":668,"x_min":29,"x_max":640,"o":"m 29 979 l 29 1014 l 218 1014 l 218 475 q 286 565 242 532 q 400 597 331 597 q 640 290 640 597 q 576 63 640 139 q 376 -14 511 -14 q 265 13 300 -14 q 207 72 231 40 q 182 85 200 85 q 143 -7 143 85 l 97 -7 l 97 954 q 79 982 97 982 l 29 979 m 221 256 q 254 88 221 153 q 376 24 288 24 q 485 81 456 24 q 514 290 514 139 q 488 503 514 447 q 385 560 463 560 q 263 492 306 560 q 221 314 221 425 l 221 256 z "},"c":{"ha":590,"x_min":50,"x_max":565,"o":"m 322 597 q 473 557 408 597 q 538 456 538 517 q 523 408 538 431 q 471 386 508 386 q 435 396 449 386 q 422 428 422 406 q 428 457 422 444 q 435 488 435 469 q 401 542 435 525 q 326 560 367 560 q 219 506 260 560 q 179 301 179 451 q 218 92 179 161 q 336 24 257 24 q 458 61 401 24 q 532 172 514 99 l 565 147 q 482 31 542 75 q 329 -14 422 -14 q 124 67 197 -14 q 50 286 50 147 q 125 513 50 429 q 322 597 200 597 z "},"ć":{"ha":590,"x_min":50,"x_max":565,"o":"m 322 597 q 473 557 408 597 q 538 456 538 517 q 523 408 538 431 q 471 386 508 386 q 435 396 449 386 q 422 428 422 406 q 428 457 422 444 q 435 488 435 469 q 401 542 435 525 q 326 560 367 560 q 219 506 260 560 q 179 301 179 451 q 218 92 179 161 q 336 24 257 24 q 458 61 401 24 q 532 172 514 99 l 565 147 q 482 31 542 75 q 329 -14 422 -14 q 124 67 197 -14 q 50 286 50 147 q 125 513 50 429 q 322 597 200 597 m 486 871 q 472 853 486 864 l 246 697 q 233 690 242 694 q 218 685 225 685 q 200 696 200 685 q 208 710 200 701 q 225 728 217 718 l 357 872 q 407 907 388 907 q 459 893 432 907 q 486 871 486 879 z "},"č":{"ha":590,"x_min":50,"x_max":565,"o":"m 322 597 q 473 557 408 597 q 538 456 538 517 q 523 408 538 431 q 471 386 508 386 q 435 396 449 386 q 422 428 422 406 q 428 457 422 444 q 435 488 435 469 q 401 542 435 525 q 326 560 367 560 q 219 506 260 560 q 179 301 179 451 q 218 92 179 161 q 336 24 257 24 q 458 61 401 24 q 532 172 514 99 l 565 147 q 482 31 542 75 q 329 -14 422 -14 q 124 67 197 -14 q 50 286 50 147 q 125 513 50 429 q 322 597 200 597 m 79 901 q 92 913 79 913 q 110 907 99 913 q 131 896 122 901 l 296 793 l 461 896 q 481 907 469 901 q 500 913 493 913 q 513 901 513 913 q 479 867 513 892 q 403 797 446 842 l 371 764 l 338 731 q 296 696 300 696 q 254 731 292 696 l 221 764 l 189 797 q 113 867 146 842 q 79 901 79 892 z "},"ç":{"ha":590,"x_min":50,"x_max":565,"o":"m 322 597 q 473 557 408 597 q 538 456 538 517 q 523 408 538 431 q 471 386 508 386 q 435 396 449 386 q 422 428 422 406 q 428 457 422 444 q 435 488 435 469 q 401 542 435 525 q 326 560 367 560 q 219 506 260 560 q 179 301 179 451 q 218 92 179 161 q 336 24 257 24 q 458 61 401 24 q 532 172 514 99 l 565 147 q 482 31 542 75 q 329 -14 422 -14 q 124 67 197 -14 q 50 286 50 147 q 125 513 50 429 q 322 597 200 597 m 178 -275 l 188 -242 q 236 -260 204 -260 q 291 -238 268 -260 q 314 -185 314 -217 q 299 -153 314 -167 q 267 -131 285 -140 l 235 -111 q 219 -90 219 -100 q 228 -72 219 -81 l 285 0 l 331 0 l 293 -60 q 285 -86 285 -75 q 315 -107 285 -103 q 374 -122 344 -111 q 404 -169 404 -133 q 371 -262 404 -228 q 274 -297 338 -297 q 228 -294 256 -297 q 178 -275 201 -290 z "},"d":{"ha":689,"x_min":49,"x_max":661,"o":"m 49 290 q 311 597 49 597 q 417 564 378 597 q 471 483 457 531 l 471 954 q 453 982 471 982 l 389 979 l 389 1014 l 592 1014 l 592 60 q 610 33 592 33 l 661 36 l 661 0 l 461 0 q 464 22 464 11 l 464 53 q 465 78 464 67 q 467 93 467 90 q 415 15 451 44 q 313 -14 379 -14 q 108 63 167 -14 q 49 290 49 139 m 176 290 q 204 83 176 142 q 313 24 232 24 q 433 81 399 24 q 468 256 468 138 l 468 314 q 431 493 468 426 q 311 560 393 560 q 204 485 232 560 q 176 290 176 411 z "},"ð":{"ha":683,"x_min":49,"x_max":635,"o":"m 175 290 q 213 78 175 138 q 342 19 251 19 q 471 83 433 19 q 508 290 508 147 q 469 499 508 436 q 342 561 431 561 q 211 503 247 561 q 175 290 175 444 m 635 296 q 559 69 635 154 q 342 -15 483 -15 q 124 62 199 -15 q 49 290 49 139 q 124 518 49 440 q 342 596 199 596 q 415 583 378 596 q 464 551 451 571 l 458 551 q 385 676 439 617 q 267 774 331 736 q 156 813 203 813 l 183 843 q 394 772 290 839 q 567 585 499 706 q 635 296 635 464 m 194 635 l 174 671 l 506 861 l 525 825 l 194 635 z "},"ď":{"ha":689,"x_min":49,"x_max":775,"o":"m 49 290 q 311 597 49 597 q 417 564 378 597 q 471 483 457 531 l 471 954 q 453 982 471 982 l 389 979 l 389 1014 l 592 1014 l 592 60 q 610 33 592 33 l 661 36 l 661 0 l 461 0 q 464 22 464 11 l 464 53 q 465 78 464 67 q 467 93 467 90 q 415 15 451 44 q 313 -14 379 -14 q 108 63 167 -14 q 49 290 49 139 m 176 290 q 204 83 176 142 q 313 24 232 24 q 433 81 399 24 q 468 256 468 138 l 468 314 q 431 493 468 426 q 311 560 393 560 q 204 485 232 560 q 176 290 176 411 m 650 626 q 689 667 672 643 q 706 710 706 692 q 681 736 706 736 q 650 751 661 736 q 639 783 639 765 q 653 824 639 806 q 699 843 667 843 q 754 817 733 843 q 775 757 775 790 q 743 667 775 707 q 672 608 711 628 l 650 626 z "},"đ":{"ha":689,"x_min":49,"x_max":663,"o":"m 49 290 q 311 597 49 597 q 417 564 378 597 q 471 483 457 531 l 471 954 q 453 982 471 982 l 389 979 l 389 1014 l 592 1014 l 592 60 q 610 33 592 33 l 661 36 l 661 0 l 461 0 q 464 22 464 11 l 464 53 q 465 78 464 67 q 467 93 467 90 q 415 15 451 44 q 313 -14 379 -14 q 108 63 167 -14 q 49 290 49 139 m 176 290 q 204 83 176 142 q 313 24 232 24 q 433 81 399 24 q 468 256 468 138 l 468 314 q 431 493 468 426 q 311 560 393 560 q 204 485 232 560 q 176 290 176 411 m 331 775 l 331 831 l 663 831 l 663 775 l 331 775 z "},"e":{"ha":624,"x_min":49,"x_max":575,"o":"m 328 597 q 505 528 438 597 q 575 335 572 458 l 575 294 l 175 294 q 350 32 175 33 q 472 70 425 32 q 538 153 518 108 l 569 129 q 475 24 542 61 q 331 -14 408 -14 q 116 65 183 -14 q 49 290 49 143 q 119 519 49 442 q 328 597 190 597 m 328 560 q 210 491 244 560 q 176 329 176 422 l 429 329 q 457 375 457 329 q 428 514 457 468 q 328 560 399 560 z "},"é":{"ha":624,"x_min":49,"x_max":575,"o":"m 328 597 q 505 528 438 597 q 575 335 572 458 l 575 294 l 175 294 q 350 32 175 33 q 472 70 425 32 q 538 153 518 108 l 569 129 q 475 24 542 61 q 331 -14 408 -14 q 116 65 183 -14 q 49 290 49 143 q 119 519 49 442 q 328 597 190 597 m 328 560 q 210 491 244 560 q 176 329 176 422 l 429 329 q 457 375 457 329 q 428 514 457 468 q 328 560 399 560 m 503 871 q 489 853 503 864 l 263 697 q 250 690 258 694 q 235 685 242 685 q 217 696 217 685 q 225 710 217 701 q 242 728 233 718 l 374 872 q 424 907 404 907 q 476 893 449 907 q 503 871 503 879 z "},"ě":{"ha":624,"x_min":49,"x_max":575,"o":"m 328 597 q 505 528 438 597 q 575 335 572 458 l 575 294 l 175 294 q 350 32 175 33 q 472 70 425 32 q 538 153 518 108 l 569 129 q 475 24 542 61 q 331 -14 408 -14 q 116 65 183 -14 q 49 290 49 143 q 119 519 49 442 q 328 597 190 597 m 328 560 q 210 491 244 560 q 176 329 176 422 l 429 329 q 457 375 457 329 q 428 514 457 468 q 328 560 399 560 m 96 901 q 108 913 96 913 q 127 907 115 913 q 147 896 139 901 l 313 793 l 478 896 q 498 907 486 901 q 517 913 510 913 q 529 901 529 913 q 496 867 529 892 q 419 797 463 842 l 388 764 l 354 731 q 313 696 317 696 q 271 731 308 696 l 238 764 l 206 797 q 129 867 163 842 q 96 901 96 892 z "},"ê":{"ha":624,"x_min":49,"x_max":575,"o":"m 328 597 q 505 528 438 597 q 575 335 572 458 l 575 294 l 175 294 q 350 32 175 33 q 472 70 425 32 q 538 153 518 108 l 569 129 q 475 24 542 61 q 331 -14 408 -14 q 116 65 183 -14 q 49 290 49 143 q 119 519 49 442 q 328 597 190 597 m 328 560 q 210 491 244 560 q 176 329 176 422 l 429 329 q 457 375 457 329 q 428 514 457 468 q 328 560 399 560 z "},"ë":{"ha":624,"x_min":49,"x_max":575,"o":"m 328 597 q 505 528 438 597 q 575 335 572 458 l 575 294 l 175 294 q 350 32 175 33 q 472 70 425 32 q 538 153 518 108 l 569 129 q 475 24 542 61 q 331 -14 408 -14 q 116 65 183 -14 q 49 290 49 143 q 119 519 49 442 q 328 597 190 597 m 328 560 q 210 491 244 560 q 176 329 176 422 l 429 329 q 457 375 457 329 q 428 514 457 468 q 328 560 399 560 z "},"ė":{"ha":624,"x_min":49,"x_max":575,"o":"m 328 597 q 505 528 438 597 q 575 335 572 458 l 575 294 l 175 294 q 350 32 175 33 q 472 70 425 32 q 538 153 518 108 l 569 129 q 475 24 542 61 q 331 -14 408 -14 q 116 65 183 -14 q 49 290 49 143 q 119 519 49 442 q 328 597 190 597 m 328 560 q 210 491 244 560 q 176 329 176 422 l 429 329 q 457 375 457 329 q 428 514 457 468 q 328 560 399 560 m 238 826 q 259 875 238 856 q 313 894 281 894 q 365 875 343 894 q 388 826 388 856 q 366 778 388 796 q 313 760 344 760 q 259 778 281 760 q 238 826 238 796 z "},"è":{"ha":624,"x_min":49,"x_max":575,"o":"m 328 597 q 505 528 438 597 q 575 335 572 458 l 575 294 l 175 294 q 350 32 175 33 q 472 70 425 32 q 538 153 518 108 l 569 129 q 475 24 542 61 q 331 -14 408 -14 q 116 65 183 -14 q 49 290 49 143 q 119 519 49 442 q 328 597 190 597 m 328 560 q 210 491 244 560 q 176 329 176 422 l 429 329 q 457 375 457 329 q 428 514 457 468 q 328 560 399 560 z "},"ē":{"ha":624,"x_min":49,"x_max":575,"o":"m 328 597 q 505 528 438 597 q 575 335 572 458 l 575 294 l 175 294 q 350 32 175 33 q 472 70 425 32 q 538 153 518 108 l 569 129 q 475 24 542 61 q 331 -14 408 -14 q 116 65 183 -14 q 49 290 49 143 q 119 519 49 442 q 328 597 190 597 m 328 560 q 210 491 244 560 q 176 329 176 422 l 429 329 q 457 375 457 329 q 428 514 457 468 q 328 560 399 560 m 146 788 l 146 843 l 478 843 l 478 788 l 146 788 z "},"ę":{"ha":624,"x_min":49,"x_max":590,"o":"m 328 597 q 505 528 438 597 q 575 335 572 458 l 575 294 l 175 294 q 350 32 175 33 q 472 70 425 32 q 538 153 518 108 l 569 129 q 475 24 542 61 q 331 -14 408 -14 q 116 65 183 -14 q 49 290 49 143 q 119 519 49 442 q 328 597 190 597 m 328 560 q 210 491 244 560 q 176 329 176 422 l 429 329 q 457 375 457 329 q 428 514 457 468 q 328 560 399 560 m 590 -137 q 426 -221 518 -221 q 356 -196 388 -221 q 324 -121 324 -171 q 428 19 324 -28 l 467 19 q 396 -86 396 -14 q 415 -139 396 -117 q 476 -161 435 -161 q 574 -121 526 -161 l 590 -137 z "},"f":{"ha":411,"x_min":49,"x_max":524,"o":"m 49 0 l 49 36 l 100 33 q 118 60 118 33 l 118 549 l 64 549 l 64 583 l 118 583 l 118 675 q 135 833 118 753 q 204 967 153 913 q 360 1022 256 1022 q 474 981 424 1022 q 524 879 524 940 q 508 832 524 853 q 457 811 492 811 q 422 821 435 811 q 408 851 408 831 q 415 881 408 868 q 421 913 421 893 q 403 963 421 940 q 350 985 386 985 q 269 954 311 985 q 228 818 228 924 q 232 724 228 781 q 236 624 236 667 l 236 583 l 385 583 l 385 549 l 238 549 l 238 60 q 256 33 238 33 l 347 36 l 347 0 l 49 0 z "},"g":{"ha":639,"x_min":44,"x_max":649,"o":"m 179 231 l 218 210 q 160 142 160 175 q 238 90 160 90 l 422 90 q 575 47 521 90 q 629 -103 629 4 q 539 -276 629 -211 q 299 -340 449 -340 q 110 -293 176 -340 q 44 -156 44 -246 q 82 -53 44 -93 q 186 15 119 -14 l 263 0 q 156 -48 200 0 q 113 -153 113 -96 q 158 -261 113 -218 q 297 -304 203 -304 q 476 -251 415 -304 q 538 -112 538 -197 q 401 0 538 0 l 263 0 q 122 22 176 0 q 67 99 67 43 q 83 147 67 128 q 132 192 100 167 l 179 231 m 315 560 q 227 523 251 560 q 203 389 203 486 q 226 252 203 290 q 315 214 249 214 q 406 255 382 214 q 429 389 429 296 q 405 520 429 481 q 315 560 381 560 m 315 597 q 481 549 408 597 q 553 389 553 501 q 488 240 553 297 q 315 182 424 182 q 153 233 228 182 q 79 389 79 285 q 145 540 79 482 q 315 597 211 597 m 585 701 q 636 680 624 701 q 649 640 649 658 q 637 606 649 624 q 604 589 625 589 q 566 605 571 589 q 542 621 561 621 q 497 605 531 621 q 444 561 463 589 l 415 574 q 503 662 450 622 q 585 701 556 701 z "},"ğ":{"ha":639,"x_min":44,"x_max":649,"o":"m 179 231 l 218 210 q 160 142 160 175 q 238 90 160 90 l 422 90 q 575 47 521 90 q 629 -103 629 4 q 539 -276 629 -211 q 299 -340 449 -340 q 110 -293 176 -340 q 44 -156 44 -246 q 82 -53 44 -93 q 186 15 119 -14 l 263 0 q 156 -48 200 0 q 113 -153 113 -96 q 158 -261 113 -218 q 297 -304 203 -304 q 476 -251 415 -304 q 538 -112 538 -197 q 401 0 538 0 l 263 0 q 122 22 176 0 q 67 99 67 43 q 83 147 67 128 q 132 192 100 167 l 179 231 m 315 560 q 227 523 251 560 q 203 389 203 486 q 226 252 203 290 q 315 214 249 214 q 406 255 382 214 q 429 389 429 296 q 405 520 429 481 q 315 560 381 560 m 315 597 q 481 549 408 597 q 553 389 553 501 q 488 240 553 297 q 315 182 424 182 q 153 233 228 182 q 79 389 79 285 q 145 540 79 482 q 315 597 211 597 m 585 701 q 636 680 624 701 q 649 640 649 658 q 637 606 649 624 q 604 589 625 589 q 566 605 571 589 q 542 621 561 621 q 497 605 531 621 q 444 561 463 589 l 415 574 q 503 662 450 622 q 585 701 556 701 m 508 892 q 451 767 499 815 q 319 719 404 719 q 188 767 235 719 q 132 892 142 815 l 185 892 q 224 822 194 854 q 319 789 254 789 q 414 822 382 789 q 456 892 446 854 l 508 892 z "},"ģ":{"ha":639,"x_min":44,"x_max":649,"o":"m 179 231 l 218 210 q 160 142 160 175 q 238 90 160 90 l 422 90 q 575 47 521 90 q 629 -103 629 4 q 539 -276 629 -211 q 299 -340 449 -340 q 110 -293 176 -340 q 44 -156 44 -246 q 82 -53 44 -93 q 186 15 119 -14 l 263 0 q 156 -48 200 0 q 113 -153 113 -96 q 158 -261 113 -218 q 297 -304 203 -304 q 476 -251 415 -304 q 538 -112 538 -197 q 401 0 538 0 l 263 0 q 122 22 176 0 q 67 99 67 43 q 83 147 67 128 q 132 192 100 167 l 179 231 m 315 560 q 227 523 251 560 q 203 389 203 486 q 226 252 203 290 q 315 214 249 214 q 406 255 382 214 q 429 389 429 296 q 405 520 429 481 q 315 560 381 560 m 315 597 q 481 549 408 597 q 553 389 553 501 q 488 240 553 297 q 315 182 424 182 q 153 233 228 182 q 79 389 79 285 q 145 540 79 482 q 315 597 211 597 m 585 701 q 636 680 624 701 q 649 640 649 658 q 637 606 649 624 q 604 589 625 589 q 566 605 571 589 q 542 621 561 621 q 497 605 531 621 q 444 561 463 589 l 415 574 q 503 662 450 622 q 585 701 556 701 m 394 906 q 346 866 367 890 q 325 822 325 842 q 364 782 325 782 q 394 767 383 782 q 406 735 406 753 q 389 694 406 713 q 339 675 372 675 q 278 701 300 675 q 256 761 256 728 q 292 860 256 817 q 372 924 328 903 l 394 906 z "},"h":{"ha":729,"x_min":49,"x_max":701,"o":"m 446 597 q 588 551 544 597 q 632 400 632 504 l 632 60 q 650 33 632 33 l 701 36 l 701 0 l 431 0 l 431 36 l 494 33 q 513 60 513 38 l 513 375 q 498 508 513 464 q 419 553 483 553 q 283 474 333 553 q 238 268 233 396 l 232 444 q 314 556 258 514 q 446 597 369 597 m 238 1014 l 238 444 l 238 304 l 238 60 q 256 33 238 33 l 319 36 l 319 0 l 49 0 l 49 36 l 100 33 q 118 60 118 38 l 118 953 q 100 982 118 982 l 49 979 l 49 1014 l 238 1014 z "},"i":{"ha":354,"x_min":49,"x_max":306,"o":"m 238 583 l 238 60 q 256 33 238 33 l 306 36 l 306 0 l 49 0 l 49 36 l 100 33 q 118 60 118 33 l 118 522 q 101 550 118 546 l 50 547 l 50 583 l 238 583 m 168 893 q 223 876 201 893 q 244 828 244 858 q 223 778 244 796 q 168 761 201 761 q 115 778 136 761 q 93 828 93 796 q 115 876 93 858 q 168 893 136 893 z "},"ı":{"ha":354,"x_min":49,"x_max":306,"o":"m 238 583 l 238 60 q 256 33 238 33 l 306 36 l 306 0 l 49 0 l 49 36 l 100 33 q 118 60 118 33 l 118 522 q 101 550 118 546 l 50 547 l 50 583 l 238 583 z "},"í":{"ha":354,"x_min":49,"x_max":368,"o":"m 238 583 l 238 60 q 256 33 238 33 l 306 36 l 306 0 l 49 0 l 49 36 l 100 33 q 118 60 118 33 l 118 522 q 101 550 118 546 l 50 547 l 50 583 l 238 583 m 368 871 q 354 853 368 864 l 128 697 q 115 690 124 694 q 100 685 107 685 q 82 696 82 685 q 90 710 82 701 q 107 728 99 718 l 239 872 q 289 907 269 907 q 341 893 314 907 q 368 871 368 879 z "},"î":{"ha":354,"x_min":-10,"x_max":365,"o":"m 238 583 l 238 60 q 256 33 238 33 l 306 36 l 306 0 l 49 0 l 49 36 l 100 33 q 118 60 118 33 l 118 522 q 101 550 118 546 l 50 547 l 50 583 l 238 583 m 42 703 q 1 685 18 685 q -10 694 -10 685 q 26 740 -10 697 l 157 894 q 178 915 174 915 q 199 894 182 915 l 329 740 q 365 694 365 697 q 354 685 365 685 q 314 703 338 685 l 178 811 l 42 703 z "},"ï":{"ha":354,"x_min":-33,"x_max":388,"o":"m 238 583 l 238 60 q 256 33 238 33 l 306 36 l 306 0 l 49 0 l 49 36 l 100 33 q 118 60 118 33 l 118 522 q 101 550 118 546 l 50 547 l 50 583 l 238 583 z "},"ì":{"ha":354,"x_min":-12,"x_max":306,"o":"m 238 583 l 238 60 q 256 33 238 33 l 306 36 l 306 0 l 49 0 l 49 36 l 100 33 q 118 60 118 33 l 118 522 q 101 550 118 546 l 50 547 l 50 583 l 238 583 z "},"ĳ":{"ha":703,"x_min":49,"x_max":601,"o":"m 238 583 l 238 60 q 256 33 238 33 l 306 36 l 306 0 l 49 0 l 49 36 l 100 33 q 118 60 118 33 l 118 522 q 101 550 118 546 l 50 547 l 50 583 l 238 583 m 168 893 q 223 876 201 893 q 244 828 244 858 q 223 778 244 796 q 168 761 201 761 q 115 778 136 761 q 93 828 93 796 q 115 876 93 858 q 168 893 136 893 m 592 583 l 592 -6 q 541 -258 592 -178 q 393 -337 490 -337 q 290 -309 326 -337 q 253 -244 253 -281 q 318 -183 253 -183 q 348 -190 329 -183 q 367 -222 367 -197 q 363 -244 367 -233 q 358 -265 358 -256 q 401 -300 358 -300 q 456 -271 438 -300 q 475 -185 475 -242 q 474 -144 475 -179 q 472 -82 472 -108 l 472 522 q 454 550 472 550 l 397 547 l 397 583 l 592 583 m 525 893 q 579 876 557 893 q 601 828 601 858 q 579 778 601 796 q 525 761 557 761 q 471 778 492 761 q 450 828 450 796 q 471 876 450 858 q 525 893 492 893 z "},"ī":{"ha":354,"x_min":11,"x_max":343,"o":"m 238 583 l 238 60 q 256 33 238 33 l 306 36 l 306 0 l 49 0 l 49 36 l 100 33 q 118 60 118 33 l 118 522 q 101 550 118 546 l 50 547 l 50 583 l 238 583 m 11 788 l 11 843 l 343 843 l 343 788 l 11 788 z "},"į":{"ha":354,"x_min":49,"x_max":390,"o":"m 238 583 l 238 60 q 256 33 238 33 l 306 36 l 306 0 l 49 0 l 49 36 l 100 33 q 118 60 118 33 l 118 522 q 101 550 118 546 l 50 547 l 50 583 l 238 583 m 103 826 q 124 875 103 856 q 178 894 146 894 q 231 875 208 894 q 253 826 253 856 q 231 778 253 796 q 178 760 210 760 q 124 778 146 760 q 103 826 103 796 m 390 -139 q 226 -222 318 -222 q 156 -197 188 -222 q 124 -122 124 -172 q 228 18 124 -29 l 267 18 q 196 -87 196 -15 q 215 -140 196 -118 q 276 -162 235 -162 q 374 -122 326 -162 l 390 -139 z "},"j":{"ha":349,"x_min":-101,"x_max":247,"o":"m 238 583 l 238 -6 q 187 -258 238 -178 q 39 -337 136 -337 q -65 -309 -28 -337 q -101 -244 -101 -281 q -36 -183 -101 -183 q -6 -190 -25 -183 q 13 -222 13 -197 q 8 -244 13 -233 q 4 -265 4 -256 q 47 -300 4 -300 q 102 -271 83 -300 q 121 -185 121 -242 q 119 -144 121 -179 q 118 -82 118 -108 l 118 522 q 100 550 118 550 l 43 547 l 43 583 l 238 583 m 171 893 q 225 876 203 893 q 247 828 247 858 q 225 778 247 796 q 171 761 203 761 q 117 778 138 761 q 96 828 96 796 q 117 876 96 858 q 171 893 138 893 z "},"ȷ":{"ha":349,"x_min":-101,"x_max":238,"o":"m 238 583 l 238 -6 q 187 -258 238 -178 q 39 -337 136 -337 q -65 -309 -28 -337 q -101 -244 -101 -281 q -36 -183 -101 -183 q -6 -190 -25 -183 q 13 -222 13 -197 q 8 -244 13 -233 q 4 -265 4 -256 q 47 -300 4 -300 q 102 -271 83 -300 q 121 -185 121 -242 q 119 -144 121 -179 q 118 -82 118 -108 l 118 522 q 100 550 118 550 l 43 547 l 43 583 l 238 583 z "},"k":{"ha":710,"x_min":49,"x_max":700,"o":"m 238 1014 l 238 60 q 256 33 238 33 l 319 36 l 319 0 l 49 0 l 49 36 l 100 33 q 118 60 118 38 l 118 953 q 101 982 118 982 l 50 979 l 50 1014 l 238 1014 m 361 406 l 613 58 q 650 33 631 33 l 700 36 l 700 0 l 401 0 l 401 36 l 464 33 q 476 53 492 31 l 275 332 l 361 406 m 625 583 l 625 549 l 575 551 q 532 532 554 551 l 228 272 l 228 321 l 464 524 q 472 542 471 531 q 460 551 472 553 l 400 549 l 400 583 l 625 583 z "},"ķ":{"ha":710,"x_min":49,"x_max":700,"o":"m 238 1014 l 238 60 q 256 33 238 33 l 319 36 l 319 0 l 49 0 l 49 36 l 100 33 q 118 60 118 38 l 118 953 q 101 982 118 982 l 50 979 l 50 1014 l 238 1014 m 361 406 l 613 58 q 650 33 631 33 l 700 36 l 700 0 l 401 0 l 401 36 l 464 33 q 476 53 492 31 l 275 332 l 361 406 m 625 583 l 625 549 l 575 551 q 532 532 554 551 l 228 272 l 228 321 l 464 524 q 472 542 471 531 q 460 551 472 553 l 400 549 l 400 583 l 625 583 m 301 -278 q 350 -238 329 -262 q 371 -194 371 -214 q 332 -154 371 -154 q 301 -140 313 -154 q 290 -107 290 -125 q 307 -66 290 -85 q 357 -47 324 -47 q 418 -74 396 -47 q 440 -133 440 -100 q 404 -232 440 -189 q 324 -296 368 -275 l 301 -278 z "},"l":{"ha":354,"x_min":49,"x_max":306,"o":"m 49 0 l 49 36 l 100 33 q 118 60 118 38 l 118 954 q 101 983 118 978 l 50 981 l 50 1015 l 238 1015 l 238 60 q 256 33 238 33 l 306 36 l 306 0 l 49 0 z "},"ĺ":{"ha":354,"x_min":49,"x_max":363,"o":"m 363 1174 q 349 1158 363 1165 l 125 1058 q 101 1053 111 1053 q 82 1065 82 1053 q 100 1088 82 1075 l 258 1203 q 296 1219 281 1219 q 338 1201 314 1219 q 363 1174 363 1183 m 49 0 l 49 36 l 100 33 q 118 60 118 38 l 118 954 q 101 983 118 978 l 50 981 l 50 1015 l 238 1015 l 238 60 q 256 33 238 33 l 306 36 l 306 0 l 49 0 z "},"ľ":{"ha":354,"x_min":49,"x_max":414,"o":"m 49 0 l 49 36 l 100 33 q 118 60 118 38 l 118 954 q 101 983 118 978 l 50 981 l 50 1015 l 238 1015 l 238 60 q 256 33 238 33 l 306 36 l 306 0 l 49 0 m 289 626 q 328 667 311 643 q 344 710 344 692 q 319 736 344 736 q 289 751 300 736 q 278 783 278 765 q 292 824 278 806 q 338 843 306 843 q 393 817 372 843 q 414 757 414 790 q 382 667 414 707 q 311 608 350 628 l 289 626 z "},"ļ":{"ha":354,"x_min":49,"x_max":306,"o":"m 49 0 l 49 36 l 100 33 q 118 60 118 38 l 118 954 q 101 983 118 978 l 50 981 l 50 1015 l 238 1015 l 238 60 q 256 33 238 33 l 306 36 l 306 0 l 49 0 m 124 -278 q 172 -238 151 -262 q 193 -194 193 -214 q 154 -154 193 -154 q 124 -140 135 -154 q 113 -107 113 -125 q 129 -66 113 -85 q 179 -47 146 -47 q 240 -74 218 -47 q 263 -133 263 -100 q 226 -232 263 -189 q 146 -296 190 -275 l 124 -278 z "},"ŀ":{"ha":354,"x_min":49,"x_max":431,"o":"m 49 0 l 49 36 l 100 33 q 118 60 118 38 l 118 954 q 101 983 118 978 l 50 981 l 50 1015 l 238 1015 l 238 60 q 256 33 238 33 l 306 36 l 306 0 l 49 0 m 281 492 q 302 540 281 521 q 356 560 324 560 q 408 540 386 560 q 431 492 431 521 q 409 443 431 461 q 356 425 388 425 q 302 443 324 425 q 281 492 281 461 z "},"ł":{"ha":354,"x_min":35,"x_max":321,"o":"m 35 481 l 192 611 l 192 549 l 35 418 l 35 481 m 321 646 l 192 539 l 192 601 l 321 710 l 321 646 m 49 0 l 49 36 l 100 33 q 118 60 118 38 l 118 954 q 101 983 118 978 l 50 981 l 50 1015 l 238 1015 l 238 60 q 256 33 238 33 l 306 36 l 306 0 l 49 0 z "},"m":{"ha":1113,"x_min":49,"x_max":1085,"o":"m 246 583 q 239 536 239 563 l 238 60 q 256 33 238 33 l 319 36 l 319 0 l 49 0 l 49 36 l 100 33 q 118 60 118 38 l 118 522 q 100 550 118 550 l 49 547 l 49 583 l 246 583 m 440 597 q 575 554 524 597 q 626 371 626 511 l 626 60 q 644 33 626 33 l 710 36 l 710 0 l 425 0 l 425 36 l 489 33 q 507 60 507 38 l 507 378 q 489 516 507 481 q 408 551 471 551 q 281 472 328 551 q 238 271 233 392 l 233 442 q 303 551 250 506 q 440 597 356 597 m 829 597 q 972 551 928 597 q 1015 400 1015 504 l 1015 60 q 1033 33 1015 33 l 1085 36 l 1085 0 l 814 0 l 814 36 l 878 33 q 896 60 896 38 l 896 375 q 881 508 896 464 q 803 553 867 553 q 672 474 722 553 q 626 268 621 396 l 617 421 q 695 553 638 508 q 829 597 753 597 z "},"n":{"ha":729,"x_min":49,"x_max":701,"o":"m 446 597 q 588 551 544 597 q 632 400 632 504 l 632 60 q 650 33 632 33 l 701 36 l 701 0 l 431 0 l 431 36 l 494 33 q 513 60 513 38 l 513 375 q 498 508 513 464 q 419 553 483 553 q 283 474 333 553 q 238 268 233 396 l 232 444 q 314 556 258 514 q 446 597 369 597 m 244 583 q 238 535 238 563 l 238 60 q 256 33 238 33 l 319 36 l 319 0 l 49 0 l 49 36 l 100 33 q 118 60 118 38 l 118 522 q 100 550 118 546 l 49 547 l 49 583 l 244 583 z "},"ń":{"ha":729,"x_min":49,"x_max":701,"o":"m 446 597 q 588 551 544 597 q 632 400 632 504 l 632 60 q 650 33 632 33 l 701 36 l 701 0 l 431 0 l 431 36 l 494 33 q 513 60 513 38 l 513 375 q 498 508 513 464 q 419 553 483 553 q 283 474 333 553 q 238 268 233 396 l 232 444 q 314 556 258 514 q 446 597 369 597 m 244 583 q 238 535 238 563 l 238 60 q 256 33 238 33 l 319 36 l 319 0 l 49 0 l 49 36 l 100 33 q 118 60 118 38 l 118 522 q 100 550 118 546 l 49 547 l 49 583 l 244 583 m 556 871 q 542 853 556 864 l 315 697 q 303 690 311 694 q 288 685 294 685 q 269 696 269 685 q 278 710 269 701 q 294 728 286 718 l 426 872 q 476 907 457 907 q 528 893 501 907 q 556 871 556 879 z "},"ň":{"ha":729,"x_min":49,"x_max":701,"o":"m 446 597 q 588 551 544 597 q 632 400 632 504 l 632 60 q 650 33 632 33 l 701 36 l 701 0 l 431 0 l 431 36 l 494 33 q 513 60 513 38 l 513 375 q 498 508 513 464 q 419 553 483 553 q 283 474 333 553 q 238 268 233 396 l 232 444 q 314 556 258 514 q 446 597 369 597 m 244 583 q 238 535 238 563 l 238 60 q 256 33 238 33 l 319 36 l 319 0 l 49 0 l 49 36 l 100 33 q 118 60 118 38 l 118 522 q 100 550 118 546 l 49 547 l 49 583 l 244 583 m 149 901 q 161 913 149 913 q 180 907 168 913 q 200 896 192 901 l 365 793 l 531 896 q 551 907 539 901 q 569 913 563 913 q 582 901 582 913 q 549 867 582 892 q 472 797 515 842 l 440 764 l 407 731 q 365 696 369 696 q 324 731 361 696 l 290 764 l 258 797 q 182 867 215 842 q 149 901 149 892 z "},"ņ":{"ha":729,"x_min":49,"x_max":701,"o":"m 446 597 q 588 551 544 597 q 632 400 632 504 l 632 60 q 650 33 632 33 l 701 36 l 701 0 l 431 0 l 431 36 l 494 33 q 513 60 513 38 l 513 375 q 498 508 513 464 q 419 553 483 553 q 283 474 333 553 q 238 268 233 396 l 232 444 q 314 556 258 514 q 446 597 369 597 m 244 583 q 238 535 238 563 l 238 60 q 256 33 238 33 l 319 36 l 319 0 l 49 0 l 49 36 l 100 33 q 118 60 118 38 l 118 522 q 100 550 118 546 l 49 547 l 49 583 l 244 583 m 311 -278 q 360 -238 339 -262 q 381 -194 381 -214 q 342 -154 381 -154 q 311 -140 322 -154 q 300 -107 300 -125 q 317 -66 300 -85 q 367 -47 333 -47 q 428 -74 406 -47 q 450 -133 450 -100 q 414 -232 450 -189 q 333 -296 378 -275 l 311 -278 z "},"ñ":{"ha":729,"x_min":49,"x_max":701,"o":"m 446 597 q 588 551 544 597 q 632 400 632 504 l 632 60 q 650 33 632 33 l 701 36 l 701 0 l 431 0 l 431 36 l 494 33 q 513 60 513 38 l 513 375 q 498 508 513 464 q 419 553 483 553 q 283 474 333 553 q 238 268 233 396 l 232 444 q 314 556 258 514 q 446 597 369 597 m 244 583 q 238 535 238 563 l 238 60 q 256 33 238 33 l 319 36 l 319 0 l 49 0 l 49 36 l 100 33 q 118 60 118 38 l 118 522 q 100 550 118 546 l 49 547 l 49 583 l 244 583 m 167 736 q 192 825 167 788 q 256 863 217 863 q 375 833 300 863 q 490 803 450 803 q 536 861 536 803 l 564 861 q 539 772 564 810 q 475 735 514 735 q 356 765 429 735 q 240 794 282 794 q 194 736 194 794 l 167 736 z "},"o":{"ha":656,"x_min":49,"x_max":607,"o":"m 49 293 q 118 514 49 431 q 328 597 188 597 q 538 514 468 597 q 607 293 607 431 q 538 69 607 153 q 328 -14 468 -14 q 118 69 188 -14 q 49 293 49 153 m 175 290 q 210 88 175 151 q 328 24 244 24 q 446 88 411 24 q 481 290 481 151 q 446 495 481 431 q 328 560 411 560 q 210 495 244 560 q 175 290 175 431 z "},"ó":{"ha":656,"x_min":49,"x_max":607,"o":"m 49 293 q 118 514 49 431 q 328 597 188 597 q 538 514 468 597 q 607 293 607 431 q 538 69 607 153 q 328 -14 468 -14 q 118 69 188 -14 q 49 293 49 153 m 175 290 q 210 88 175 151 q 328 24 244 24 q 446 88 411 24 q 481 290 481 151 q 446 495 481 431 q 328 560 411 560 q 210 495 244 560 q 175 290 175 431 m 518 871 q 504 853 518 864 l 278 697 q 265 690 274 694 q 250 685 257 685 q 232 696 232 685 q 240 710 232 701 q 257 728 249 718 l 389 872 q 439 907 419 907 q 491 893 464 907 q 518 871 518 879 z "},"ô":{"ha":656,"x_min":49,"x_max":607,"o":"m 49 293 q 118 514 49 431 q 328 597 188 597 q 538 514 468 597 q 607 293 607 431 q 538 69 607 153 q 328 -14 468 -14 q 118 69 188 -14 q 49 293 49 153 m 175 290 q 210 88 175 151 q 328 24 244 24 q 446 88 411 24 q 481 290 481 151 q 446 495 481 431 q 328 560 411 560 q 210 495 244 560 q 175 290 175 431 z "},"ö":{"ha":656,"x_min":49,"x_max":607,"o":"m 49 293 q 118 514 49 431 q 328 597 188 597 q 538 514 468 597 q 607 293 607 431 q 538 69 607 153 q 328 -14 468 -14 q 118 69 188 -14 q 49 293 49 153 m 175 290 q 210 88 175 151 q 328 24 244 24 q 446 88 411 24 q 481 290 481 151 q 446 495 481 431 q 328 560 411 560 q 210 495 244 560 q 175 290 175 431 z "},"ò":{"ha":656,"x_min":49,"x_max":607,"o":"m 49 293 q 118 514 49 431 q 328 597 188 597 q 538 514 468 597 q 607 293 607 431 q 538 69 607 153 q 328 -14 468 -14 q 118 69 188 -14 q 49 293 49 153 m 175 290 q 210 88 175 151 q 328 24 244 24 q 446 88 411 24 q 481 290 481 151 q 446 495 481 431 q 328 560 411 560 q 210 495 244 560 q 175 290 175 431 z "},"ő":{"ha":656,"x_min":49,"x_max":607,"o":"m 49 293 q 118 514 49 431 q 328 597 188 597 q 538 514 468 597 q 607 293 607 431 q 538 69 607 153 q 328 -14 468 -14 q 118 69 188 -14 q 49 293 49 153 m 175 290 q 210 88 175 151 q 328 24 244 24 q 446 88 411 24 q 481 290 481 151 q 446 495 481 431 q 328 560 411 560 q 210 495 244 560 q 175 290 175 431 m 174 708 q 260 856 240 822 q 285 894 279 889 q 303 907 294 907 q 332 900 310 907 q 363 889 354 893 q 375 872 375 883 q 367 856 375 867 q 330 818 358 846 q 203 693 301 790 q 182 685 194 685 q 169 696 169 685 q 174 708 169 700 m 340 708 q 426 856 407 822 q 451 894 446 889 q 469 907 461 907 q 499 900 476 907 q 529 889 521 893 q 542 872 542 883 q 533 856 542 867 q 497 818 525 846 q 369 693 468 790 q 349 685 361 685 q 336 696 336 685 q 340 708 336 700 z "},"ō":{"ha":656,"x_min":49,"x_max":607,"o":"m 49 293 q 118 514 49 431 q 328 597 188 597 q 538 514 468 597 q 607 293 607 431 q 538 69 607 153 q 328 -14 468 -14 q 118 69 188 -14 q 49 293 49 153 m 175 290 q 210 88 175 151 q 328 24 244 24 q 446 88 411 24 q 481 290 481 151 q 446 495 481 431 q 328 560 411 560 q 210 495 244 560 q 175 290 175 431 m 161 788 l 161 843 l 493 843 l 493 788 l 161 788 z "},"ø":{"ha":656,"x_min":49,"x_max":607,"o":"m 147 -118 l 94 -94 l 539 700 l 586 671 l 147 -118 m 49 293 q 118 514 49 431 q 328 597 188 597 q 538 514 468 597 q 607 293 607 431 q 538 69 607 153 q 328 -14 468 -14 q 118 69 188 -14 q 49 293 49 153 m 175 290 q 210 88 175 151 q 328 24 244 24 q 446 88 411 24 q 481 290 481 151 q 446 495 481 431 q 328 560 411 560 q 210 495 244 560 q 175 290 175 431 z "},"õ":{"ha":656,"x_min":49,"x_max":607,"o":"m 49 293 q 118 514 49 431 q 328 597 188 597 q 538 514 468 597 q 607 293 607 431 q 538 69 607 153 q 328 -14 468 -14 q 118 69 188 -14 q 49 293 49 153 m 175 290 q 210 88 175 151 q 328 24 244 24 q 446 88 411 24 q 481 290 481 151 q 446 495 481 431 q 328 560 411 560 q 210 495 244 560 q 175 290 175 431 m 129 736 q 154 825 129 788 q 218 863 179 863 q 338 833 263 863 q 453 803 413 803 q 499 861 499 803 l 526 861 q 501 772 526 810 q 438 735 476 735 q 318 765 392 735 q 203 794 244 794 q 157 736 157 794 l 129 736 z "},"œ":{"ha":1057,"x_min":49,"x_max":1008,"o":"m 765 597 q 944 527 879 597 q 1008 332 1008 457 l 1008 301 l 600 301 q 649 103 600 174 q 789 32 697 32 q 904 72 850 32 q 972 153 958 111 l 1004 129 q 919 26 981 67 q 772 -14 857 -14 q 543 89 626 -14 q 453 8 501 31 q 317 -14 406 -14 q 119 69 189 -14 q 49 281 49 153 q 110 503 49 410 q 315 597 171 597 q 543 494 481 597 q 628 572 579 547 q 765 597 678 597 m 315 560 q 208 492 242 560 q 175 282 175 425 q 204 99 175 175 q 317 24 233 24 q 449 92 419 24 q 479 288 479 161 q 443 501 479 443 q 315 560 407 560 m 758 560 q 642 508 685 560 q 600 336 600 457 l 874 336 q 890 357 890 336 q 860 513 890 465 q 758 560 829 560 z "},"p":{"ha":686,"x_min":28,"x_max":638,"o":"m 399 597 q 579 517 521 597 q 638 290 638 438 q 374 -14 638 -14 q 215 60 256 -14 l 215 -271 q 219 -292 215 -285 q 233 -299 224 -299 l 319 -296 l 319 -332 l 33 -332 l 33 -296 l 78 -299 q 96 -271 96 -297 l 96 522 q 78 550 96 550 l 28 547 l 28 583 l 221 583 q 215 513 215 549 l 215 472 q 282 564 235 531 q 399 597 329 597 m 383 560 q 260 491 303 560 q 218 314 218 422 l 218 256 q 259 77 218 131 q 374 24 300 24 q 482 81 453 24 q 511 290 511 138 q 486 500 511 440 q 383 560 461 560 z "},"þ":{"ha":686,"x_min":28,"x_max":638,"o":"m 215 1014 l 215 472 q 282 564 235 531 q 399 597 329 597 q 579 517 521 597 q 638 290 638 438 q 374 -14 638 -14 q 215 60 256 -14 l 215 -271 q 219 -292 215 -285 q 233 -299 224 -299 l 319 -296 l 319 -332 l 33 -332 l 33 -296 l 78 -299 q 96 -271 96 -297 l 96 953 q 78 981 96 981 l 28 978 l 28 1014 l 215 1014 m 383 560 q 260 491 303 560 q 218 314 218 422 l 218 256 q 259 77 218 131 q 374 24 300 24 q 482 81 453 24 q 511 290 511 138 q 486 500 511 440 q 383 560 461 560 z "},"q":{"ha":681,"x_min":49,"x_max":653,"o":"m 311 597 q 474 521 418 597 q 483 509 476 517 q 501 501 490 501 q 532 518 519 501 q 544 583 544 535 l 590 583 l 590 -271 q 608 -297 590 -299 l 653 -296 l 653 -332 l 375 -332 l 375 -296 l 453 -297 q 471 -271 471 -296 l 471 86 q 416 17 457 47 q 308 -14 375 -14 q 117 49 185 -14 q 49 290 49 111 q 311 597 49 597 m 321 560 q 210 499 244 560 q 176 290 176 438 q 213 69 176 115 q 315 24 250 24 q 406 65 372 24 q 454 160 440 106 q 468 257 468 214 l 468 314 q 456 421 468 364 q 413 519 444 478 q 321 560 381 560 z "},"r":{"ha":532,"x_min":49,"x_max":513,"o":"m 236 60 q 254 33 236 33 l 339 36 l 339 0 l 54 0 l 54 36 l 99 33 q 117 60 117 33 l 117 522 q 99 550 117 550 l 49 547 l 49 583 l 244 583 q 236 519 236 561 l 236 60 m 228 431 q 305 560 263 522 q 399 597 347 597 q 484 565 456 597 q 513 489 513 533 q 496 440 513 456 q 454 424 479 424 q 420 433 438 424 q 403 467 403 443 q 408 499 403 486 q 414 529 414 511 q 382 558 414 558 q 299 508 332 558 q 249 392 265 458 q 236 275 233 325 l 228 431 z "},"ŕ":{"ha":532,"x_min":49,"x_max":513,"o":"m 236 60 q 254 33 236 33 l 339 36 l 339 0 l 54 0 l 54 36 l 99 33 q 117 60 117 33 l 117 522 q 99 550 117 550 l 49 547 l 49 583 l 244 583 q 236 519 236 561 l 236 60 m 228 431 q 305 560 263 522 q 399 597 347 597 q 484 565 456 597 q 513 489 513 533 q 496 440 513 456 q 454 424 479 424 q 420 433 438 424 q 403 467 403 443 q 408 499 403 486 q 414 529 414 511 q 382 558 414 558 q 299 508 332 558 q 249 392 265 458 q 236 275 233 325 l 228 431 m 388 871 q 374 853 388 864 l 147 697 q 135 690 143 694 q 119 685 126 685 q 101 696 101 685 q 110 710 101 701 q 126 728 118 718 l 258 872 q 308 907 289 907 q 360 893 333 907 q 388 871 388 879 z "},"ř":{"ha":532,"x_min":-19,"x_max":513,"o":"m 236 60 q 254 33 236 33 l 339 36 l 339 0 l 54 0 l 54 36 l 99 33 q 117 60 117 33 l 117 522 q 99 550 117 550 l 49 547 l 49 583 l 244 583 q 236 519 236 561 l 236 60 m 228 431 q 305 560 263 522 q 399 597 347 597 q 484 565 456 597 q 513 489 513 533 q 496 440 513 456 q 454 424 479 424 q 420 433 438 424 q 403 467 403 443 q 408 499 403 486 q 414 529 414 511 q 382 558 414 558 q 299 508 332 558 q 249 392 265 458 q 236 275 233 325 l 228 431 m -19 901 q -7 913 -19 913 q 12 907 0 913 q 32 896 24 901 l 197 793 l 363 896 q 383 907 371 901 q 401 913 394 913 q 414 901 414 913 q 381 867 414 892 q 304 797 347 842 l 272 764 l 239 731 q 197 696 201 696 q 156 731 193 696 l 122 764 l 90 797 q 14 867 47 842 q -19 901 -19 892 z "},"ŗ":{"ha":532,"x_min":49,"x_max":513,"o":"m 236 60 q 254 33 236 33 l 339 36 l 339 0 l 54 0 l 54 36 l 99 33 q 117 60 117 33 l 117 522 q 99 550 117 550 l 49 547 l 49 583 l 244 583 q 236 519 236 561 l 236 60 m 228 431 q 305 560 263 522 q 399 597 347 597 q 484 565 456 597 q 513 489 513 533 q 496 440 513 456 q 454 424 479 424 q 420 433 438 424 q 403 467 403 443 q 408 499 403 486 q 414 529 414 511 q 382 558 414 558 q 299 508 332 558 q 249 392 265 458 q 236 275 233 325 l 228 431 m 136 -278 q 185 -238 164 -262 q 206 -194 206 -214 q 167 -154 206 -154 q 136 -140 147 -154 q 125 -107 125 -125 q 142 -66 125 -85 q 192 -47 158 -47 q 253 -74 231 -47 q 275 -133 275 -100 q 239 -232 275 -189 q 158 -296 203 -275 l 136 -278 z "},"s":{"ha":571,"x_min":61,"x_max":525,"o":"m 61 14 l 68 197 l 104 200 q 165 73 104 122 q 306 24 225 24 q 422 129 422 24 q 401 193 422 168 q 325 233 379 218 l 192 271 q 105 326 138 286 q 72 425 72 365 q 128 549 72 500 q 285 597 185 597 q 378 582 340 597 q 451 567 417 567 q 490 578 472 567 l 482 419 l 451 419 q 410 516 451 472 q 289 560 368 560 q 206 531 235 560 q 176 461 176 503 q 263 369 176 393 l 396 332 q 497 272 469 311 q 525 175 525 233 q 460 34 525 82 q 294 -14 394 -14 q 233 -8 264 -14 q 139 17 201 -1 q 101 22 118 22 q 61 14 74 22 z "},"ś":{"ha":571,"x_min":61,"x_max":525,"o":"m 61 14 l 68 197 l 104 200 q 165 73 104 122 q 306 24 225 24 q 422 129 422 24 q 401 193 422 168 q 325 233 379 218 l 192 271 q 105 326 138 286 q 72 425 72 365 q 128 549 72 500 q 285 597 185 597 q 378 582 340 597 q 451 567 417 567 q 490 578 472 567 l 482 419 l 451 419 q 410 516 451 472 q 289 560 368 560 q 206 531 235 560 q 176 461 176 503 q 263 369 176 393 l 396 332 q 497 272 469 311 q 525 175 525 233 q 460 34 525 82 q 294 -14 394 -14 q 233 -8 264 -14 q 139 17 201 -1 q 101 22 118 22 q 61 14 74 22 m 476 871 q 463 853 476 864 l 236 697 q 224 690 232 694 q 208 685 215 685 q 190 696 190 685 q 199 710 190 701 q 215 728 207 718 l 347 872 q 397 907 378 907 q 449 893 422 907 q 476 871 476 879 z "},"š":{"ha":571,"x_min":61,"x_max":525,"o":"m 61 14 l 68 197 l 104 200 q 165 73 104 122 q 306 24 225 24 q 422 129 422 24 q 401 193 422 168 q 325 233 379 218 l 192 271 q 105 326 138 286 q 72 425 72 365 q 128 549 72 500 q 285 597 185 597 q 378 582 340 597 q 451 567 417 567 q 490 578 472 567 l 482 419 l 451 419 q 410 516 451 472 q 289 560 368 560 q 206 531 235 560 q 176 461 176 503 q 263 369 176 393 l 396 332 q 497 272 469 311 q 525 175 525 233 q 460 34 525 82 q 294 -14 394 -14 q 233 -8 264 -14 q 139 17 201 -1 q 101 22 118 22 q 61 14 74 22 m 69 901 q 82 913 69 913 q 101 907 89 913 q 121 896 113 901 l 286 793 l 451 896 q 472 907 460 901 q 490 913 483 913 q 503 901 503 913 q 469 867 503 892 q 393 797 436 842 l 361 764 l 328 731 q 286 696 290 696 q 244 731 282 696 l 211 764 l 179 797 q 103 867 136 842 q 69 901 69 892 z "},"ş":{"ha":571,"x_min":61,"x_max":525,"o":"m 61 14 l 68 197 l 104 200 q 165 73 104 122 q 306 24 225 24 q 422 129 422 24 q 401 193 422 168 q 325 233 379 218 l 192 271 q 105 326 138 286 q 72 425 72 365 q 128 549 72 500 q 285 597 185 597 q 378 582 340 597 q 451 567 417 567 q 490 578 472 567 l 482 419 l 451 419 q 410 516 451 472 q 289 560 368 560 q 206 531 235 560 q 176 461 176 503 q 263 369 176 393 l 396 332 q 497 272 469 311 q 525 175 525 233 q 460 34 525 82 q 294 -14 394 -14 q 233 -8 264 -14 q 139 17 201 -1 q 101 22 118 22 q 61 14 74 22 m 182 -275 l 192 -242 q 240 -260 208 -260 q 295 -238 272 -260 q 318 -185 318 -217 q 303 -153 318 -167 q 271 -131 289 -140 l 239 -111 q 224 -90 224 -100 q 232 -72 224 -81 l 289 0 l 335 0 l 297 -60 q 289 -86 289 -75 q 319 -107 289 -103 q 378 -122 349 -111 q 408 -169 408 -133 q 375 -262 408 -228 q 278 -297 342 -297 q 233 -294 260 -297 q 182 -275 206 -290 z "},"ș":{"ha":571,"x_min":61,"x_max":525,"o":"m 61 14 l 68 197 l 104 200 q 165 73 104 122 q 306 24 225 24 q 422 129 422 24 q 401 193 422 168 q 325 233 379 218 l 192 271 q 105 326 138 286 q 72 425 72 365 q 128 549 72 500 q 285 597 185 597 q 378 582 340 597 q 451 567 417 567 q 490 578 472 567 l 482 419 l 451 419 q 410 516 451 472 q 289 560 368 560 q 206 531 235 560 q 176 461 176 503 q 263 369 176 393 l 396 332 q 497 272 469 311 q 525 175 525 233 q 460 34 525 82 q 294 -14 394 -14 q 233 -8 264 -14 q 139 17 201 -1 q 101 22 118 22 q 61 14 74 22 m 246 -278 q 294 -238 274 -262 q 315 -194 315 -214 q 276 -154 315 -154 q 246 -140 257 -154 q 235 -107 235 -125 q 251 -66 235 -85 q 301 -47 268 -47 q 363 -74 340 -47 q 385 -133 385 -100 q 349 -232 385 -189 q 268 -296 313 -275 l 246 -278 z "},"ß":{"ha":733,"x_min":49,"x_max":735,"o":"m 357 1024 q 540 981 471 1024 q 608 864 608 938 q 569 774 608 808 q 478 707 531 739 q 422 660 442 683 q 401 593 401 638 q 426 531 401 561 q 490 472 450 500 l 611 385 q 702 298 669 344 q 735 193 735 251 q 667 42 735 94 q 519 -11 600 -11 q 399 14 447 -11 q 350 79 350 39 q 417 149 350 149 q 465 132 450 149 q 479 93 479 115 q 478 74 479 83 q 476 56 476 64 q 514 29 476 29 q 594 54 563 29 q 625 138 625 79 q 521 304 625 228 l 401 390 q 323 460 354 425 q 292 536 292 496 q 315 617 292 582 q 404 703 339 651 q 474 767 450 739 q 499 850 499 794 q 462 950 499 911 q 358 989 425 989 q 255 948 294 989 q 215 835 215 907 q 226 726 215 799 q 236 603 236 654 l 236 67 q 256 38 236 38 l 319 40 l 319 0 l 49 0 l 49 40 l 99 38 q 117 67 117 38 l 117 711 q 178 949 117 875 q 357 1024 239 1024 z "},"t":{"ha":435,"x_min":35,"x_max":396,"o":"m 238 725 l 238 583 l 390 583 l 390 549 l 238 549 l 238 122 q 250 51 238 69 q 294 32 263 32 q 337 48 314 32 q 367 88 360 64 l 396 69 q 347 12 382 32 q 249 -8 313 -8 q 148 25 178 -8 q 118 133 118 58 l 118 549 l 35 549 l 35 583 q 144 608 113 583 q 199 725 176 633 l 238 725 z "},"ť":{"ha":435,"x_min":35,"x_max":428,"o":"m 238 725 l 238 583 l 390 583 l 390 549 l 238 549 l 238 122 q 250 51 238 69 q 294 32 263 32 q 337 48 314 32 q 367 88 360 64 l 396 69 q 347 12 382 32 q 249 -8 313 -8 q 148 25 178 -8 q 118 133 118 58 l 118 549 l 35 549 l 35 583 q 144 608 113 583 q 199 725 176 633 l 238 725 m 303 626 q 342 667 325 643 q 358 710 358 692 q 333 736 358 736 q 303 751 314 736 q 292 783 292 765 q 306 824 292 806 q 351 843 319 843 q 407 817 386 843 q 428 757 428 790 q 396 667 428 707 q 325 608 364 628 l 303 626 z "},"ţ":{"ha":435,"x_min":35,"x_max":396,"o":"m 238 725 l 238 583 l 390 583 l 390 549 l 238 549 l 238 122 q 250 51 238 69 q 294 32 263 32 q 337 48 314 32 q 367 88 360 64 l 396 69 q 347 12 382 32 q 249 -8 313 -8 q 148 25 178 -8 q 118 133 118 58 l 118 549 l 35 549 l 35 583 q 144 608 113 583 q 199 725 176 633 l 238 725 m 100 -275 l 110 -242 q 158 -260 126 -260 q 213 -238 190 -260 q 236 -185 236 -217 q 222 -153 236 -167 q 189 -131 207 -140 l 157 -111 q 142 -90 142 -100 q 150 -72 142 -81 l 207 0 l 253 0 l 215 -60 q 207 -86 207 -75 q 237 -107 207 -103 q 297 -122 267 -111 q 326 -169 326 -133 q 293 -262 326 -228 q 196 -297 260 -297 q 151 -294 178 -297 q 100 -275 124 -290 z "},"ț":{"ha":435,"x_min":35,"x_max":396,"o":"m 238 725 l 238 583 l 390 583 l 390 549 l 238 549 l 238 122 q 250 51 238 69 q 294 32 263 32 q 337 48 314 32 q 367 88 360 64 l 396 69 q 347 12 382 32 q 249 -8 313 -8 q 148 25 178 -8 q 118 133 118 58 l 118 549 l 35 549 l 35 583 q 144 608 113 583 q 199 725 176 633 l 238 725 m 164 -278 q 213 -238 192 -262 q 233 -194 233 -214 q 194 -154 233 -154 q 164 -140 175 -154 q 153 -107 153 -125 q 169 -66 153 -85 q 219 -47 186 -47 q 281 -74 258 -47 q 303 -133 303 -100 q 267 -232 303 -189 q 186 -296 231 -275 l 164 -278 z "},"u":{"ha":728,"x_min":28,"x_max":679,"o":"m 215 583 l 215 206 q 231 75 215 118 q 300 32 246 32 q 442 108 388 32 q 490 314 496 183 l 496 136 q 411 24 469 63 q 271 -14 353 -14 q 137 38 178 -14 q 96 206 96 89 l 96 522 q 78 550 96 550 l 28 547 l 28 583 l 215 583 m 611 583 l 611 60 q 629 33 611 33 l 679 36 l 679 0 l 482 0 q 487 26 485 7 q 489 100 489 46 l 490 521 q 474 550 490 550 l 408 547 l 408 583 l 611 583 z "},"ú":{"ha":728,"x_min":28,"x_max":679,"o":"m 215 583 l 215 206 q 231 75 215 118 q 300 32 246 32 q 442 108 388 32 q 490 314 496 183 l 496 136 q 411 24 469 63 q 271 -14 353 -14 q 137 38 178 -14 q 96 206 96 89 l 96 522 q 78 550 96 550 l 28 547 l 28 583 l 215 583 m 611 583 l 611 60 q 629 33 611 33 l 679 36 l 679 0 l 482 0 q 487 26 485 7 q 489 100 489 46 l 490 521 q 474 550 490 550 l 408 547 l 408 583 l 611 583 m 554 871 q 540 853 554 864 l 314 697 q 301 690 310 694 q 286 685 293 685 q 268 696 268 685 q 276 710 268 701 q 293 728 285 718 l 425 872 q 475 907 456 907 q 527 893 500 907 q 554 871 554 879 z "},"û":{"ha":728,"x_min":28,"x_max":679,"o":"m 215 583 l 215 206 q 231 75 215 118 q 300 32 246 32 q 442 108 388 32 q 490 314 496 183 l 496 136 q 411 24 469 63 q 271 -14 353 -14 q 137 38 178 -14 q 96 206 96 89 l 96 522 q 78 550 96 550 l 28 547 l 28 583 l 215 583 m 611 583 l 611 60 q 629 33 611 33 l 679 36 l 679 0 l 482 0 q 487 26 485 7 q 489 100 489 46 l 490 521 q 474 550 490 550 l 408 547 l 408 583 l 611 583 z "},"ü":{"ha":728,"x_min":28,"x_max":679,"o":"m 215 583 l 215 206 q 231 75 215 118 q 300 32 246 32 q 442 108 388 32 q 490 314 496 183 l 496 136 q 411 24 469 63 q 271 -14 353 -14 q 137 38 178 -14 q 96 206 96 89 l 96 522 q 78 550 96 550 l 28 547 l 28 583 l 215 583 m 611 583 l 611 60 q 629 33 611 33 l 679 36 l 679 0 l 482 0 q 487 26 485 7 q 489 100 489 46 l 490 521 q 474 550 490 550 l 408 547 l 408 583 l 611 583 z "},"ù":{"ha":728,"x_min":28,"x_max":679,"o":"m 215 583 l 215 206 q 231 75 215 118 q 300 32 246 32 q 442 108 388 32 q 490 314 496 183 l 496 136 q 411 24 469 63 q 271 -14 353 -14 q 137 38 178 -14 q 96 206 96 89 l 96 522 q 78 550 96 550 l 28 547 l 28 583 l 215 583 m 611 583 l 611 60 q 629 33 611 33 l 679 36 l 679 0 l 482 0 q 487 26 485 7 q 489 100 489 46 l 490 521 q 474 550 490 550 l 408 547 l 408 583 l 611 583 z "},"ű":{"ha":728,"x_min":28,"x_max":679,"o":"m 215 583 l 215 206 q 231 75 215 118 q 300 32 246 32 q 442 108 388 32 q 490 314 496 183 l 496 136 q 411 24 469 63 q 271 -14 353 -14 q 137 38 178 -14 q 96 206 96 89 l 96 522 q 78 550 96 550 l 28 547 l 28 583 l 215 583 m 611 583 l 611 60 q 629 33 611 33 l 679 36 l 679 0 l 482 0 q 487 26 485 7 q 489 100 489 46 l 490 521 q 474 550 490 550 l 408 547 l 408 583 l 611 583 m 210 708 q 296 856 276 822 q 321 894 315 889 q 339 907 331 907 q 368 900 346 907 q 399 889 390 893 q 411 872 411 883 q 403 856 411 867 q 366 818 394 846 q 239 693 338 790 q 218 685 231 685 q 206 696 206 685 q 210 708 206 700 m 376 708 q 463 856 443 822 q 488 894 482 889 q 506 907 497 907 q 535 900 513 907 q 565 889 557 893 q 578 872 578 883 q 569 856 578 867 q 533 818 561 846 q 406 693 504 790 q 385 685 397 685 q 372 696 372 685 q 376 708 372 700 z "},"ū":{"ha":728,"x_min":28,"x_max":679,"o":"m 215 583 l 215 206 q 231 75 215 118 q 300 32 246 32 q 442 108 388 32 q 490 314 496 183 l 496 136 q 411 24 469 63 q 271 -14 353 -14 q 137 38 178 -14 q 96 206 96 89 l 96 522 q 78 550 96 550 l 28 547 l 28 583 l 215 583 m 611 583 l 611 60 q 629 33 611 33 l 679 36 l 679 0 l 482 0 q 487 26 485 7 q 489 100 489 46 l 490 521 q 474 550 490 550 l 408 547 l 408 583 l 611 583 m 197 788 l 197 843 l 529 843 l 529 788 l 197 788 z "},"ų":{"ha":728,"x_min":28,"x_max":738,"o":"m 215 583 l 215 206 q 231 75 215 118 q 300 32 246 32 q 442 108 388 32 q 490 314 496 183 l 496 136 q 411 24 469 63 q 271 -14 353 -14 q 137 38 178 -14 q 96 206 96 89 l 96 522 q 78 550 96 550 l 28 547 l 28 583 l 215 583 m 611 583 l 611 60 q 629 33 611 33 l 679 36 l 679 0 l 482 0 q 487 26 485 7 q 489 100 489 46 l 490 521 q 474 550 490 550 l 408 547 l 408 583 l 611 583 m 738 -137 q 574 -221 665 -221 q 503 -196 535 -221 q 471 -121 471 -171 q 575 19 471 -28 l 614 19 q 543 -86 543 -14 q 563 -139 543 -117 q 624 -161 582 -161 q 721 -121 674 -161 l 738 -137 z "},"ů":{"ha":728,"x_min":28,"x_max":679,"o":"m 215 583 l 215 206 q 231 75 215 118 q 300 32 246 32 q 442 108 388 32 q 490 314 496 183 l 496 136 q 411 24 469 63 q 271 -14 353 -14 q 137 38 178 -14 q 96 206 96 89 l 96 522 q 78 550 96 550 l 28 547 l 28 583 l 215 583 m 611 583 l 611 60 q 629 33 611 33 l 679 36 l 679 0 l 482 0 q 487 26 485 7 q 489 100 489 46 l 490 521 q 474 550 490 550 l 408 547 l 408 583 l 611 583 m 247 799 q 281 878 247 846 q 363 911 315 911 q 444 878 410 911 q 479 799 479 846 q 444 718 479 751 q 363 685 410 685 q 281 718 315 685 q 247 799 247 751 m 306 799 q 363 735 306 735 q 421 799 421 735 q 363 861 421 861 q 306 799 306 861 z "},"v":{"ha":617,"x_min":-18,"x_max":604,"o":"m 307 -7 l 269 -7 l 56 532 q 28 550 47 550 l -18 547 l -18 583 l 264 583 l 264 547 l 203 550 q 185 542 193 550 q 182 522 178 533 l 339 142 l 307 -7 m 272 3 l 481 528 q 469 550 490 551 l 408 547 l 408 583 l 604 583 l 604 547 l 558 550 q 526 529 533 550 l 307 -7 l 272 3 z "},"w":{"ha":1007,"x_min":-18,"x_max":994,"o":"m 497 446 l 293 -14 l 265 -14 l 69 532 q 46 550 61 550 l -18 547 l -18 583 l 278 583 l 278 547 l 217 550 q 196 522 185 553 l 338 122 l 313 122 l 517 590 l 546 590 l 744 129 l 718 129 l 863 526 q 847 550 872 551 l 774 547 l 774 583 l 994 583 l 994 547 l 938 550 q 908 526 917 550 l 701 -14 l 671 -14 l 474 446 l 497 446 z "},"ẃ":{"ha":1007,"x_min":-18,"x_max":994,"o":"m 497 446 l 293 -14 l 265 -14 l 69 532 q 46 550 61 550 l -18 547 l -18 583 l 278 583 l 278 547 l 217 550 q 196 522 185 553 l 338 122 l 313 122 l 517 590 l 546 590 l 744 129 l 718 129 l 863 526 q 847 550 872 551 l 774 547 l 774 583 l 994 583 l 994 547 l 938 550 q 908 526 917 550 l 701 -14 l 671 -14 l 474 446 l 497 446 m 725 871 q 711 853 725 864 l 485 697 q 472 690 481 694 q 457 685 464 685 q 439 696 439 685 q 447 710 439 701 q 464 728 456 718 l 596 872 q 646 907 626 907 q 698 893 671 907 q 725 871 725 879 z "},"ŵ":{"ha":1007,"x_min":-18,"x_max":994,"o":"m 497 446 l 293 -14 l 265 -14 l 69 532 q 46 550 61 550 l -18 547 l -18 583 l 278 583 l 278 547 l 217 550 q 196 522 185 553 l 338 122 l 313 122 l 517 590 l 546 590 l 744 129 l 718 129 l 863 526 q 847 550 872 551 l 774 547 l 774 583 l 994 583 l 994 547 l 938 550 q 908 526 917 550 l 701 -14 l 671 -14 l 474 446 l 497 446 z "},"ẅ":{"ha":1007,"x_min":-18,"x_max":994,"o":"m 497 446 l 293 -14 l 265 -14 l 69 532 q 46 550 61 550 l -18 547 l -18 583 l 278 583 l 278 547 l 217 550 q 196 522 185 553 l 338 122 l 313 122 l 517 590 l 546 590 l 744 129 l 718 129 l 863 526 q 847 550 872 551 l 774 547 l 774 583 l 994 583 l 994 547 l 938 550 q 908 526 917 550 l 701 -14 l 671 -14 l 474 446 l 497 446 z "},"ẁ":{"ha":1007,"x_min":-18,"x_max":994,"o":"m 497 446 l 293 -14 l 265 -14 l 69 532 q 46 550 61 550 l -18 547 l -18 583 l 278 583 l 278 547 l 217 550 q 196 522 185 553 l 338 122 l 313 122 l 517 590 l 546 590 l 744 129 l 718 129 l 863 526 q 847 550 872 551 l 774 547 l 774 583 l 994 583 l 994 547 l 938 550 q 908 526 917 550 l 701 -14 l 671 -14 l 474 446 l 497 446 z "},"x":{"ha":675,"x_min":7,"x_max":664,"o":"m 300 263 l 143 53 q 140 47 140 50 q 158 33 140 33 l 218 36 l 218 0 l 7 0 l 7 36 l 67 33 q 96 51 82 33 l 276 296 l 300 263 m 351 354 l 481 526 q 485 542 486 533 q 472 550 483 550 l 413 547 l 413 583 l 619 583 l 619 547 l 561 550 q 526 529 543 550 l 375 322 l 351 354 m 96 532 q 69 550 86 550 l 15 547 l 15 583 l 314 583 l 314 547 l 250 550 q 236 545 242 550 q 238 532 231 540 l 576 51 q 603 33 589 33 l 664 36 l 664 0 l 357 0 l 357 36 l 425 32 q 437 38 435 31 q 435 51 439 46 l 96 532 z "},"y":{"ha":674,"x_min":-18,"x_max":669,"o":"m 321 -12 l 72 532 q 50 550 64 550 l -18 547 l -18 583 l 286 583 l 286 547 l 224 550 q 208 542 214 550 q 207 526 203 535 l 383 138 l 321 -12 m 533 529 q 519 550 542 550 l 454 547 l 454 583 l 669 583 l 669 547 l 613 550 l 610 550 q 575 524 588 550 l 282 -183 q 211 -299 249 -265 q 118 -332 174 -332 q 56 -315 82 -332 q 26 -264 29 -297 q 44 -210 26 -228 q 81 -193 61 -193 q 120 -208 108 -193 q 140 -237 132 -222 q 168 -251 149 -251 q 232 -187 207 -251 l 533 529 z "},"ý":{"ha":674,"x_min":-18,"x_max":669,"o":"m 321 -12 l 72 532 q 50 550 64 550 l -18 547 l -18 583 l 286 583 l 286 547 l 224 550 q 208 542 214 550 q 207 526 203 535 l 383 138 l 321 -12 m 533 529 q 519 550 542 550 l 454 547 l 454 583 l 669 583 l 669 547 l 613 550 l 610 550 q 575 524 588 550 l 282 -183 q 211 -299 249 -265 q 118 -332 174 -332 q 56 -315 82 -332 q 26 -264 29 -297 q 44 -210 26 -228 q 81 -193 61 -193 q 120 -208 108 -193 q 140 -237 132 -222 q 168 -251 149 -251 q 232 -187 207 -251 l 533 529 m 535 871 q 521 853 535 864 l 294 697 q 282 690 290 694 q 267 685 274 685 q 249 696 249 685 q 257 710 249 701 q 274 728 265 718 l 406 872 q 456 907 436 907 q 508 893 481 907 q 535 871 535 879 z "},"ŷ":{"ha":674,"x_min":-18,"x_max":669,"o":"m 321 -12 l 72 532 q 50 550 64 550 l -18 547 l -18 583 l 286 583 l 286 547 l 224 550 q 208 542 214 550 q 207 526 203 535 l 383 138 l 321 -12 m 533 529 q 519 550 542 550 l 454 547 l 454 583 l 669 583 l 669 547 l 613 550 l 610 550 q 575 524 588 550 l 282 -183 q 211 -299 249 -265 q 118 -332 174 -332 q 56 -315 82 -332 q 26 -264 29 -297 q 44 -210 26 -228 q 81 -193 61 -193 q 120 -208 108 -193 q 140 -237 132 -222 q 168 -251 149 -251 q 232 -187 207 -251 l 533 529 z "},"ÿ":{"ha":674,"x_min":-18,"x_max":669,"o":"m 321 -12 l 72 532 q 50 550 64 550 l -18 547 l -18 583 l 286 583 l 286 547 l 224 550 q 208 542 214 550 q 207 526 203 535 l 383 138 l 321 -12 m 533 529 q 519 550 542 550 l 454 547 l 454 583 l 669 583 l 669 547 l 613 550 l 610 550 q 575 524 588 550 l 282 -183 q 211 -299 249 -265 q 118 -332 174 -332 q 56 -315 82 -332 q 26 -264 29 -297 q 44 -210 26 -228 q 81 -193 61 -193 q 120 -208 108 -193 q 140 -237 132 -222 q 168 -251 149 -251 q 232 -187 207 -251 l 533 529 z "},"ỳ":{"ha":674,"x_min":-18,"x_max":669,"o":"m 321 -12 l 72 532 q 50 550 64 550 l -18 547 l -18 583 l 286 583 l 286 547 l 224 550 q 208 542 214 550 q 207 526 203 535 l 383 138 l 321 -12 m 533 529 q 519 550 542 550 l 454 547 l 454 583 l 669 583 l 669 547 l 613 550 l 610 550 q 575 524 588 550 l 282 -183 q 211 -299 249 -265 q 118 -332 174 -332 q 56 -315 82 -332 q 26 -264 29 -297 q 44 -210 26 -228 q 81 -193 61 -193 q 120 -208 108 -193 q 140 -237 132 -222 q 168 -251 149 -251 q 232 -187 207 -251 l 533 529 z "},"z":{"ha":613,"x_min":47,"x_max":553,"o":"m 425 549 l 257 549 q 92 389 117 549 l 63 389 l 75 586 q 117 585 79 586 q 208 583 156 583 l 279 583 l 539 583 l 539 557 l 182 11 l 171 35 l 344 35 q 524 193 524 35 l 553 193 l 553 0 l 264 0 l 192 0 q 99 -1 139 0 q 47 -3 60 -3 l 47 25 l 411 576 l 425 549 z "},"ź":{"ha":613,"x_min":47,"x_max":553,"o":"m 425 549 l 257 549 q 92 389 117 549 l 63 389 l 75 586 q 117 585 79 586 q 208 583 156 583 l 279 583 l 539 583 l 539 557 l 182 11 l 171 35 l 344 35 q 524 193 524 35 l 553 193 l 553 0 l 264 0 l 192 0 q 99 -1 139 0 q 47 -3 60 -3 l 47 25 l 411 576 l 425 549 m 497 871 q 483 853 497 864 l 257 697 q 244 690 253 694 q 229 685 236 685 q 211 696 211 685 q 219 710 211 701 q 236 728 228 718 l 368 872 q 418 907 399 907 q 470 893 443 907 q 497 871 497 879 z "},"ž":{"ha":613,"x_min":47,"x_max":553,"o":"m 425 549 l 257 549 q 92 389 117 549 l 63 389 l 75 586 q 117 585 79 586 q 208 583 156 583 l 279 583 l 539 583 l 539 557 l 182 11 l 171 35 l 344 35 q 524 193 524 35 l 553 193 l 553 0 l 264 0 l 192 0 q 99 -1 139 0 q 47 -3 60 -3 l 47 25 l 411 576 l 425 549 m 90 901 q 103 913 90 913 q 122 907 110 913 q 142 896 133 901 l 307 793 l 472 896 q 492 907 481 901 q 511 913 504 913 q 524 901 524 913 q 490 867 524 892 q 414 797 457 842 l 382 764 l 349 731 q 307 696 311 696 q 265 731 303 696 l 232 764 l 200 797 q 124 867 157 842 q 90 901 90 892 z "},"ż":{"ha":613,"x_min":47,"x_max":553,"o":"m 425 549 l 257 549 q 92 389 117 549 l 63 389 l 75 586 q 117 585 79 586 q 208 583 156 583 l 279 583 l 539 583 l 539 557 l 182 11 l 171 35 l 344 35 q 524 193 524 35 l 553 193 l 553 0 l 264 0 l 192 0 q 99 -1 139 0 q 47 -3 60 -3 l 47 25 l 411 576 l 425 549 m 232 826 q 253 875 232 856 q 307 894 275 894 q 360 875 338 894 q 382 826 382 856 q 360 778 382 796 q 307 760 339 760 q 253 778 275 760 q 232 826 232 796 z "},"ﬁ":{"ha":765,"x_min":49,"x_max":717,"o":"m 49 0 l 49 36 l 100 33 q 118 60 118 33 l 118 549 l 64 549 l 64 583 l 118 583 l 118 675 q 133 833 118 753 q 193 967 149 913 q 325 1022 238 1022 q 419 989 378 1022 q 460 907 460 956 q 444 860 460 881 q 393 839 428 839 q 358 849 371 839 q 344 879 344 858 q 351 908 344 896 q 357 940 357 921 q 347 972 357 958 q 315 985 336 985 q 256 954 283 985 q 228 818 228 924 q 232 724 228 781 q 236 624 236 667 l 236 583 l 385 583 l 385 549 l 238 549 l 238 60 q 256 33 238 33 l 347 36 l 347 0 l 49 0 m 649 583 l 649 60 q 667 33 649 33 l 717 36 l 717 0 l 460 0 l 460 36 l 511 33 q 529 60 529 33 l 529 522 q 513 550 529 546 l 461 547 l 461 583 l 649 583 m 579 893 q 634 876 613 893 q 656 828 656 858 q 634 778 656 796 q 579 761 613 761 q 526 778 547 761 q 504 828 504 796 q 526 876 504 858 q 579 893 547 893 z "},"ﬂ":{"ha":765,"x_min":49,"x_max":717,"o":"m 460 0 l 460 36 l 511 33 q 529 60 529 38 l 529 954 q 513 983 529 978 l 472 981 l 472 1015 l 649 1015 l 649 60 q 667 33 649 33 l 717 36 l 717 0 l 460 0 m 49 0 l 49 36 l 100 33 q 118 60 118 33 l 118 549 l 64 549 l 64 583 l 118 583 l 118 675 q 133 833 118 753 q 193 967 149 913 q 325 1022 238 1022 q 419 989 378 1022 q 460 907 460 956 q 444 860 460 881 q 393 839 428 839 q 358 849 371 839 q 344 879 344 858 q 351 908 344 896 q 357 940 357 921 q 347 972 357 958 q 315 985 336 985 q 256 954 283 985 q 228 818 228 924 q 232 724 228 781 q 236 624 236 667 l 236 583 l 385 583 l 385 549 l 238 549 l 238 60 q 256 33 238 33 l 347 36 l 347 0 l 49 0 z "},"ª":{"ha":486,"x_min":61,"x_max":425,"o":"m 61 571 q 116 669 61 638 q 292 701 171 701 l 292 753 q 219 822 292 822 q 171 813 179 822 q 163 775 163 803 q 152 745 163 756 q 121 735 142 735 q 88 746 99 735 q 76 779 76 757 q 219 854 76 854 q 375 732 375 854 l 375 528 q 383 518 375 518 l 425 519 l 425 486 l 293 486 l 297 551 q 252 494 282 513 q 178 475 222 475 q 61 571 61 475 m 149 578 q 201 518 149 518 q 265 552 238 518 q 292 635 292 586 l 292 669 q 183 647 217 669 q 149 578 149 625 z "},"º":{"ha":488,"x_min":61,"x_max":426,"o":"m 61 667 q 110 808 61 757 q 243 858 158 858 q 376 809 326 858 q 426 667 426 760 q 378 528 426 578 q 243 478 331 478 q 106 533 150 478 q 61 667 61 588 m 160 667 q 175 548 160 585 q 243 511 190 511 q 308 541 289 511 q 328 667 328 571 q 310 790 328 756 q 243 825 293 825 q 176 788 193 825 q 160 667 160 751 z "},"Δ":{"ha":835,"x_min":38,"x_max":781,"o":"m 38 0 l 392 843 l 428 843 l 781 0 l 38 0 m 86 21 l 75 39 l 647 39 l 635 19 l 347 708 l 372 708 l 86 21 z "},"Ω":{"ha":931,"x_min":39,"x_max":892,"o":"m 892 193 q 874 83 883 146 q 864 -4 864 21 q 815 -1 853 -1 q 721 0 776 0 l 553 0 l 550 7 q 664 196 615 92 q 713 485 713 300 q 652 732 713 658 q 465 806 592 806 q 278 732 339 806 q 218 485 218 658 q 267 196 218 300 q 381 7 315 92 l 378 0 l 210 0 q 116 -1 154 0 q 67 -4 78 -1 q 57 83 67 21 q 39 193 47 146 l 82 193 q 210 76 96 76 l 318 76 l 318 47 q 199 178 253 119 q 115 308 146 238 q 85 485 85 379 q 184 739 85 635 q 465 843 283 843 q 747 739 647 843 q 846 485 846 635 q 815 308 846 379 q 731 178 785 238 q 613 47 678 119 l 613 76 l 721 76 q 849 193 835 76 l 892 193 z "},"μ":{"ha":744,"x_min":28,"x_max":696,"o":"m 628 583 l 628 60 q 646 33 628 33 l 696 36 l 696 0 l 499 0 q 507 101 507 22 l 507 121 q 433 24 483 63 q 311 -14 383 -14 q 258 -3 288 -14 q 221 24 229 7 l 229 31 l 229 -271 q 234 -288 229 -282 q 249 -297 239 -294 l 313 -296 l 313 -332 l 28 -332 l 28 -296 l 92 -297 q 113 -271 108 -296 l 113 524 q 94 550 113 550 l 44 547 l 44 583 l 232 583 l 232 206 q 247 75 232 118 q 317 32 263 32 q 454 101 401 32 q 507 293 507 171 l 507 521 q 490 550 507 550 l 425 547 l 425 583 l 628 583 z "},"π":{"ha":844,"x_min":47,"x_max":824,"o":"m 824 636 q 804 561 808 589 q 800 517 800 533 l 800 490 q 758 493 783 493 l 696 493 q 488 500 610 493 q 258 507 367 507 q 154 491 197 507 q 81 431 111 475 l 56 447 q 157 567 97 536 q 278 597 217 597 q 435 594 350 597 q 594 587 519 590 q 713 583 669 583 q 764 597 750 583 q 788 643 778 611 l 824 636 m 649 507 q 638 328 643 417 q 633 175 633 239 q 643 71 633 110 q 688 32 653 32 q 732 48 711 32 q 768 88 753 64 l 792 69 q 656 -8 744 -8 q 536 42 558 -8 q 514 157 514 93 q 526 343 514 242 q 546 507 539 444 l 649 507 m 335 525 q 317 372 331 464 q 288 200 303 279 q 260 111 278 161 q 208 24 242 61 q 117 -14 174 -14 q 69 1 92 -14 q 47 51 47 15 q 62 99 47 81 q 100 117 76 117 q 134 109 121 117 q 169 101 147 101 q 220 142 206 101 q 242 213 235 183 q 270 377 257 288 q 289 525 283 467 l 335 525 z "},"¹":{"ha":260,"x_min":32,"x_max":238,"o":"m 190 947 l 190 601 q 201 589 190 589 l 238 589 l 238 560 l 46 560 l 46 589 l 82 589 q 94 601 94 589 l 94 851 q 82 861 94 867 l 40 850 l 32 882 q 114 910 79 892 q 175 947 149 929 l 190 947 z "},"²":{"ha":364,"x_min":35,"x_max":335,"o":"m 307 667 l 335 667 q 324 603 328 638 q 321 557 321 569 q 303 559 317 558 q 278 560 289 560 l 40 560 l 38 621 l 118 685 q 203 769 181 736 q 226 851 226 803 q 174 917 226 917 q 129 886 129 917 q 133 866 129 876 q 136 846 136 856 q 122 819 136 828 q 88 810 107 810 q 48 825 61 810 q 35 860 35 840 q 72 917 35 893 q 178 942 110 942 q 286 917 242 942 q 331 843 331 893 q 301 769 331 800 q 175 678 272 738 l 68 613 l 68 631 l 229 631 q 307 667 300 631 z "},"³":{"ha":347,"x_min":13,"x_max":339,"o":"m 93 746 l 93 768 q 174 792 136 768 q 211 863 211 815 q 160 917 211 917 q 117 886 117 917 q 119 872 117 878 q 122 856 122 865 q 107 828 122 836 q 74 819 92 819 q 35 834 47 819 q 22 865 22 849 q 68 922 22 903 q 169 942 114 942 q 272 922 228 942 q 315 860 315 901 q 276 794 315 819 q 179 764 236 769 l 179 760 q 339 665 339 757 q 288 583 339 614 q 160 551 236 551 q 56 573 99 551 q 13 629 13 594 q 26 661 13 647 q 65 675 39 675 q 113 638 113 675 q 110 622 113 631 q 107 608 107 614 q 124 584 107 590 q 158 578 140 578 q 236 660 236 578 q 204 721 236 703 q 93 746 172 739 z "},"⁄":{"ha":193,"x_min":-199,"x_max":443,"o":"m -199 7 l 396 840 l 443 813 l -153 -25 l -199 7 z "},"½":{"ha":806,"x_min":71,"x_max":768,"o":"m 71 7 l 665 840 l 713 813 l 117 -25 l 71 7 m 231 849 l 231 503 q 242 490 231 490 l 278 490 l 278 461 l 86 461 l 86 490 l 122 490 q 135 503 135 490 l 135 753 q 122 763 135 768 l 81 751 l 72 783 q 154 812 119 793 q 215 849 189 831 l 231 849 m 740 107 l 768 107 q 758 44 761 78 q 754 -3 754 10 q 736 -1 750 -1 q 711 0 722 0 l 474 0 l 471 61 l 551 125 q 637 210 614 176 q 660 292 660 243 q 607 357 660 357 q 563 326 563 357 q 566 306 563 317 q 569 286 569 296 q 555 259 569 268 q 521 250 540 250 q 481 265 494 250 q 468 300 468 281 q 506 358 468 333 q 611 382 543 382 q 719 358 675 382 q 764 283 764 333 q 735 209 764 240 q 608 118 706 178 l 501 53 l 501 71 l 663 71 q 740 107 733 71 z "},"¼":{"ha":776,"x_min":71,"x_max":721,"o":"m 399 90 l 399 136 l 625 381 l 671 381 l 671 142 l 721 142 l 721 90 l 671 90 l 671 42 q 683 29 671 29 l 711 29 l 711 0 l 517 0 l 517 29 l 563 29 q 575 42 575 29 l 575 90 l 399 90 m 432 122 l 422 142 l 575 142 l 575 300 l 592 293 l 432 122 m 71 7 l 665 840 l 713 813 l 117 -25 l 71 7 m 231 849 l 231 503 q 242 490 231 490 l 278 490 l 278 461 l 86 461 l 86 490 l 122 490 q 135 503 135 490 l 135 753 q 122 763 135 768 l 81 751 l 72 783 q 154 812 119 793 q 215 849 189 831 l 231 849 z "},"¾":{"ha":776,"x_min":46,"x_max":735,"o":"m 413 90 l 413 136 l 639 381 l 685 381 l 685 142 l 735 142 l 735 90 l 685 90 l 685 42 q 697 29 685 29 l 725 29 l 725 0 l 531 0 l 531 29 l 576 29 q 589 42 589 29 l 589 90 l 413 90 m 446 122 l 436 142 l 589 142 l 589 300 l 606 293 l 446 122 m 85 7 l 679 840 l 726 813 l 131 -25 l 85 7 m 126 647 l 126 669 q 207 693 169 669 q 244 764 244 717 q 193 818 244 818 q 150 788 150 818 q 153 773 150 779 q 156 757 156 767 q 140 729 156 738 q 107 721 125 721 q 68 735 81 721 q 56 767 56 750 q 101 824 56 804 q 203 843 147 843 q 305 823 261 843 q 349 761 349 803 q 309 697 349 721 q 213 665 269 672 l 213 661 q 372 567 372 658 q 321 484 372 515 q 193 453 269 453 q 89 474 132 453 q 46 531 46 494 q 59 563 46 550 q 99 576 72 576 q 146 539 146 576 q 143 525 146 533 q 140 510 140 517 q 157 485 140 492 q 192 479 174 479 q 269 561 269 479 q 238 622 269 604 q 126 647 206 640 z "},"*":{"ha":469,"x_min":28,"x_max":442,"o":"m 396 736 q 442 683 442 736 q 396 631 442 631 q 368 647 369 631 q 319 664 367 664 q 281 656 300 664 q 294 619 282 639 q 333 585 318 578 q 361 571 347 593 q 371 542 371 551 q 339 504 371 522 q 303 492 317 492 q 269 518 286 492 q 265 532 265 526 q 272 556 265 544 q 260 600 279 567 q 248 617 254 611 q 235 629 242 624 q 222 617 228 624 q 210 600 215 611 q 197 563 197 576 q 203 540 197 547 q 200 518 208 533 q 167 492 183 492 q 132 504 153 492 q 99 542 99 522 q 108 571 99 551 q 137 585 122 593 q 175 619 151 578 q 188 657 185 636 q 150 664 171 664 q 101 647 103 664 q 74 631 100 631 q 28 683 28 631 q 74 736 28 736 q 101 719 100 736 q 150 703 103 703 q 189 711 169 703 q 175 747 188 728 q 137 781 151 789 q 108 796 122 774 q 99 825 99 815 q 132 863 99 844 q 167 875 153 875 q 200 849 183 875 q 204 835 204 840 q 197 811 204 822 q 210 767 190 800 q 222 749 215 756 q 235 738 228 743 q 248 749 242 743 q 260 767 254 756 q 272 804 272 790 q 267 826 272 819 q 269 849 261 833 q 303 875 286 875 q 338 863 317 875 q 371 825 371 844 q 361 796 371 815 q 333 781 347 774 q 294 747 318 789 q 282 710 285 731 q 319 703 299 703 q 368 719 367 703 q 396 736 369 736 z "},"\\":{"ha":344,"x_min":-11,"x_max":347,"o":"m -11 869 l 43 882 l 347 8 l 292 -7 l -11 869 z "},"·":{"ha":347,"x_min":83,"x_max":264,"o":"m 83 256 q 109 314 83 292 q 174 336 135 336 q 238 315 213 336 q 264 256 264 293 q 238 198 264 219 q 174 176 213 176 q 109 198 135 176 q 83 256 83 219 z "},"•":{"ha":651,"x_min":146,"x_max":503,"o":"m 146 343 q 198 460 146 415 q 325 504 250 504 q 451 460 400 504 q 503 343 503 415 q 451 226 503 271 q 325 182 399 182 q 196 227 246 182 q 146 343 146 272 z "},":":{"ha":347,"x_min":83,"x_max":264,"o":"m 83 65 q 109 124 83 101 q 174 146 135 146 q 238 124 213 146 q 264 65 264 103 q 238 8 264 29 q 174 -14 213 -14 q 109 8 135 -14 q 83 65 83 29 m 83 479 q 109 538 83 515 q 174 560 135 560 q 238 538 213 560 q 264 479 264 517 q 238 422 264 443 q 174 400 213 400 q 109 422 135 400 q 83 479 83 443 z "},",":{"ha":347,"x_min":83,"x_max":263,"o":"m 83 -207 q 147 -129 115 -176 q 179 -47 179 -82 q 129 -7 179 -7 q 93 14 101 -7 q 85 53 85 35 q 109 104 85 82 q 165 126 133 126 q 238 97 214 126 q 263 11 263 67 q 209 -129 263 -67 q 110 -222 156 -192 l 83 -207 z "},"…":{"ha":958,"x_min":83,"x_max":875,"o":"m 83 65 q 109 124 83 101 q 174 146 135 146 q 238 124 213 146 q 264 65 264 103 q 238 8 264 29 q 174 -14 213 -14 q 109 8 135 -14 q 83 65 83 29 m 389 65 q 415 124 389 101 q 479 146 440 146 q 544 124 518 146 q 569 65 569 103 q 544 8 569 29 q 479 -14 518 -14 q 415 8 440 -14 q 389 65 389 29 m 694 65 q 720 124 694 101 q 785 146 746 146 q 849 124 824 146 q 875 65 875 103 q 849 8 875 29 q 785 -14 824 -14 q 720 8 746 -14 q 694 65 694 29 z "},"!":{"ha":374,"x_min":125,"x_max":304,"o":"m 214 885 q 272 863 253 885 q 290 810 290 842 q 282 722 290 778 l 264 594 q 242 451 254 526 q 231 301 231 376 q 215 279 231 279 q 199 301 199 279 q 187 451 199 376 q 165 594 175 526 l 147 722 q 139 810 139 778 q 158 863 139 842 q 214 885 176 885 m 215 146 q 278 122 253 146 q 304 65 304 99 q 277 10 304 33 q 214 -14 250 -14 q 152 10 179 -14 q 125 67 125 33 q 151 123 125 100 q 215 146 178 146 z "},"¡":{"ha":374,"x_min":69,"x_max":249,"o":"m 160 325 q 175 303 175 325 q 188 75 175 192 q 215 -135 201 -42 q 228 -268 228 -228 q 210 -318 228 -300 q 158 -336 192 -336 q 108 -318 126 -336 q 90 -268 90 -300 q 103 -136 90 -229 q 130 74 117 -43 q 143 303 143 192 q 160 325 143 325 m 158 618 q 222 594 194 618 q 249 539 249 571 q 223 482 249 506 q 160 458 197 458 q 96 481 122 458 q 69 538 69 504 q 97 594 69 571 q 158 618 124 618 z "},"#":{"ha":701,"x_min":25,"x_max":676,"o":"m 25 269 l 40 325 l 178 325 l 250 563 l 111 563 l 126 618 l 265 618 l 347 888 l 403 888 l 321 618 l 479 618 l 561 888 l 617 888 l 536 618 l 676 618 l 661 563 l 519 563 l 449 325 l 589 325 l 572 269 l 432 269 l 347 -12 l 292 -12 l 376 269 l 218 269 l 133 -12 l 78 -12 l 163 269 l 25 269 m 233 325 l 393 325 l 464 563 l 306 563 l 233 325 z "},".":{"ha":347,"x_min":83,"x_max":264,"o":"m 83 65 q 109 124 83 101 q 174 146 135 146 q 238 124 213 146 q 264 65 264 103 q 238 8 264 29 q 174 -14 213 -14 q 109 8 135 -14 q 83 65 83 29 z "},"?":{"ha":556,"x_min":28,"x_max":506,"o":"m 301 304 q 206 359 260 315 q 151 454 151 403 q 186 535 151 493 q 265 621 221 578 q 344 708 310 664 q 379 796 379 751 q 347 863 379 833 q 246 893 314 893 q 167 878 203 893 q 131 835 131 864 q 137 811 131 821 q 143 786 143 801 q 127 756 143 764 q 93 747 111 747 q 42 769 57 747 q 28 813 28 790 q 103 901 28 872 q 268 931 179 931 q 440 891 375 931 q 506 779 506 851 q 467 678 506 721 q 379 597 429 635 q 291 520 329 560 q 253 431 253 481 q 318 331 253 367 l 301 304 m 251 -14 q 190 5 219 -14 q 160 63 160 24 q 185 121 160 96 q 250 146 211 146 q 312 126 283 146 q 340 67 340 107 q 313 7 340 28 q 251 -14 286 -14 z "},"¿":{"ha":556,"x_min":50,"x_max":528,"o":"m 254 300 q 350 245 296 289 q 404 150 404 201 q 369 69 404 111 q 290 -17 335 26 q 211 -103 246 -60 q 176 -192 176 -147 q 209 -259 176 -229 q 310 -289 242 -289 q 389 -274 353 -289 q 425 -231 425 -260 q 419 -207 425 -217 q 413 -182 413 -197 q 428 -151 413 -160 q 463 -143 444 -143 q 513 -165 499 -143 q 528 -208 528 -186 q 452 -297 528 -268 q 288 -326 376 -326 q 115 -287 181 -326 q 50 -175 50 -247 q 88 -74 50 -117 q 176 7 126 -31 q 265 84 226 44 q 303 174 303 124 q 238 274 303 238 l 254 300 m 304 618 q 366 599 336 618 q 396 542 396 581 q 370 483 396 508 q 306 458 344 458 q 244 478 272 458 q 215 538 215 497 q 242 597 215 576 q 304 618 269 618 z "},"\"":{"ha":350,"x_min":47,"x_max":303,"o":"m 47 833 q 93 889 47 889 q 139 833 139 889 q 132 758 139 814 q 118 651 125 703 q 111 592 111 600 q 93 568 111 568 q 75 592 75 568 q 68 651 75 600 q 54 758 61 703 q 47 833 47 814 m 211 833 q 257 889 211 889 q 303 833 303 889 q 296 758 303 814 q 282 651 289 703 q 275 592 275 600 q 257 568 275 568 q 239 592 239 568 q 232 651 239 600 q 218 758 225 703 q 211 833 211 814 z "},"'":{"ha":185,"x_min":47,"x_max":139,"o":"m 47 833 q 93 889 47 889 q 139 833 139 889 q 132 758 139 814 q 118 651 125 703 q 111 592 111 600 q 93 568 111 568 q 75 592 75 568 q 68 651 75 600 q 54 758 61 703 q 47 833 47 814 z "},";":{"ha":347,"x_min":75,"x_max":265,"o":"m 86 -207 q 150 -129 118 -176 q 182 -47 182 -82 q 132 -7 182 -7 q 96 14 104 -7 q 88 53 88 35 q 112 104 88 82 q 168 126 136 126 q 241 97 217 126 q 265 11 265 67 q 212 -129 265 -67 q 113 -222 158 -192 l 86 -207 m 75 479 q 101 538 75 515 q 165 560 126 560 q 230 538 204 560 q 256 479 256 517 q 230 422 256 443 q 165 400 204 400 q 101 422 126 400 q 75 479 75 443 z "},"/":{"ha":343,"x_min":-7,"x_max":350,"o":"m -7 8 l 297 882 l 350 869 l 47 -7 l -7 8 z "},"_":{"ha":685,"x_min":0,"x_max":685,"o":"m 0 -199 l 685 -199 l 685 -254 l 0 -254 l 0 -199 z "},"{":{"ha":389,"x_min":42,"x_max":326,"o":"m 42 357 l 42 385 q 119 417 97 393 q 142 497 142 442 l 142 808 q 170 910 142 883 q 279 938 199 938 l 326 938 l 326 896 l 289 896 q 235 818 235 896 l 235 497 q 207 409 235 433 q 101 371 179 385 q 207 331 179 354 q 235 244 235 308 l 235 -83 q 289 -161 235 -161 l 326 -161 l 326 -203 l 279 -203 q 169 -176 196 -203 q 142 -74 142 -149 l 142 244 q 122 326 142 308 q 42 357 103 343 z "},"}":{"ha":403,"x_min":76,"x_max":361,"o":"m 361 357 l 361 385 q 283 417 306 393 q 261 497 261 442 l 261 808 q 233 910 261 883 q 124 938 204 938 l 76 938 l 76 896 l 114 896 q 168 818 168 896 l 168 497 q 196 409 168 433 q 301 371 224 385 q 196 331 224 354 q 168 244 168 308 l 168 -83 q 114 -161 168 -161 l 76 -161 l 76 -203 l 124 -203 q 234 -176 207 -203 q 261 -74 261 -149 l 261 244 q 281 326 261 308 q 361 357 300 343 z "},"[":{"ha":356,"x_min":64,"x_max":310,"o":"m 64 -204 l 64 938 l 310 938 l 310 900 l 165 900 l 165 -167 l 310 -167 l 310 -204 l 64 -204 z "},"]":{"ha":356,"x_min":47,"x_max":293,"o":"m 293 -204 l 293 938 l 47 938 l 47 900 l 192 900 l 192 -167 l 47 -167 l 47 -204 l 293 -204 z "},"(":{"ha":353,"x_min":25,"x_max":353,"o":"m 25 333 q 59 570 25 456 q 153 789 93 685 q 293 988 214 893 l 353 988 q 245 790 289 908 q 178 549 201 671 q 156 333 156 426 q 178 118 156 240 q 245 -123 201 -4 q 353 -321 289 -242 l 293 -321 q 153 -122 214 -226 q 59 97 93 -18 q 25 333 25 211 z "},")":{"ha":353,"x_min":0,"x_max":328,"o":"m 328 333 q 294 570 328 456 q 199 789 260 685 q 60 988 139 893 l 0 988 q 108 790 64 908 q 174 549 151 671 q 197 333 197 426 q 174 118 197 240 q 108 -123 151 -4 q 0 -321 64 -242 l 60 -321 q 199 -122 139 -226 q 294 97 260 -18 q 328 333 328 211 z "},"—":{"ha":1103,"x_min":0,"x_max":1103,"o":"m 0 265 l 0 319 l 1103 319 l 1103 265 l 0 265 z "},"–":{"ha":663,"x_min":25,"x_max":638,"o":"m 25 265 l 25 319 l 638 319 l 638 265 l 25 265 z "},"-":{"ha":347,"x_min":31,"x_max":317,"o":"m 31 263 l 31 339 l 317 339 l 317 263 l 31 263 z "},"­":{"ha":347,"x_min":31,"x_max":317,"o":"m 31 263 l 31 339 l 317 339 l 317 263 l 31 263 z "},"«":{"ha":594,"x_min":35,"x_max":525,"o":"m 268 260 l 475 497 l 525 497 l 389 260 l 525 22 l 475 22 l 268 260 m 35 260 l 242 497 l 292 497 l 156 260 l 292 22 l 242 22 l 35 260 z "},"»":{"ha":601,"x_min":69,"x_max":565,"o":"m 565 260 l 358 497 l 308 497 l 444 260 l 308 22 l 358 22 l 565 260 m 326 260 l 119 497 l 69 497 l 206 260 l 69 22 l 119 22 l 326 260 z "},"‹":{"ha":363,"x_min":36,"x_max":293,"o":"m 36 260 l 243 497 l 293 497 l 157 260 l 293 22 l 243 22 l 36 260 z "},"›":{"ha":361,"x_min":69,"x_max":326,"o":"m 326 260 l 119 497 l 69 497 l 206 260 l 69 22 l 119 22 l 326 260 z "},"„":{"ha":617,"x_min":142,"x_max":571,"o":"m 142 -207 q 206 -129 174 -176 q 238 -47 238 -82 q 188 -7 238 -7 q 151 14 160 -7 q 143 53 143 35 q 167 104 143 82 q 224 126 192 126 q 297 97 272 126 q 321 11 321 67 q 267 -128 321 -65 q 168 -222 214 -190 l 142 -207 m 392 -207 q 456 -129 424 -176 q 488 -47 488 -82 q 438 -7 488 -7 q 401 14 410 -7 q 393 53 393 35 q 417 104 393 82 q 474 126 442 126 q 547 97 522 126 q 571 11 571 67 q 517 -128 571 -65 q 418 -222 464 -190 l 392 -207 z "},"“":{"ha":536,"x_min":38,"x_max":447,"o":"z "},"”":{"ha":536,"x_min":89,"x_max":499,"o":"m 89 542 q 153 619 121 572 q 185 701 185 667 q 135 742 185 742 q 99 763 107 742 q 90 801 90 783 q 115 853 90 831 q 171 875 139 875 q 244 845 219 875 q 268 760 268 815 q 215 621 268 683 q 115 526 161 558 l 89 542 m 319 542 q 383 619 351 572 q 415 701 415 667 q 365 742 415 742 q 329 763 338 742 q 321 801 321 783 q 345 853 321 831 q 401 875 369 875 q 474 845 450 875 q 499 760 499 815 q 445 621 499 683 q 346 526 392 558 l 319 542 z "},"‘":{"ha":306,"x_min":38,"x_max":217,"o":"m 217 881 q 153 803 185 850 q 121 721 121 756 q 171 681 121 681 q 207 660 199 681 q 215 621 215 639 q 191 569 215 592 q 135 547 167 547 q 62 577 86 547 q 38 663 38 607 q 91 801 38 739 q 190 896 144 864 l 217 881 z "},"’":{"ha":306,"x_min":89,"x_max":268,"o":"m 89 542 q 153 619 121 572 q 185 701 185 667 q 135 742 185 742 q 99 763 107 742 q 90 801 90 783 q 115 853 90 831 q 171 875 139 875 q 244 845 219 875 q 268 760 268 815 q 215 621 268 683 q 115 526 161 558 l 89 542 z "},"‚":{"ha":367,"x_min":142,"x_max":321,"o":"m 142 -207 q 206 -129 174 -176 q 238 -47 238 -82 q 188 -7 238 -7 q 151 14 160 -7 q 143 53 143 35 q 167 104 143 82 q 224 126 192 126 q 297 97 272 126 q 321 11 321 67 q 267 -128 321 -65 q 168 -222 214 -190 l 142 -207 z "}," ":{"ha":306,"x_min":0,"x_max":0,"o":""}," ":{"ha":306,"x_min":0,"x_max":0,"o":""},"¢":{"ha":547,"x_min":58,"x_max":497,"o":"m 338 175 l 338 -132 l 286 -132 l 286 172 l 338 175 m 286 636 l 286 899 l 338 899 l 338 632 l 286 636 m 294 649 q 426 615 372 649 q 481 533 481 582 q 467 492 481 511 q 419 472 453 472 q 383 482 397 472 q 369 513 369 492 q 375 536 369 526 q 381 561 381 546 q 356 602 381 589 q 300 615 331 615 q 217 573 249 615 q 186 414 186 531 q 219 244 186 294 q 314 194 253 194 q 406 221 363 194 q 467 308 449 247 l 497 290 q 424 192 475 225 q 299 160 374 160 q 174 186 228 160 q 89 266 119 213 q 58 400 58 319 q 125 584 58 519 q 294 649 192 649 z "},"¤":{"ha":615,"x_min":58,"x_max":558,"o":"m 133 510 l 60 583 l 92 615 l 165 542 l 133 510 m 115 368 q 172 231 115 288 q 308 175 228 175 q 445 231 389 175 q 501 368 501 288 q 445 503 501 446 q 308 560 389 560 q 172 503 228 560 q 115 368 115 446 m 167 193 l 90 117 l 58 149 l 135 225 l 167 193 m 453 540 l 526 614 l 558 582 l 483 508 l 453 540 m 482 224 l 557 147 l 525 115 l 450 192 l 482 224 m 308 131 q 141 201 210 131 q 72 368 72 272 q 143 538 72 471 q 308 604 214 604 q 478 533 410 604 q 546 368 546 463 q 474 197 546 263 q 308 131 403 131 z "},"$":{"ha":621,"x_min":115,"x_max":506,"o":"m 338 179 l 338 -132 l 286 -132 l 286 179 l 338 179 m 286 642 l 286 899 l 338 899 l 338 636 l 286 642 m 115 188 l 121 335 l 154 336 q 203 237 154 275 q 319 199 253 199 q 410 275 410 199 q 332 349 410 331 l 235 375 q 152 424 181 389 q 124 508 124 458 q 170 613 124 572 q 303 654 217 654 q 383 642 350 654 q 444 629 415 629 q 478 639 461 629 l 471 513 l 442 513 q 408 587 442 553 q 308 621 374 621 q 222 551 222 621 q 290 485 222 501 l 386 460 q 481 406 457 442 q 506 322 506 371 q 451 206 506 246 q 311 165 396 165 q 260 170 286 165 q 181 190 233 175 q 149 194 160 194 q 115 188 126 194 z "},"€":{"ha":647,"x_min":3,"x_max":642,"o":"m 397 843 q 491 828 456 843 q 557 799 526 814 q 629 783 588 783 q 625 732 626 760 q 624 679 624 704 q 629 601 624 607 l 596 601 q 526 747 582 686 q 401 808 471 808 q 257 699 310 808 q 204 410 204 589 q 260 131 204 239 q 408 24 315 24 q 535 83 481 24 q 603 232 589 143 l 642 232 q 635 160 636 192 q 633 114 633 128 q 638 49 633 74 l 629 49 q 525 17 586 49 q 392 -14 464 -14 q 151 99 239 -14 q 63 410 63 213 q 151 729 63 615 q 397 843 240 843 m 532 358 l 518 301 l 3 301 l 17 358 l 532 358 m 532 517 l 518 460 l 3 460 l 17 517 l 532 517 z "},"ƒ":{"ha":625,"x_min":-185,"x_max":639,"o":"m 253 121 q 203 -33 239 57 q 106 -192 168 -124 q -49 -261 44 -261 q -143 -236 -101 -261 q -185 -168 -185 -211 q -170 -126 -185 -146 q -122 -107 -156 -107 q -87 -115 -103 -107 q -71 -146 -71 -124 q -75 -168 -71 -158 q -79 -189 -79 -178 q -35 -224 -79 -224 q 48 -159 17 -224 q 102 15 79 -94 q 156 256 125 124 l 233 603 q 314 762 251 681 q 489 843 376 843 q 594 817 549 843 q 639 742 639 790 q 624 696 639 718 q 574 674 610 674 q 540 682 556 674 q 524 713 524 690 q 530 738 524 728 q 536 763 536 747 q 525 792 536 778 q 488 806 514 806 q 406 749 439 806 q 342 549 372 693 l 253 121 m 67 463 l 104 506 l 471 506 l 471 485 l 431 463 l 67 463 z "},"£":{"ha":704,"x_min":39,"x_max":644,"o":"m 50 425 l 50 457 l 460 457 l 460 425 l 50 425 m 406 843 q 529 808 479 843 q 579 722 579 774 q 562 683 579 700 q 522 667 544 667 q 483 681 501 667 q 465 714 465 694 q 471 738 465 728 q 476 760 476 749 q 397 811 476 811 q 306 775 342 811 q 271 676 271 739 q 283 575 271 650 q 294 440 294 500 l 294 314 q 260 176 294 238 q 188 82 225 114 l 154 101 l 428 101 q 574 128 538 101 q 610 233 610 156 l 644 233 l 631 -4 q 586 -3 613 -4 q 522 0 560 -1 l 167 0 q 101 -1 139 0 q 42 -4 63 -3 l 39 1 q 128 94 94 36 q 161 217 161 153 l 161 569 q 218 778 161 713 q 406 843 275 843 z "},"¥":{"ha":704,"x_min":-7,"x_max":718,"o":"m 442 474 l 618 474 l 618 433 l 442 433 l 442 474 m 275 433 l 122 433 l 122 474 l 275 474 l 275 433 m 122 281 l 122 321 l 618 321 l 618 281 l 122 281 m 435 429 l 435 67 q 463 38 435 38 l 529 40 l 529 0 l 211 0 l 211 40 l 279 38 q 306 68 306 38 l 306 365 l 65 764 q 32 790 51 790 q 27 790 32 790 q -7 788 22 789 l -7 829 l 300 829 l 300 788 l 226 790 q 210 780 211 792 q 217 757 210 768 l 414 429 l 435 429 m 401 429 l 589 763 q 592 781 593 771 q 579 790 592 790 l 507 788 l 507 829 l 718 829 l 718 788 q 681 790 686 789 q 676 790 676 790 q 638 761 654 790 l 429 389 l 401 429 z "},"∙":{"ha":319,"x_min":69,"x_max":250,"o":"m 69 256 q 95 314 69 292 q 160 336 121 336 q 224 315 199 336 q 250 256 250 293 q 224 198 250 219 q 160 176 199 176 q 95 198 121 176 q 69 256 69 219 z "},"∕":{"ha":193,"x_min":-199,"x_max":443,"o":"m -199 7 l 396 840 l 443 813 l -153 -25 l -199 7 z "},"+":{"ha":639,"x_min":28,"x_max":611,"o":"m 28 360 l 28 421 l 286 421 l 286 678 l 354 678 l 354 421 l 611 421 l 611 360 l 354 360 l 354 101 l 286 101 l 286 360 l 28 360 z "},"−":{"ha":639,"x_min":28,"x_max":611,"o":"m 28 361 l 28 418 l 611 418 l 611 361 l 28 361 z "},"×":{"ha":639,"x_min":89,"x_max":550,"o":"m 89 182 l 281 372 l 92 560 l 132 600 l 318 411 l 508 601 l 550 561 l 360 372 l 550 181 l 511 142 l 319 332 l 131 143 l 89 182 z "},"÷":{"ha":639,"x_min":26,"x_max":613,"o":"m 26 339 l 26 410 l 613 410 l 613 339 l 26 339 m 243 135 q 265 183 243 165 q 318 201 286 201 q 372 184 350 201 q 394 135 394 167 q 373 87 394 104 q 318 69 351 69 q 264 87 285 69 q 243 135 243 104 m 243 606 q 265 655 243 638 q 318 672 286 672 q 372 655 350 672 q 394 606 394 638 q 373 558 394 575 q 318 540 351 540 q 264 558 285 540 q 243 606 243 575 z "},"=":{"ha":639,"x_min":49,"x_max":590,"o":"m 49 143 l 49 203 l 590 203 l 590 143 l 49 143 m 49 419 l 49 479 l 590 479 l 590 419 l 49 419 z "},"≠":{"ha":639,"x_min":49,"x_max":590,"o":"m 175 8 l 392 629 l 444 617 l 229 -7 l 175 8 m 49 143 l 49 203 l 590 203 l 590 143 l 49 143 m 49 419 l 49 479 l 590 479 l 590 419 l 49 419 z "},">":{"ha":639,"x_min":75,"x_max":564,"o":"m 75 -7 l 75 60 l 431 275 l 490 303 l 431 332 l 75 546 l 75 614 l 564 321 l 564 288 l 75 -7 z "},"<":{"ha":639,"x_min":75,"x_max":564,"o":"m 564 613 l 564 546 l 208 331 l 149 303 l 208 274 l 564 60 l 564 -8 l 75 285 l 75 318 l 564 613 z "},"≥":{"ha":639,"x_min":75,"x_max":564,"o":"m 564 432 l 564 397 l 75 167 l 75 231 l 396 378 l 494 414 l 396 451 l 75 599 l 75 663 l 564 432 m 75 57 l 564 57 l 564 0 l 75 0 l 75 57 z "},"≤":{"ha":639,"x_min":75,"x_max":564,"o":"m 75 432 l 75 397 l 564 167 l 564 231 l 243 378 l 144 414 l 243 451 l 564 599 l 564 663 l 75 432 m 564 57 l 75 57 l 75 0 l 564 0 l 564 57 z "},"±":{"ha":639,"x_min":28,"x_max":611,"o":"m 28 0 l 28 57 l 611 57 l 611 0 l 28 0 m 28 381 l 28 438 l 288 438 l 288 703 l 350 703 l 350 438 l 611 438 l 611 381 l 350 381 l 350 111 l 288 111 l 288 381 l 28 381 z "},"≈":{"ha":639,"x_min":39,"x_max":604,"o":"m 39 426 q 107 503 69 478 q 190 528 144 528 q 320 483 251 528 q 446 438 389 438 q 507 455 481 438 q 565 519 533 472 l 604 479 q 446 371 539 371 q 317 416 386 371 q 190 461 247 461 q 132 447 156 461 q 76 386 108 433 l 39 426 m 39 149 q 190 250 99 250 q 320 205 251 250 q 446 160 389 160 q 507 177 481 160 q 565 242 533 194 l 604 201 q 446 93 539 93 q 317 138 386 93 q 190 183 247 183 q 132 169 156 183 q 76 108 108 156 l 39 149 z "},"~":{"ha":639,"x_min":31,"x_max":610,"o":"m 31 354 q 182 456 90 456 q 319 410 250 456 q 451 365 388 365 q 513 383 486 365 q 571 447 539 400 l 610 407 q 451 299 544 299 q 316 344 386 299 q 182 389 246 389 q 124 375 147 389 q 68 314 100 361 l 31 354 z "},"¬":{"ha":639,"x_min":28,"x_max":611,"o":"m 28 443 l 28 500 l 611 500 l 611 203 l 551 203 l 551 443 l 28 443 z "},"∞":{"ha":749,"x_min":0,"x_max":749,"o":"m 554 583 q 698 516 647 583 q 749 354 749 449 q 707 210 749 269 q 586 151 665 151 q 462 199 514 151 q 389 301 410 246 l 408 340 q 481 274 438 296 q 581 251 524 251 q 714 363 714 251 q 681 452 714 417 q 593 488 649 488 q 473 437 511 488 q 407 319 435 386 q 334 202 379 253 q 194 151 289 151 q 51 219 101 151 q 0 381 0 286 q 42 524 0 465 q 163 583 83 583 q 288 536 236 583 q 360 433 339 489 l 340 394 q 268 461 311 439 q 168 483 225 483 q 35 374 35 483 q 67 283 35 318 q 156 247 100 247 q 276 298 238 247 q 342 415 314 349 q 415 533 369 482 q 554 583 460 583 z "},"∫":{"ha":590,"x_min":71,"x_max":533,"o":"m 422 1082 q 500 1062 467 1082 q 533 1001 533 1042 q 518 960 533 979 q 467 940 503 940 q 428 953 436 940 q 421 983 421 967 q 419 1021 421 1003 q 389 1039 418 1039 q 348 977 360 1039 q 336 778 336 915 q 342 662 336 742 q 355 483 347 582 q 368 290 363 383 q 374 136 374 197 q 324 -124 374 -17 q 182 -232 275 -232 q 105 -212 139 -232 q 71 -151 71 -192 q 86 -110 71 -129 q 138 -90 101 -90 q 176 -103 169 -90 q 183 -133 183 -117 q 185 -171 183 -153 q 215 -189 186 -189 q 256 -127 244 -189 q 268 72 268 -65 q 263 172 268 97 q 249 347 257 247 q 236 544 242 446 q 231 714 231 643 q 279 974 231 867 q 422 1082 328 1082 z "},"Ω":{"ha":931,"x_min":39,"x_max":892,"o":"m 892 193 q 874 83 883 146 q 864 -4 864 21 q 815 -1 853 -1 q 721 0 776 0 l 553 0 l 550 7 q 664 196 615 92 q 713 485 713 300 q 652 732 713 658 q 465 806 592 806 q 278 732 339 806 q 218 485 218 658 q 267 196 218 300 q 381 7 315 92 l 378 0 l 210 0 q 116 -1 154 0 q 67 -4 78 -1 q 57 83 67 21 q 39 193 47 146 l 82 193 q 210 76 96 76 l 318 76 l 318 47 q 199 178 253 119 q 115 308 146 238 q 85 485 85 379 q 184 739 85 635 q 465 843 283 843 q 747 739 647 843 q 846 485 846 635 q 815 308 846 379 q 731 178 785 238 q 613 47 678 119 l 613 76 l 721 76 q 849 193 835 76 l 892 193 z "},"∆":{"ha":835,"x_min":38,"x_max":781,"o":"m 38 0 l 392 843 l 428 843 l 781 0 l 38 0 m 86 21 l 75 39 l 647 39 l 635 19 l 347 708 l 372 708 l 86 21 z "},"∏":{"ha":879,"x_min":69,"x_max":810,"o":"m 69 -111 l 69 -71 l 124 -74 q 150 -43 150 -74 l 150 761 q 124 790 150 792 l 69 788 l 69 829 l 810 829 l 810 788 l 756 790 q 729 761 729 792 l 729 -43 q 756 -74 729 -74 l 810 -71 l 810 -111 l 506 -111 l 506 -71 l 574 -74 q 600 -43 600 -74 l 600 786 l 279 786 l 279 -43 q 307 -74 279 -74 l 375 -71 l 375 -111 l 69 -111 z "},"∑":{"ha":711,"x_min":53,"x_max":660,"o":"m 67 797 l 67 829 l 492 829 q 585 830 547 829 q 635 833 624 831 q 640 751 635 813 q 649 650 644 690 l 606 650 q 569 759 599 728 q 478 790 539 790 l 204 790 l 67 797 m 133 -21 l 489 -21 q 580 6 550 -21 q 617 96 610 32 l 660 96 q 642 -21 651 49 q 632 -115 632 -90 q 583 -112 621 -112 q 492 -111 546 -111 l 53 -111 l 53 -76 l 133 -21 m 213 804 l 424 424 l 344 307 l 67 797 l 213 804 m 53 -76 l 354 413 l 424 424 l 140 -33 l 53 -76 z "},"√":{"ha":639,"x_min":14,"x_max":669,"o":"m 365 -132 l 122 485 l 242 496 l 419 15 l 365 -132 m 14 460 l 229 531 l 242 496 l 26 425 l 14 460 m 633 1092 l 669 1092 l 403 -132 l 365 -132 l 633 1092 z "},"µ":{"ha":744,"x_min":28,"x_max":696,"o":"m 628 583 l 628 60 q 646 33 628 33 l 696 36 l 696 0 l 499 0 q 507 101 507 22 l 507 121 q 433 24 483 63 q 311 -14 383 -14 q 258 -3 288 -14 q 221 24 229 7 l 229 31 l 229 -271 q 234 -288 229 -282 q 249 -297 239 -294 l 313 -296 l 313 -332 l 28 -332 l 28 -296 l 92 -297 q 113 -271 108 -296 l 113 524 q 94 550 113 550 l 44 547 l 44 583 l 232 583 l 232 206 q 247 75 232 118 q 317 32 263 32 q 454 101 401 32 q 507 293 507 171 l 507 521 q 490 550 507 550 l 425 547 l 425 583 l 628 583 z "},"∂":{"ha":647,"x_min":49,"x_max":589,"o":"m 535 324 l 485 304 q 332 400 440 400 q 217 347 265 400 q 169 196 169 293 q 200 71 169 119 q 282 22 231 22 q 374 76 338 22 q 430 208 410 129 q 458 365 450 286 q 467 496 467 444 q 421 718 467 633 q 294 803 375 803 q 235 788 263 803 q 207 746 207 774 q 213 719 207 731 q 219 694 219 708 q 204 666 219 675 q 171 657 189 657 q 124 673 144 657 q 104 721 104 689 q 171 810 104 781 q 304 840 238 840 q 508 743 426 840 q 589 458 589 646 q 578 326 589 406 q 538 169 568 247 q 451 38 508 90 q 301 -15 394 -15 q 192 6 251 -15 q 91 76 133 26 q 49 214 49 125 q 117 387 49 322 q 286 451 185 451 q 411 426 339 451 q 535 324 483 400 z "},"%":{"ha":794,"x_min":36,"x_max":758,"o":"m 407 179 q 453 318 407 263 q 583 374 499 374 q 714 317 669 374 q 758 179 758 261 q 715 42 758 99 q 583 -14 671 -14 q 451 44 494 -14 q 407 179 407 101 m 510 181 q 526 50 510 89 q 583 11 543 11 q 640 51 624 11 q 657 181 657 92 q 640 309 657 269 q 583 349 624 349 q 526 308 543 349 q 510 181 510 267 m 36 649 q 82 788 36 732 q 213 843 128 843 q 343 787 299 843 q 388 649 388 731 q 344 512 388 568 q 213 456 300 456 q 79 513 122 456 q 36 649 36 571 m 139 650 q 156 519 139 558 q 213 481 172 481 q 269 521 253 481 q 286 650 286 561 q 269 778 286 739 q 213 818 253 818 q 156 777 172 818 q 139 650 139 736 m 71 7 l 665 840 l 713 813 l 117 -25 l 71 7 z "},"‰":{"ha":1239,"x_min":36,"x_max":1203,"o":"m 407 179 q 453 318 407 263 q 583 374 499 374 q 714 317 669 374 q 758 179 758 261 q 715 42 758 99 q 583 -14 671 -14 q 451 44 494 -14 q 407 179 407 101 m 510 181 q 526 50 510 89 q 583 11 543 11 q 640 51 624 11 q 657 181 657 92 q 640 309 657 269 q 583 349 624 349 q 526 308 543 349 q 510 181 510 267 m 36 649 q 82 788 36 732 q 213 843 128 843 q 343 787 299 843 q 388 649 388 731 q 344 512 388 568 q 213 456 300 456 q 79 513 122 456 q 36 649 36 571 m 139 650 q 156 519 139 558 q 213 481 172 481 q 269 521 253 481 q 286 650 286 561 q 269 778 286 739 q 213 818 253 818 q 156 777 172 818 q 139 650 139 736 m 851 179 q 897 318 851 263 q 1028 374 943 374 q 1158 317 1114 374 q 1203 179 1203 261 q 1159 42 1203 99 q 1028 -14 1115 -14 q 895 44 939 -14 q 851 179 851 101 m 954 181 q 971 50 954 89 q 1028 11 988 11 q 1085 51 1068 11 q 1101 181 1101 92 q 1085 309 1101 269 q 1028 349 1068 349 q 971 308 988 349 q 954 181 954 267 m 71 7 l 665 840 l 713 813 l 117 -25 l 71 7 z "},"◊":{"ha":639,"x_min":13,"x_max":626,"o":"m 342 -110 l 303 -110 l 13 397 l 297 896 l 336 896 l 626 390 l 342 -110 m 350 24 l 557 390 l 346 763 l 318 822 l 289 763 l 82 396 l 293 24 l 321 -36 l 350 24 z "},"@":{"ha":1029,"x_min":36,"x_max":992,"o":"m 36 247 q 108 530 36 397 q 303 745 179 663 q 585 828 428 828 q 876 711 760 828 q 992 425 992 594 q 935 222 992 321 q 779 50 879 122 q 699 -1 728 11 q 638 -14 669 -14 q 611 2 618 -14 q 604 50 604 18 q 613 137 604 81 q 638 260 622 193 q 494 47 557 108 q 367 -14 432 -14 q 239 156 239 -14 q 290 355 239 253 q 426 527 342 457 q 610 597 511 597 q 658 584 640 597 q 689 543 675 571 l 696 571 l 824 594 l 792 458 q 751 260 769 354 q 733 128 733 165 q 751 104 733 104 q 835 151 789 104 q 915 272 881 199 q 949 424 949 344 q 844 680 949 572 q 585 788 739 788 q 324 703 429 788 q 167 493 219 619 q 114 240 114 367 q 227 -50 114 61 q 535 -161 340 -161 q 754 -120 658 -161 q 939 13 850 -79 l 964 -18 q 762 -160 867 -118 q 522 -201 657 -201 q 169 -81 301 -201 q 36 247 36 40 m 363 171 q 432 63 363 63 q 492 104 453 63 q 572 211 531 146 q 643 349 614 276 q 672 483 672 422 q 656 534 672 513 q 613 556 639 556 q 488 494 544 556 q 394 335 431 433 q 363 171 363 246 z "},"&":{"ha":847,"x_min":31,"x_max":868,"o":"m 300 -14 q 167 11 229 -14 q 68 88 106 36 q 31 218 31 139 q 90 371 31 308 q 285 511 149 433 l 304 478 q 189 363 224 425 q 154 231 154 301 q 203 85 154 140 q 332 29 253 29 q 494 100 425 29 q 602 274 564 171 q 640 472 640 378 q 621 517 640 517 l 557 514 l 557 554 l 767 554 l 767 514 l 703 517 q 685 486 686 517 q 664 351 681 435 q 607 184 647 268 q 493 43 567 100 q 300 -14 419 -14 m 636 0 l 257 513 q 204 597 225 554 q 183 683 183 639 q 240 798 183 754 q 376 842 296 842 q 496 802 456 842 q 536 710 536 763 q 494 607 536 653 q 386 525 453 561 l 367 557 q 463 628 431 590 q 494 708 494 667 q 465 775 494 751 q 392 799 436 799 q 319 778 347 799 q 290 722 290 757 q 315 651 290 690 q 368 572 339 611 l 749 54 q 790 36 763 36 l 868 39 l 868 0 l 636 0 z "},"¶":{"ha":693,"x_min":42,"x_max":664,"o":"m 42 614 q 115 771 42 713 q 317 829 188 829 l 664 829 l 664 786 l 524 786 l 524 -374 l 475 -374 l 475 786 l 418 786 q 365 733 365 786 l 365 -374 l 317 -374 l 317 400 q 115 456 188 400 q 42 614 42 511 z "},"§":{"ha":607,"x_min":49,"x_max":565,"o":"m 329 843 q 478 809 419 843 q 536 715 536 775 q 515 658 536 679 q 464 636 494 636 q 424 649 442 636 q 406 688 406 663 q 419 722 406 711 q 433 750 433 732 q 394 794 433 778 q 315 811 356 811 q 228 785 267 811 q 190 707 190 758 q 213 643 190 668 q 271 594 236 618 l 443 476 q 534 398 503 436 q 565 303 565 360 q 531 203 565 243 q 429 143 497 164 l 399 165 q 475 253 475 194 q 463 295 475 275 q 415 340 451 315 l 238 463 q 121 563 156 519 q 86 661 86 607 q 153 792 86 742 q 329 843 219 843 m 185 513 l 215 490 q 139 403 139 461 q 151 360 139 381 q 199 315 163 340 l 376 193 q 493 92 458 136 q 528 -6 528 49 q 461 -137 528 -86 q 285 -187 394 -187 q 136 -153 194 -187 q 78 -60 78 -119 q 99 -2 78 -24 q 150 19 119 19 q 190 6 172 19 q 208 -32 208 -7 q 194 -66 208 -56 q 181 -94 181 -76 q 219 -139 181 -122 q 299 -156 258 -156 q 385 -129 347 -156 q 424 -51 424 -103 q 401 13 424 -12 q 343 61 378 38 l 171 179 q 80 258 111 219 q 49 353 49 296 q 83 452 49 413 q 185 513 117 492 z "},"©":{"ha":1004,"x_min":74,"x_max":931,"o":"m 74 414 q 131 629 74 532 q 285 785 188 726 q 501 843 382 843 q 717 785 619 843 q 872 629 814 726 q 931 414 931 532 q 872 197 931 294 q 717 43 814 100 q 501 -14 619 -14 q 285 43 382 -14 q 131 197 188 100 q 74 414 74 294 m 118 414 q 228 140 118 251 q 500 28 338 28 q 773 140 663 28 q 883 414 883 251 q 773 689 883 576 q 500 801 663 801 q 228 689 338 801 q 118 414 118 576 m 268 415 q 333 592 268 529 q 511 654 397 654 q 605 638 576 654 q 678 621 633 621 q 676 593 676 608 q 675 564 675 578 q 676 534 675 546 q 678 521 676 522 l 651 521 q 604 595 642 564 q 522 626 567 626 q 424 574 458 626 q 390 415 390 522 q 426 263 390 314 q 525 213 461 213 q 610 243 576 213 q 654 318 644 274 l 685 318 q 682 276 683 293 q 681 253 681 260 q 683 217 681 236 l 678 217 q 600 199 642 217 q 507 182 558 182 q 332 244 396 182 q 268 415 268 307 z "},"®":{"ha":683,"x_min":64,"x_max":619,"o":"m 342 843 q 538 767 456 843 q 619 574 619 690 q 538 382 619 458 q 342 306 456 306 q 145 382 226 306 q 64 574 64 458 q 145 767 64 690 q 342 843 226 843 m 340 807 q 172 742 239 807 q 104 574 104 676 q 172 407 104 472 q 340 342 239 342 q 510 407 442 342 q 578 574 578 472 q 510 742 578 676 q 340 807 442 807 m 210 714 l 351 714 q 458 647 458 714 q 381 571 458 585 q 437 551 408 571 q 465 494 465 532 q 470 470 465 482 q 493 464 475 458 l 493 440 l 442 440 q 385 483 385 440 l 385 503 q 367 543 385 531 q 331 556 350 556 l 317 556 l 317 475 q 326 465 317 465 l 350 465 l 350 440 l 210 440 l 210 465 l 226 465 q 235 475 235 465 l 235 679 q 224 689 235 689 l 210 689 l 210 714 m 336 689 l 324 689 q 317 685 317 689 l 317 582 l 343 582 q 369 598 360 582 q 378 638 378 614 q 367 676 378 664 q 336 689 357 689 z "},"™":{"ha":1053,"x_min":14,"x_max":1028,"o":"m 14 726 l 14 829 l 403 829 l 403 726 l 376 726 q 292 803 376 803 l 271 803 q 263 796 263 803 l 263 471 q 276 456 263 456 l 313 457 l 313 431 l 103 431 l 103 457 l 140 456 q 153 472 153 456 l 153 794 q 144 803 153 803 l 125 803 q 39 726 39 803 l 14 726 m 521 788 l 521 471 q 535 456 521 456 l 568 457 l 568 431 l 450 431 l 450 457 l 476 456 q 490 471 490 456 l 490 794 l 521 788 m 700 424 l 518 788 l 490 782 l 490 799 q 483 803 490 803 l 454 801 l 454 829 l 613 829 l 757 543 l 700 424 m 882 829 l 1024 829 l 1024 801 l 1004 803 q 990 789 990 803 l 990 471 q 1004 456 990 456 l 1028 457 l 1028 431 l 833 431 l 833 457 l 868 456 q 882 471 882 456 l 882 785 l 882 829 m 893 783 l 724 424 l 700 424 l 726 499 l 882 829 l 893 783 z "},"°":{"ha":519,"x_min":124,"x_max":396,"o":"m 124 707 q 163 803 124 764 q 260 843 203 843 q 356 803 317 843 q 396 707 396 764 q 356 610 396 650 q 260 571 317 571 q 163 610 203 571 q 124 707 124 650 m 182 707 q 205 652 182 675 q 260 629 228 629 q 315 652 292 629 q 338 707 338 675 q 315 762 338 739 q 260 785 292 785 q 205 762 228 785 q 182 707 182 739 z "},"|":{"ha":322,"x_min":136,"x_max":186,"o":"m 136 -332 l 136 1014 l 186 1014 l 186 -332 l 136 -332 z "},"¦":{"ha":322,"x_min":135,"x_max":188,"o":"m 135 157 l 188 157 l 188 -321 l 135 -321 l 135 157 m 135 368 l 135 843 l 188 843 l 188 368 l 135 368 z "},"ℓ":{"ha":535,"x_min":1,"x_max":468,"o":"m 196 318 q 15 231 115 271 l 1 272 q 189 365 115 319 l 196 318 m 189 358 q 358 508 306 429 q 411 688 411 588 q 335 806 411 806 q 271 771 289 806 q 250 692 253 736 q 247 619 247 647 q 249 551 249 585 q 249 500 249 517 q 240 272 242 342 q 237 181 238 203 q 236 149 236 160 q 253 58 236 83 q 308 32 269 32 q 418 139 374 32 l 447 125 q 379 25 418 58 q 278 -8 340 -8 q 155 35 193 -8 q 117 171 117 78 q 117 197 117 175 q 121 294 118 218 q 131 538 124 369 q 155 694 133 625 q 220 803 176 763 q 336 843 264 843 q 468 700 464 843 q 419 517 468 619 q 196 311 371 414 l 189 358 z "},"†":{"ha":733,"x_min":49,"x_max":671,"o":"m 379 569 q 390 497 378 522 q 416 456 403 472 q 429 415 429 439 q 422 351 429 396 q 411 217 414 307 q 405 19 408 117 q 391 -144 401 -79 q 360 -208 381 -208 q 328 -144 339 -208 q 315 19 318 -79 q 308 217 311 117 q 298 351 306 307 q 290 415 290 396 q 317 479 290 450 q 340 569 343 508 l 379 569 m 340 563 q 324 618 329 593 q 318 663 318 643 q 326 712 318 681 q 335 756 335 743 q 314 797 335 783 q 293 839 293 811 q 313 874 293 858 q 360 889 332 889 q 407 874 388 889 q 426 839 426 858 q 406 797 426 811 q 385 756 385 783 q 393 709 385 738 q 401 663 401 681 q 396 618 401 643 q 379 563 390 593 l 340 563 m 351 560 q 315 546 332 550 q 283 542 299 542 q 237 547 260 542 q 189 551 214 551 q 143 524 153 551 q 104 497 133 497 q 60 517 72 497 q 49 567 49 536 q 73 617 49 597 q 132 636 97 636 q 188 622 164 636 q 247 592 211 607 q 354 578 283 578 l 365 578 q 472 592 438 578 q 530 622 507 607 q 588 636 553 636 q 647 617 622 636 q 671 567 671 597 q 659 517 671 536 q 615 497 647 497 q 576 524 585 497 q 531 551 567 551 q 483 547 506 551 q 436 542 460 542 q 404 546 421 542 q 368 560 388 550 l 351 560 z "},"‡":{"ha":733,"x_min":49,"x_max":671,"o":"m 379 556 q 404 467 379 488 q 429 415 429 447 q 403 339 429 390 l 315 339 q 290 415 290 388 q 315 467 290 447 q 340 556 340 486 l 379 556 m 340 556 q 324 615 329 590 q 318 663 318 639 q 326 712 318 681 q 335 756 335 743 q 314 797 335 783 q 293 839 293 811 q 313 874 293 858 q 360 889 332 889 q 407 874 388 889 q 426 839 426 858 q 406 797 426 811 q 385 756 385 783 q 393 709 385 738 q 401 663 401 681 q 396 615 401 639 q 379 556 390 590 l 340 556 m 351 558 q 315 544 332 547 q 283 542 299 542 q 237 547 260 542 q 189 551 214 551 q 143 524 153 551 q 104 497 133 497 q 60 517 72 497 q 49 567 49 536 q 73 617 49 597 q 132 636 97 636 q 188 622 164 636 q 247 592 211 607 q 354 578 283 578 l 365 578 q 472 592 438 578 q 530 622 507 607 q 588 636 553 636 q 647 617 622 636 q 671 567 671 597 q 659 517 671 536 q 615 497 647 497 q 576 524 585 497 q 531 551 567 551 q 483 547 506 551 q 436 542 460 542 q 404 544 421 542 q 368 558 388 547 l 351 558 m 379 122 l 340 122 q 315 211 340 192 q 290 263 290 231 q 315 339 290 290 l 403 339 q 429 263 429 288 q 404 210 429 231 q 379 122 379 190 m 340 122 l 379 122 q 396 63 390 88 q 401 15 401 39 q 393 -31 401 -3 q 385 -78 385 -60 q 406 -119 385 -106 q 426 -161 426 -133 q 407 -196 426 -181 q 360 -211 388 -211 q 313 -196 332 -211 q 293 -161 293 -181 q 314 -119 293 -133 q 335 -78 335 -106 q 326 -34 335 -65 q 318 15 318 -3 q 324 63 318 39 q 340 122 329 88 m 351 119 l 368 119 q 404 133 388 131 q 436 136 421 136 q 483 131 460 136 q 531 126 506 126 q 576 153 567 126 q 615 181 585 181 q 659 161 647 181 q 671 111 671 142 q 647 61 671 81 q 588 42 622 42 q 530 56 553 42 q 472 85 507 71 q 365 100 438 100 l 354 100 q 247 85 283 100 q 188 56 211 71 q 132 42 164 42 q 73 61 97 42 q 49 111 49 81 q 60 161 49 142 q 104 181 72 181 q 143 153 133 181 q 189 126 153 126 q 237 131 214 126 q 283 136 260 136 q 315 133 299 136 q 351 119 332 131 z "},"℮":{"ha":985,"x_min":76,"x_max":908,"o":"m 493 843 q 801 728 694 843 q 908 415 908 614 l 219 415 l 219 122 q 499 24 321 24 q 825 188 731 24 l 860 167 q 499 -15 754 -15 q 187 99 297 -15 q 76 415 76 214 q 187 731 76 619 q 493 843 297 843 m 493 804 q 219 710 321 804 l 219 454 l 765 454 l 765 707 q 493 804 664 804 z "},"^":{"ha":639,"x_min":25,"x_max":614,"o":"m 25 446 l 304 913 l 336 913 l 614 446 l 549 446 l 347 786 l 319 844 l 293 786 l 89 446 l 25 446 z "},"̦":{"ha":361,"x_min":106,"x_max":256,"o":"m 117 -278 q 165 -238 144 -262 q 186 -194 186 -214 q 147 -154 186 -154 q 117 -140 128 -154 q 106 -107 106 -125 q 122 -66 106 -85 q 172 -47 139 -47 q 233 -74 211 -47 q 256 -133 256 -100 q 219 -232 256 -189 q 139 -296 183 -275 l 117 -278 z "},"ˉ":{"ha":621,"x_min":144,"x_max":476,"o":"m 144 788 l 144 843 l 476 843 l 476 788 l 144 788 z "},"´":{"ha":383,"x_min":49,"x_max":335,"o":"m 335 871 q 321 853 335 864 l 94 697 q 82 690 90 694 q 67 685 74 685 q 49 696 49 685 q 57 710 49 701 q 74 728 65 718 l 206 872 q 256 907 236 907 q 308 893 281 907 q 335 871 335 879 z "},"˘":{"ha":474,"x_min":49,"x_max":425,"o":"m 425 892 q 368 767 415 815 q 236 719 321 719 q 105 767 151 719 q 49 892 58 815 l 101 892 q 141 822 111 854 q 236 789 171 789 q 331 822 299 789 q 372 892 363 854 l 425 892 z "},"ˇ":{"ha":531,"x_min":49,"x_max":482,"o":"m 49 901 q 61 913 49 913 q 80 907 68 913 q 100 896 92 901 l 265 793 l 431 896 q 451 907 439 901 q 469 913 463 913 q 482 901 482 913 q 449 867 482 892 q 372 797 415 842 l 340 764 l 307 731 q 265 696 269 696 q 224 731 261 696 l 190 764 l 158 797 q 82 867 115 842 q 49 901 49 892 z "},"¸":{"ha":324,"x_min":49,"x_max":275,"o":"m 49 -275 l 58 -242 q 107 -260 75 -260 q 162 -238 139 -260 q 185 -185 185 -217 q 170 -153 185 -167 q 138 -131 156 -140 l 106 -111 q 90 -90 90 -100 q 99 -72 90 -81 l 156 0 l 201 0 l 164 -60 q 156 -86 156 -75 q 185 -107 156 -103 q 245 -122 215 -111 q 275 -169 275 -133 q 242 -262 275 -228 q 144 -297 208 -297 q 99 -294 126 -297 q 49 -275 72 -290 z "},"ˆ":{"ha":531,"x_min":49,"x_max":482,"o":"m 482 696 q 469 685 482 685 q 451 690 463 685 q 431 701 439 696 l 265 804 l 100 701 q 80 690 92 696 q 61 685 68 685 q 49 696 49 685 q 82 731 49 706 q 158 800 115 756 l 190 833 l 224 867 q 265 901 261 901 q 307 867 269 901 l 340 833 l 372 800 q 449 731 415 756 q 482 696 482 706 z "},"¨":{"ha":518,"x_min":49,"x_max":469,"o":"m 49 826 q 70 875 49 856 q 124 894 92 894 q 176 875 154 894 q 199 826 199 856 q 177 778 199 796 q 124 760 156 760 q 70 778 92 760 q 49 826 49 796 m 319 826 q 341 875 319 856 q 394 894 363 894 q 447 875 425 894 q 469 826 469 856 q 448 778 469 796 q 394 760 426 760 q 341 778 363 760 q 319 826 319 796 z "},"˙":{"ha":247,"x_min":49,"x_max":199,"o":"m 49 826 q 70 875 49 856 q 124 894 92 894 q 176 875 154 894 q 199 826 199 856 q 177 778 199 796 q 124 760 156 760 q 70 778 92 760 q 49 826 49 796 z "},"`":{"ha":383,"x_min":49,"x_max":335,"o":"m 49 871 q 63 853 49 864 l 289 697 q 301 690 293 694 q 317 685 310 685 q 335 696 335 685 q 326 710 335 701 q 310 728 318 718 l 178 872 q 128 907 147 907 q 76 893 103 907 q 49 871 49 879 z "},"˝":{"ha":469,"x_min":49,"x_max":421,"o":"m 53 708 q 139 856 119 822 q 164 894 158 889 q 182 907 174 907 q 211 900 189 907 q 242 889 233 893 q 254 872 254 883 q 246 856 254 867 q 209 818 238 846 q 82 693 181 790 q 61 685 74 685 q 49 696 49 685 q 53 708 49 700 m 219 708 q 306 856 286 822 q 331 894 325 889 q 349 907 340 907 q 378 900 356 907 q 408 889 400 893 q 421 872 421 883 q 413 856 421 867 q 376 818 404 846 q 249 693 347 790 q 228 685 240 685 q 215 696 215 685 q 219 708 215 700 z "},"¯":{"ha":621,"x_min":144,"x_max":476,"o":"m 144 788 l 144 843 l 476 843 l 476 788 l 144 788 z "},"˛":{"ha":336,"x_min":35,"x_max":301,"o":"m 301 -137 q 138 -221 229 -221 q 67 -196 99 -221 q 35 -121 35 -171 q 139 19 35 -28 l 178 19 q 107 -86 107 -14 q 126 -139 107 -117 q 188 -161 146 -161 q 285 -121 238 -161 l 301 -137 z "},"˚":{"ha":329,"x_min":49,"x_max":281,"o":"m 49 799 q 83 878 49 846 q 164 911 117 911 q 246 878 211 911 q 281 799 281 846 q 246 718 281 751 q 164 685 211 685 q 83 718 117 685 q 49 799 49 751 m 107 799 q 164 735 107 735 q 222 799 222 735 q 164 861 222 861 q 107 799 107 861 z "},"˜":{"ha":494,"x_min":49,"x_max":446,"o":"m 49 736 q 74 825 49 788 q 138 863 99 863 q 257 833 182 863 q 372 803 332 803 q 418 861 418 803 l 446 861 q 421 772 446 810 q 357 735 396 735 q 238 765 311 735 q 122 794 164 794 q 76 736 76 794 l 49 736 z "},"\r":{"ha":306,"x_min":0,"x_max":0,"o":""},"\u0000":{"ha":0,"x_min":0,"x_max":0,"o":""},"":{"ha":583,"x_min":0,"x_max":583,"o":"m 0 583 l 583 583 l 583 0 l 0 0 l 0 583 z "}}}
